AllBirdsCombinations-Fit.ufo
<glyph name="exclamation" format="2">
  <advance width="248.2"/>
  <unicode hex="0021"/>
  <outline>
    <contour>
      <point x="44.099998474121094" y="204.1666717529297" type="line"/>
      <point x="204.0999984741211" y="204.1666717529297" type="line"/>
      <point x="204.0999984741211" y="800" type="line"/>
      <point x="44.099998474121094" y="800" type="line"/>
    </contour>
    <contour>
      <point x="209.1" y="73.75" type="curve" smooth="yes"/>
      <point x="209.1" y="120.66278"/>
      <point x="171.01278" y="158.75"/>
      <point x="124.1" y="158.75" type="curve" smooth="yes"/>
      <point x="77.18722" y="158.75"/>
      <point x="39.1" y="120.66278"/>
      <point x="39.1" y="73.75" type="curve" smooth="yes"/>
      <point x="39.1" y="26.83722"/>
      <point x="77.18722" y="-11.25"/>
      <point x="124.1" y="-11.25" type="curve" smooth="yes"/>
      <point x="171.01278" y="-11.25"/>
      <point x="209.1" y="26.83722"/>
    </contour>
  </outline>
</glyph>
<glyph name="numbersign" format="2">
  <advance width="825.9499605415225"/>
  <unicode hex="0023"/>
  <outline>
    <contour>
      <point x="137.07555389404297" y="-5" type="line"/>
      <point x="224.72734576822927" y="-5.0"/>
      <point x="312.06193937832404" y="59.984105130065785"/>
      <point x="336.30973962002963" y="165.12788013015864" type="curve"/>
      <point x="337.4333267211914" y="170" type="line"/>
      <point x="382.4333267211914" y="170" type="line"/>
      <point x="342.07555389404297" y="-5" type="line"/>
      <point x="429.30916179479675" y="-5.0"/>
      <point x="517.0992847371875" y="60.14610131834834"/>
      <point x="541.8245552459153" y="167.36022586302627" type="curve"/>
      <point x="542.9481430053711" y="172.2323455810547" type="line"/>
      <point x="621.5102170559672" y="184.9291247639655"/>
      <point x="694.3957025260089" y="250.7795338024"/>
      <point x="712.6651993187905" y="330.0" type="curve"/>
      <point x="579.3318710327148" y="330" type="line"/>
      <point x="612.1329040527344" y="472.2323455810547" type="line"/>
      <point x="690.6949782786992" y="484.92912476396543"/>
      <point x="763.580463748741" y="550.7795338023999"/>
      <point x="781.8499605415224" y="630.0" type="curve"/>
      <point x="648.5166320800781" y="630" type="line"/>
      <point x="688.8744049072266" y="805" type="line"/>
      <point x="601.2226130330403" y="805.0"/>
      <point x="513.8880315421039" y="740.015892075066"/>
      <point x="489.6402197179441" y="634.872119746069" type="curve"/>
      <point x="488.5166320800781" y="630" type="line"/>
      <point x="443.5166320800781" y="630" type="line"/>
      <point x="483.87440490722656" y="805" type="line"/>
      <point x="396.6407970064728" y="805.0"/>
      <point x="308.85068481179775" y="739.8538962030581"/>
      <point x="284.12540402253154" y="632.6397740292352" type="curve"/>
      <point x="283.00181579589844" y="627.7676544189453" type="line"/>
      <point x="204.43974348555525" y="615.0708752360345"/>
      <point x="131.5542580155136" y="549.2204661976"/>
      <point x="113.28476122273199" y="469.9999999999999" type="curve"/>
      <point x="246.61809539794922" y="470" type="line"/>
      <point x="213.81705474853516" y="327.7676544189453" type="line"/>
      <point x="135.25498226282326" y="315.07087523603457"/>
      <point x="62.36949679278159" y="249.22046619760005"/>
      <point x="44.10000000000002" y="170.00000000000006" type="curve"/>
      <point x="177.4333267211914" y="170" type="line"/>
    </contour>
    <contour>
      <point x="451.6180953979492" y="470" type="line"/>
      <point x="419.33187103271484" y="330" type="line"/>
      <point x="374.33187103271484" y="330" type="line"/>
      <point x="406.6180953979492" y="470" type="line"/>
    </contour>
  </outline>
</glyph>
<glyph name="dollar" format="2">
  <advance width="453.2"/>
  <unicode hex="0024"/>
  <outline>
    <contour>
      <point x="44.09999885559082" y="495.0" type="line"/>
      <point x="44.0999957282131" y="372.0265038319384"/>
      <point x="130.36253119468387" y="320.0"/>
      <point x="204.1" y="320.0" type="curve"/>
      <point x="204.0999984741211" y="800" type="line"/>
      <point x="124.0999984741211" y="800" type="line"/>
      <point x="124.0999984741211" y="678.5437774658203" type="line"/>
      <point x="46.52766586775503" y="633.6664029729196"/>
      <point x="44.10000054212516" y="561.3172286340663"/>
      <point x="44.099998982747394" y="500.0" type="curve"/>
    </contour>
    <contour>
      <point x="244.0999984741211" y="740.0" type="line"/>
      <point x="244.0999984741211" y="551.8561959020357"/>
      <point x="365.87249760758027" y="540.0"/>
      <point x="404.1" y="540.0" type="curve"/>
      <point x="404.0999984741211" y="700" type="line"/>
      <point x="324.0999984741211" y="700" type="line"/>
      <point x="324.0999984741211" y="800" type="line"/>
      <point x="244.0999984741211" y="800" type="line"/>
    </contour>
    <contour>
      <point x="249.0999984741211" y="0" type="line"/>
      <point x="329.0999984741211" y="0" type="line"/>
      <point x="329.0999984741211" y="121.45622253417969" type="line"/>
      <point x="406.6723323221545" y="166.33359488080868"/>
      <point x="409.1000005421252" y="238.68277136593383"/>
      <point x="409.0999989827474" y="300.00000000000006" type="curve"/>
      <point x="409.09999885559085" y="305.00000000000006" type="line"/>
      <point x="409.09999572821295" y="427.9734961680617"/>
      <point x="322.8374688053161" y="480.0"/>
      <point x="249.1" y="480.0" type="curve"/>
    </contour>
    <contour>
      <point x="124.0999984741211" y="0" type="line"/>
      <point x="204.0999984741211" y="0" type="line"/>
      <point x="204.0999984741211" y="60.0" type="line"/>
      <point x="204.0999984741211" y="248.1438040979643"/>
      <point x="82.32750239241975" y="260.0"/>
      <point x="44.1" y="260.0" type="curve"/>
      <point x="44.099998474121094" y="100" type="line"/>
      <point x="124.0999984741211" y="100" type="line"/>
    </contour>
  </outline>
</glyph>
<glyph name="percent" format="2">
  <advance width="758.2"/>
  <unicode hex="0025"/>
  <outline>
    <contour>
      <point x="129.1" y="805.0" type="line"/>
      <point x="82.18722" y="805.0"/>
      <point x="44.1" y="766.91278"/>
      <point x="44.1" y="720.0" type="curve" smooth="yes"/>
      <point x="44.1" y="673.08722"/>
      <point x="82.18722" y="635.0"/>
      <point x="129.1" y="635.0" type="curve"/>
    </contour>
    <contour>
      <point x="174.1" y="635.0" type="line"/>
      <point x="221.01278" y="635.0"/>
      <point x="259.1" y="673.08722"/>
      <point x="259.1" y="720.0" type="curve" smooth="yes"/>
      <point x="259.1" y="766.91278"/>
      <point x="221.01278" y="805.0"/>
      <point x="174.1" y="805.0" type="curve"/>
    </contour>
    <contour>
      <point x="299.0999984741211" y="0" type="line"/>
      <point x="337.3275008665408" y="0.0"/>
      <point x="459.1000003532024" y="11.856195902035694"/>
      <point x="459.09999990463257" y="200.0" type="curve"/>
      <point x="459.0999984741211" y="800" type="line"/>
      <point x="420.8724960817014" y="800.0"/>
      <point x="299.1000003532024" y="788.1438040979643"/>
      <point x="299.09999990463257" y="600.0" type="curve"/>
    </contour>
    <contour>
      <point x="584.1" y="165.0" type="line"/>
      <point x="537.18722" y="165.0"/>
      <point x="499.1" y="126.91278"/>
      <point x="499.1" y="80.0" type="curve" smooth="yes"/>
      <point x="499.1" y="33.08722"/>
      <point x="537.18722" y="-5.0"/>
      <point x="584.1" y="-5.0" type="curve"/>
    </contour>
    <contour>
      <point x="629.1" y="-5.0" type="line"/>
      <point x="676.01278" y="-5.0"/>
      <point x="714.1" y="33.08722"/>
      <point x="714.1" y="80.0" type="curve" smooth="yes"/>
      <point x="714.1" y="126.91278"/>
      <point x="676.01278" y="165.0"/>
      <point x="629.1" y="165.0" type="curve"/>
    </contour>
  </outline>
</glyph>
<glyph name="ampersand" format="2">
  <advance width="613.2"/>
  <unicode hex="0026"/>
  <outline>
    <contour>
      <point x="44.09999914169311" y="595.0" type="line"/>
      <point x="44.099995840494245" y="421.92210465500364"/>
      <point x="155.7878316417685" y="400.0"/>
      <point x="204.1" y="400.0" type="curve"/>
      <point x="204.0999984741211" y="800" type="line"/>
      <point x="165.8724960817014" y="800.0"/>
      <point x="44.10000282561884" y="788.1438040979642"/>
      <point x="44.099999237060544" y="600.0" type="curve"/>
    </contour>
    <contour>
      <point x="239.1" y="800.0" type="line"/>
      <point x="239.1" y="711.6936"/>
      <point x="310.7936" y="640.0"/>
      <point x="399.1" y="640.0" type="curve"/>
      <point x="399.1" y="800.0" type="line"/>
    </contour>
    <contour>
      <point x="249.0999984741211" y="-5" type="line"/>
      <point x="287.3275008665408" y="-5.0"/>
      <point x="409.1000012218893" y="6.856195902035694"/>
      <point x="409.09999967008025" y="195.0" type="curve"/>
      <point x="409.0999984741211" y="340" type="line"/>
      <point x="497.4064" y="340.0"/>
      <point x="569.1" y="411.6936"/>
      <point x="569.1" y="500.0" type="curve"/>
      <point x="449.0999984741211" y="500.0" type="line"/>
      <point x="357.39989442805256" y="500.0"/>
      <point x="249.10000065519137" y="488.13823999335887"/>
      <point x="249.0999998230865" y="300.0" type="curve"/>
    </contour>
    <contour>
      <point x="44.09999919218176" y="195.0" type="line"/>
      <point x="44.09999581471513" y="6.856195902035722"/>
      <point x="165.87249760758027" y="-4.999999999999996"/>
      <point x="204.1" y="-5.0" type="curve"/>
      <point x="204.0999984741211" y="400" type="line"/>
      <point x="165.8724960817014" y="400.0"/>
      <point x="44.10000265940595" y="388.1438040979643"/>
      <point x="44.09999928193934" y="200.0" type="curve"/>
    </contour>
  </outline>
</glyph>
<glyph name="quotesingle" format="2">
  <advance width="248.2"/>
  <unicode hex="0027"/>
  <outline>
    <contour>
      <point x="44.099998474121094" y="700" type="line"/>
      <point x="92.41216683235261" y="700.0"/>
      <point x="204.10000526725366" y="721.9221046550037"/>
      <point x="204.09999866485595" y="895.0" type="curve"/>
      <point x="204.0999984741211" y="900" type="line"/>
      <point x="44.099998474121094" y="900" type="line"/>
    </contour>
  </outline>
</glyph>
<glyph name="parenleft" format="2">
  <advance width="248.2"/>
  <unicode hex="0028"/>
  <outline>
    <contour>
      <point x="44.09999856387868" y="100.0" type="line"/>
      <point x="44.09999814169534" y="-88.1438040979643"/>
      <point x="165.87249760758027" y="-100.0"/>
      <point x="204.1" y="-100.0" type="curve"/>
      <point x="204.0999984741211" y="900" type="line"/>
      <point x="165.8724960817014" y="900.0"/>
      <point x="44.100000332425736" y="888.1438040979643"/>
      <point x="44.09999991024242" y="700.0" type="curve"/>
    </contour>
  </outline>
</glyph>
<glyph name="parenright" format="2">
  <advance width="248.2"/>
  <unicode hex="0029"/>
  <outline>
    <contour>
      <point x="44.099998474121094" y="-100" type="line"/>
      <point x="82.3275008665408" y="-100.0"/>
      <point x="204.10000033242574" y="-88.1438040979643"/>
      <point x="204.09999991024242" y="100.0" type="curve"/>
      <point x="204.09999856387867" y="700.0" type="line"/>
      <point x="204.09999814169532" y="888.1438040979643"/>
      <point x="82.32750239241975" y="900.0"/>
      <point x="44.1" y="900.0" type="curve"/>
    </contour>
  </outline>
</glyph>
<glyph name="comma" format="2">
  <advance width="248.2"/>
  <unicode hex="002C"/>
  <outline>
    <contour>
      <point x="44.099998474121094" y="-100" type="line"/>
      <point x="92.41216683235261" y="-100.0"/>
      <point x="204.10000526725366" y="-78.0778953449962"/>
      <point x="204.09999866485595" y="95.0" type="curve"/>
      <point x="204.0999984741211" y="100" type="line"/>
      <point x="44.099998474121094" y="100" type="line"/>
    </contour>
  </outline>
</glyph>
<glyph name="period" format="2">
  <advance width="248.2"/>
  <unicode hex="002E"/>
  <outline>
    <contour>
      <point x="209.1" y="73.75" type="curve" smooth="yes"/>
      <point x="209.1" y="120.66278"/>
      <point x="171.01278" y="158.75"/>
      <point x="124.1" y="158.75" type="curve" smooth="yes"/>
      <point x="77.18722" y="158.75"/>
      <point x="39.1" y="120.66278"/>
      <point x="39.1" y="73.75" type="curve" smooth="yes"/>
      <point x="39.1" y="26.83722"/>
      <point x="77.18722" y="-11.25"/>
      <point x="124.1" y="-11.25" type="curve" smooth="yes"/>
      <point x="171.01278" y="-11.25"/>
      <point x="209.1" y="26.83722"/>
    </contour>
  </outline>
</glyph>
<glyph name="two" format="2">
  <advance width="453.2"/>
  <unicode hex="0032"/>
  <outline>
    <contour>
      <point x="214.1" y="720.0" type="curve" smooth="yes"/>
      <point x="214.1" y="766.91278"/>
      <point x="176.01278" y="805.0"/>
      <point x="129.1" y="805.0" type="curve" smooth="yes"/>
      <point x="82.18722" y="805.0"/>
      <point x="44.1" y="766.91278"/>
      <point x="44.1" y="720.0" type="curve" smooth="yes"/>
      <point x="44.1" y="673.08722"/>
      <point x="82.18722" y="635.0"/>
      <point x="129.1" y="635.0" type="curve" smooth="yes"/>
      <point x="176.01278" y="635.0"/>
      <point x="214.1" y="673.08722"/>
    </contour>
    <contour>
      <point x="249.0999984741211" y="211.6666717529297" type="line"/>
      <point x="287.3275008665408" y="211.66667099409315"/>
      <point x="409.10000082701043" y="223.5228659020357"/>
      <point x="409.09999977670066" y="411.66667" type="curve"/>
      <point x="409.09999869742046" y="605.0" type="line"/>
      <point x="409.0999976471107" y="793.1438040979643"/>
      <point x="287.3275023924197" y="805.0"/>
      <point x="249.1" y="805.0" type="curve"/>
    </contour>
    <contour>
      <point x="44.1" y="0.0" type="curve"/>
      <point x="409.0999984741211" y="0" type="line"/>
      <point x="409.0999984741211" y="160" type="line"/>
      <point x="244.0999984741211" y="160.0" type="line"/>
      <point x="55.95619437615679" y="160.00000000000003"/>
      <point x="44.1" y="38.22750239241974"/>
    </contour>
  </outline>
</glyph>
<glyph name="three" format="2">
  <advance width="453.2"/>
  <unicode hex="0033"/>
  <outline>
    <contour>
      <point x="209.1" y="720.0" type="curve" smooth="yes"/>
      <point x="209.1" y="766.91278"/>
      <point x="171.01278" y="805.0"/>
      <point x="124.1" y="805.0" type="curve" smooth="yes"/>
      <point x="77.18722" y="805.0"/>
      <point x="39.1" y="766.91278"/>
      <point x="39.1" y="720.0" type="curve" smooth="yes"/>
      <point x="39.1" y="673.08722"/>
      <point x="77.18722" y="635.0"/>
      <point x="124.1" y="635.0" type="curve" smooth="yes"/>
      <point x="171.01278" y="635.0"/>
      <point x="209.1" y="673.08722"/>
    </contour>
    <contour>
      <point x="249.0999984741211" y="400" type="line"/>
      <point x="287.3275008665408" y="400.0"/>
      <point x="409.100002659406" y="411.8561959020357"/>
      <point x="409.09999928193935" y="600.0" type="curve"/>
      <point x="409.09999919218177" y="605.0" type="line"/>
      <point x="409.0999958147151" y="793.1438040979642"/>
      <point x="287.3275023924197" y="805.0"/>
      <point x="249.1" y="805.0" type="curve"/>
    </contour>
    <contour>
      <point x="249.0999984741211" y="-5" type="line"/>
      <point x="287.3275008665408" y="-5.0"/>
      <point x="409.100002659406" y="6.856195902035722"/>
      <point x="409.09999928193935" y="195.0" type="curve"/>
      <point x="409.09999919218177" y="200.0" type="line"/>
      <point x="409.0999958147151" y="388.1438040979643"/>
      <point x="287.3275023924197" y="400.0"/>
      <point x="249.1" y="400.0" type="curve"/>
    </contour>
    <contour>
      <point x="209.1" y="80.0" type="curve" smooth="yes"/>
      <point x="209.1" y="126.91278"/>
      <point x="171.01278" y="165.0"/>
      <point x="124.1" y="165.0" type="curve" smooth="yes"/>
      <point x="77.18722" y="165.0"/>
      <point x="39.1" y="126.91278"/>
      <point x="39.1" y="80.0" type="curve" smooth="yes"/>
      <point x="39.1" y="33.08722"/>
      <point x="77.18722" y="-5.0"/>
      <point x="124.1" y="-5.0" type="curve" smooth="yes"/>
      <point x="171.01278" y="-5.0"/>
      <point x="209.1" y="33.08722"/>
    </contour>
  </outline>
</glyph>
<glyph name="four" format="2">
  <advance width="453.2"/>
  <unicode hex="0034"/>
  <outline>
    <contour>
      <point x="44.099998474121094" y="300" type="line"/>
      <point x="82.3275008665408" y="300.0"/>
      <point x="204.10000066485148" y="311.85619590203567"/>
      <point x="204.09999982048484" y="500.0" type="curve"/>
      <point x="204.0999984741211" y="800" type="line"/>
      <point x="44.099998474121094" y="800" type="line"/>
    </contour>
    <contour>
      <point x="249.0999984741211" y="0" type="line"/>
      <point x="409.0999984741211" y="0" type="line"/>
      <point x="409.0999984741211" y="500" type="line"/>
      <point x="249.0999984741211" y="500" type="line"/>
    </contour>
  </outline>
</glyph>
<glyph name="five" format="2">
  <advance width="453.2"/>
  <unicode hex="0035"/>
  <outline>
    <contour>
      <point x="49.099998474121094" y="520.0" type="line"/>
      <point x="49.09999847412111" y="331.85619590203567"/>
      <point x="170.87249760758027" y="320.0"/>
      <point x="209.1" y="320.0" type="curve"/>
      <point x="209.0999984741211" y="800" type="line"/>
      <point x="49.099998474121094" y="800" type="line"/>
    </contour>
    <contour>
      <point x="244.1" y="800.0" type="line"/>
      <point x="244.1" y="711.6936"/>
      <point x="315.7936" y="640.0"/>
      <point x="404.1" y="640.0" type="curve"/>
      <point x="404.1" y="800.0" type="line"/>
    </contour>
    <contour>
      <point x="249.0999984741211" y="-5" type="line"/>
      <point x="287.3275008665408" y="-5.0"/>
      <point x="409.1000013699971" y="6.856195902035694"/>
      <point x="409.09999963009" y="195.0" type="curve"/>
      <point x="409.0999988440311" y="280.0" type="line"/>
      <point x="409.09999710412404" y="468.14380409796433"/>
      <point x="287.3275023924197" y="480.0"/>
      <point x="249.1" y="480.0" type="curve"/>
    </contour>
    <contour>
      <point x="209.1" y="75.0" type="curve" smooth="yes"/>
      <point x="209.1" y="121.91278"/>
      <point x="171.01278" y="160.0"/>
      <point x="124.1" y="160.0" type="curve" smooth="yes"/>
      <point x="77.18722" y="160.0"/>
      <point x="39.1" y="121.91278"/>
      <point x="39.1" y="75.0" type="curve" smooth="yes"/>
      <point x="39.1" y="28.08722"/>
      <point x="77.18722" y="-10.0"/>
      <point x="124.1" y="-10.0" type="curve" smooth="yes"/>
      <point x="171.01278" y="-10.0"/>
      <point x="209.1" y="28.08722"/>
    </contour>
  </outline>
</glyph>
<glyph name="six" format="2">
  <advance width="453.2"/>
  <unicode hex="0036"/>
  <outline>
    <contour>
      <point x="44.09999859868263" y="195.0" type="line"/>
      <point x="44.09999801279558" y="6.856195902035694"/>
      <point x="165.87249760758027" y="-4.999999999999996"/>
      <point x="204.1" y="-5.0" type="curve"/>
      <point x="204.0999984741211" y="805" type="line"/>
      <point x="165.8724960817014" y="805.0"/>
      <point x="44.100000461325536" y="793.1438040979643"/>
      <point x="44.099999875438456" y="605.0" type="curve"/>
    </contour>
    <contour>
      <point x="404.1" y="725.0" type="curve" smooth="yes"/>
      <point x="404.1" y="769.1532"/>
      <point x="368.25320000000005" y="805.0"/>
      <point x="324.1" y="805.0" type="curve" smooth="yes"/>
      <point x="279.9468" y="805.0"/>
      <point x="244.1" y="769.1532"/>
      <point x="244.1" y="725.0" type="curve" smooth="yes"/>
      <point x="244.1" y="680.8468"/>
      <point x="279.9468" y="645.0"/>
      <point x="324.1" y="645.0" type="curve" smooth="yes"/>
      <point x="368.25320000000005" y="645.0"/>
      <point x="404.1" y="680.8468"/>
    </contour>
    <contour>
      <point x="249.0999984741211" y="-5" type="line"/>
      <point x="287.3275008665408" y="-5.0"/>
      <point x="409.1000012218893" y="6.856195902035694"/>
      <point x="409.09999967008025" y="195.0" type="curve"/>
      <point x="409.09999880404087" y="300.0" type="line"/>
      <point x="409.09999725223184" y="488.14380409796433"/>
      <point x="287.3275023924197" y="500.0"/>
      <point x="249.1" y="500.0" type="curve"/>
    </contour>
  </outline>
</glyph>
<glyph name="seven" format="2">
  <advance width="453.2"/>
  <unicode hex="0037"/>
  <outline>
    <contour>
      <point x="44.099998474121094" y="640" type="line"/>
      <point x="209.0999984741211" y="640.0" type="line"/>
      <point x="397.24380257208543" y="640.0"/>
      <point x="409.1" y="761.7724976075802"/>
      <point x="409.1" y="800.0" type="curve"/>
      <point x="44.099998474121094" y="800" type="line"/>
    </contour>
    <contour>
      <point x="249.0999984741211" y="0" type="line"/>
      <point x="409.0999984741211" y="0" type="line"/>
      <point x="409.0999984741211" y="630" type="line"/>
      <point x="370.8724960817014" y="630.0"/>
      <point x="249.1000004809564" y="618.1438040979643"/>
      <point x="249.09999987013796" y="430.0" type="curve"/>
    </contour>
  </outline>
</glyph>
<glyph name="eight" format="2">
  <advance width="453.2"/>
  <unicode hex="0038"/>
  <outline>
    <contour>
      <point x="44.09999919218176" y="600.0" type="line"/>
      <point x="44.09999581471513" y="411.8561959020357"/>
      <point x="165.87249760758027" y="400.0"/>
      <point x="204.1" y="400.0" type="curve"/>
      <point x="204.0999984741211" y="805" type="line"/>
      <point x="165.8724960817014" y="805.0"/>
      <point x="44.10000265940595" y="793.1438040979642"/>
      <point x="44.09999928193934" y="605.0" type="curve"/>
    </contour>
    <contour>
      <point x="249.0999984741211" y="400" type="line"/>
      <point x="287.3275008665408" y="400.0"/>
      <point x="409.100002659406" y="411.8561959020357"/>
      <point x="409.09999928193935" y="600.0" type="curve"/>
      <point x="409.09999919218177" y="605.0" type="line"/>
      <point x="409.0999958147151" y="793.1438040979642"/>
      <point x="287.3275023924197" y="805.0"/>
      <point x="249.1" y="805.0" type="curve"/>
    </contour>
    <contour>
      <point x="44.09999919218176" y="195.0" type="line"/>
      <point x="44.09999581471513" y="6.856195902035722"/>
      <point x="165.87249760758027" y="-4.999999999999996"/>
      <point x="204.1" y="-5.0" type="curve"/>
      <point x="204.0999984741211" y="400" type="line"/>
      <point x="165.8724960817014" y="400.0"/>
      <point x="44.10000265940595" y="388.1438040979643"/>
      <point x="44.09999928193934" y="200.0" type="curve"/>
    </contour>
    <contour>
      <point x="249.0999984741211" y="-5" type="line"/>
      <point x="287.3275008665408" y="-5.0"/>
      <point x="409.100002659406" y="6.856195902035722"/>
      <point x="409.09999928193935" y="195.0" type="curve"/>
      <point x="409.09999919218177" y="200.0" type="line"/>
      <point x="409.0999958147151" y="388.1438040979643"/>
      <point x="287.3275023924197" y="400.0"/>
      <point x="249.1" y="400.0" type="curve"/>
    </contour>
  </outline>
</glyph>
<glyph name="nine" format="2">
  <advance width="453.2"/>
  <unicode hex="0039"/>
  <outline>
    <contour>
      <point x="44.09999880404085" y="500.0" type="line"/>
      <point x="44.09999725223188" y="311.85619590203567"/>
      <point x="165.87249760758027" y="300.0"/>
      <point x="204.1" y="300.0" type="curve"/>
      <point x="204.0999984741211" y="805" type="line"/>
      <point x="165.8724960817014" y="805.0"/>
      <point x="44.10000122188923" y="793.1438040979643"/>
      <point x="44.09999967008024" y="605.0" type="curve"/>
    </contour>
    <contour>
      <point x="249.0999984741211" y="-5" type="line"/>
      <point x="287.3275008665408" y="-5.0"/>
      <point x="409.1000004613256" y="6.856195902035694"/>
      <point x="409.09999987543847" y="195.0" type="curve"/>
      <point x="409.09999859868265" y="605.0" type="line"/>
      <point x="409.0999980127956" y="793.1438040979643"/>
      <point x="287.3275023924197" y="805.0"/>
      <point x="249.1" y="805.0" type="curve"/>
    </contour>
    <contour>
      <point x="214.1" y="75.0" type="curve" smooth="yes"/>
      <point x="214.1" y="121.91278"/>
      <point x="176.01278" y="160.0"/>
      <point x="129.1" y="160.0" type="curve" smooth="yes"/>
      <point x="82.18722" y="160.0"/>
      <point x="44.1" y="121.91278"/>
      <point x="44.1" y="75.0" type="curve" smooth="yes"/>
      <point x="44.1" y="28.08722"/>
      <point x="82.18722" y="-10.0"/>
      <point x="129.1" y="-10.0" type="curve" smooth="yes"/>
      <point x="176.01278" y="-10.0"/>
      <point x="214.1" y="28.08722"/>
    </contour>
  </outline>
</glyph>
<glyph name="colon" format="2">
  <advance width="248.2"/>
  <unicode hex="003A"/>
  <outline>
    <contour>
      <point x="209.1" y="520.0" type="curve" smooth="yes"/>
      <point x="209.1" y="566.91278"/>
      <point x="171.01278" y="605.0"/>
      <point x="124.1" y="605.0" type="curve" smooth="yes"/>
      <point x="77.18722" y="605.0"/>
      <point x="39.1" y="566.91278"/>
      <point x="39.1" y="520.0" type="curve" smooth="yes"/>
      <point x="39.1" y="473.08722"/>
      <point x="77.18722" y="435.0"/>
      <point x="124.1" y="435.0" type="curve" smooth="yes"/>
      <point x="171.01278" y="435.0"/>
      <point x="209.1" y="473.08722"/>
    </contour>
    <contour>
      <point x="209.1" y="75.0" type="curve" smooth="yes"/>
      <point x="209.1" y="121.91278"/>
      <point x="171.01278" y="160.0"/>
      <point x="124.1" y="160.0" type="curve" smooth="yes"/>
      <point x="77.18722" y="160.0"/>
      <point x="39.1" y="121.91278"/>
      <point x="39.1" y="75.0" type="curve" smooth="yes"/>
      <point x="39.1" y="28.08722"/>
      <point x="77.18722" y="-10.0"/>
      <point x="124.1" y="-10.0" type="curve" smooth="yes"/>
      <point x="171.01278" y="-10.0"/>
      <point x="209.1" y="28.08722"/>
    </contour>
  </outline>
</glyph>
<glyph name="semicolon" format="2">
  <advance width="248.2"/>
  <unicode hex="003B"/>
  <outline>
    <contour>
      <point x="209.1" y="520.0" type="curve" smooth="yes"/>
      <point x="209.1" y="566.91278"/>
      <point x="171.01278" y="605.0"/>
      <point x="124.1" y="605.0" type="curve" smooth="yes"/>
      <point x="77.18722" y="605.0"/>
      <point x="39.1" y="566.91278"/>
      <point x="39.1" y="520.0" type="curve" smooth="yes"/>
      <point x="39.1" y="473.08722"/>
      <point x="77.18722" y="435.0"/>
      <point x="124.1" y="435.0" type="curve" smooth="yes"/>
      <point x="171.01278" y="435.0"/>
      <point x="209.1" y="473.08722"/>
    </contour>
    <contour>
      <point x="44.099998474121094" y="-100" type="line"/>
      <point x="92.41216683235261" y="-100.0"/>
      <point x="204.10000526725366" y="-78.0778953449962"/>
      <point x="204.09999866485595" y="95.0" type="curve"/>
      <point x="204.0999984741211" y="100" type="line"/>
      <point x="44.099998474121094" y="100" type="line"/>
    </contour>
  </outline>
</glyph>
<glyph name="less" format="2">
  <advance width="408.2"/>
  <unicode hex="003C"/>
  <outline>
    <contour>
      <point x="44.099998692103796" y="300.0" type="line"/>
      <point x="44.099997657867576" y="110.21682998364616"/>
      <point x="154.85138238144623" y="100.00000000000001"/>
      <point x="244.1" y="100.0" type="curve"/>
      <point x="364.0999984741211" y="100" type="line"/>
      <point x="364.1" y="188.3064"/>
      <point x="292.4064" y="260.0"/>
      <point x="204.1" y="260.0" type="curve"/>
      <point x="204.0999984741211" y="540" type="line"/>
      <point x="292.4064" y="540.0"/>
      <point x="364.1" y="611.6936"/>
      <point x="364.1" y="700.0" type="curve"/>
      <point x="244.0999984741211" y="700.0" type="line"/>
      <point x="152.39989442805256" y="700.0"/>
      <point x="44.10000080728934" y="688.1382399933589"/>
      <point x="44.0999997820173" y="500.0" type="curve"/>
    </contour>
  </outline>
</glyph>
<glyph name="greater" format="2">
  <advance width="408.2"/>
  <unicode hex="003E"/>
  <outline>
    <contour>
      <point x="164.0999984741211" y="100.0" type="line"/>
      <point x="353.88316849047493" y="100.0"/>
      <point x="364.1000002683837" y="210.75138238144626"/>
      <point x="364.09999978201733" y="300.0" type="curve"/>
      <point x="364.0999986921038" y="500.0" type="line"/>
      <point x="364.09999765786756" y="689.7831700163538"/>
      <point x="253.34861761855376" y="700.0"/>
      <point x="164.1" y="700.0" type="curve"/>
      <point x="44.099998474121094" y="700" type="line"/>
      <point x="44.1" y="611.6936"/>
      <point x="115.7936" y="540.0"/>
      <point x="204.1" y="540.0" type="curve"/>
      <point x="204.0999984741211" y="260" type="line"/>
      <point x="115.7936" y="260.0"/>
      <point x="44.1" y="188.3064"/>
      <point x="44.1" y="100.0" type="curve"/>
    </contour>
  </outline>
</glyph>
<glyph name="question" format="2">
  <advance width="453.2"/>
  <unicode hex="003F"/>
  <outline>
    <contour>
      <point x="209.1" y="732.5" type="curve" smooth="yes"/>
      <point x="209.1" y="779.41278"/>
      <point x="171.01278" y="817.5"/>
      <point x="124.1" y="817.5" type="curve" smooth="yes"/>
      <point x="77.18722" y="817.5"/>
      <point x="39.1" y="779.41278"/>
      <point x="39.1" y="732.5" type="curve" smooth="yes"/>
      <point x="39.1" y="685.58722"/>
      <point x="77.18722" y="647.5"/>
      <point x="124.1" y="647.5" type="curve" smooth="yes"/>
      <point x="171.01278" y="647.5"/>
      <point x="209.1" y="685.58722"/>
    </contour>
    <contour>
      <point x="249.0999984741211" y="405" type="line"/>
      <point x="287.3275008665408" y="405.0"/>
      <point x="409.1000028256189" y="416.8561959020357"/>
      <point x="409.09999923706056" y="605.0" type="curve"/>
      <point x="409.0999991416931" y="610.0" type="line"/>
      <point x="409.0999958404942" y="783.0778953449964"/>
      <point x="297.4121683582315" y="805.0"/>
      <point x="249.1" y="805.0" type="curve"/>
    </contour>
    <contour>
      <point x="44.099998474121094" y="204.1666717529297" type="line"/>
      <point x="204.0999984741211" y="204.1666717529297" type="line"/>
      <point x="204.0999984741211" y="560" type="line"/>
      <point x="165.8724960817014" y="560.0"/>
      <point x="44.10000115429537" y="548.1438040979643"/>
      <point x="44.09999968833111" y="360.0" type="curve"/>
    </contour>
    <contour>
      <point x="209.1" y="73.75" type="curve" smooth="yes"/>
      <point x="209.1" y="120.66278"/>
      <point x="171.01278" y="158.75"/>
      <point x="124.1" y="158.75" type="curve" smooth="yes"/>
      <point x="77.18722" y="158.75"/>
      <point x="39.1" y="120.66278"/>
      <point x="39.1" y="73.75" type="curve" smooth="yes"/>
      <point x="39.1" y="26.83722"/>
      <point x="77.18722" y="-11.25"/>
      <point x="124.1" y="-11.25" type="curve" smooth="yes"/>
      <point x="171.01278" y="-11.25"/>
      <point x="209.1" y="26.83722"/>
    </contour>
  </outline>
</glyph>
<glyph name="at" format="2">
  <advance width="1016.5749000000001"/>
  <unicode hex="0040"/>
  <outline>
    <contour>
      <point x="892.4749" y="400.0" type="curve" smooth="yes"/>
      <point x="892.4749" y="612.03883"/>
      <point x="720.3262800000001" y="784.18745"/>
      <point x="508.28745000000004" y="784.18745" type="curve" smooth="yes"/>
      <point x="296.24862" y="784.18745"/>
      <point x="124.1" y="612.03883"/>
      <point x="124.1" y="400.0" type="curve" smooth="yes"/>
      <point x="124.1" y="187.96117"/>
      <point x="296.24862" y="15.81255"/>
      <point x="508.28745000000004" y="15.81255" type="curve" smooth="yes"/>
      <point x="720.3262800000001" y="15.81255"/>
      <point x="892.4749" y="187.96117"/>
    </contour>
    <contour>
      <point x="315.78745134887697" y="400.0" type="curve"/>
      <point x="315.7874515174866" y="405.0" type="line"/>
      <point x="315.7874573540061" y="578.0778953449963"/>
      <point x="427.4752816417685" y="600.0"/>
      <point x="475.78745000000004" y="600.0" type="curve"/>
      <point x="475.7874526977539" y="200" type="line"/>
      <point x="437.5599503053342" y="200.0"/>
      <point x="315.787445004306" y="211.8561959020358"/>
    </contour>
    <contour>
      <point x="520.7874504496257" y="400.0" type="curve"/>
      <point x="520.7874526977539" y="600" type="line"/>
      <point x="680.7874526977539" y="600" type="line"/>
      <point x="680.7874526977539" y="200" type="line"/>
      <point x="642.5599503053342" y="200.0"/>
      <point x="520.7874483347687" y="211.85619590203572"/>
    </contour>
  </outline>
</glyph>
<glyph name="B" format="2">
  <advance width="453.2"/>
  <unicode hex="0042"/>
  <outline>
    <contour>
      <point x="44.099998474121094" y="0" type="line"/>
      <point x="204.0999984741211" y="0" type="line"/>
      <point x="204.0999984741211" y="800" type="line"/>
      <point x="44.099998474121094" y="800" type="line"/>
    </contour>
    <contour>
      <point x="249.0999984741211" y="400" type="line"/>
      <point x="287.3275008665408" y="400.0"/>
      <point x="409.1000028256189" y="411.8561959020357"/>
      <point x="409.09999923706056" y="600.0" type="curve"/>
      <point x="409.0999991416931" y="605.0" type="line"/>
      <point x="409.0999958404942" y="778.0778953449964"/>
      <point x="297.4121683582315" y="800.0"/>
      <point x="249.1" y="800.0" type="curve"/>
    </contour>
    <contour>
      <point x="249.0999984741211" y="0" type="line"/>
      <point x="287.3275008665408" y="0.0"/>
      <point x="409.1000028256189" y="11.856195902035722"/>
      <point x="409.09999923706056" y="200.0" type="curve"/>
      <point x="409.0999991416931" y="205.0" type="line"/>
      <point x="409.0999958404942" y="378.07789534499636"/>
      <point x="297.4121683582315" y="400.0"/>
      <point x="249.1" y="400.0" type="curve"/>
    </contour>
  </outline>
</glyph>
<glyph name="D" format="2">
  <advance width="453.2"/>
  <unicode hex="0044"/>
  <outline>
    <contour>
      <point x="44.099998474121094" y="0" type="line"/>
      <point x="204.0999984741211" y="0" type="line"/>
      <point x="204.0999984741211" y="800" type="line"/>
      <point x="44.099998474121094" y="800" type="line"/>
    </contour>
    <contour>
      <point x="249.0999984741211" y="0" type="line"/>
      <point x="287.3275008665408" y="0.0"/>
      <point x="409.1000004709365" y="11.856195902035694"/>
      <point x="409.09999987284345" y="200.0" type="curve"/>
      <point x="409.09999860127766" y="600.0" type="line"/>
      <point x="409.0999980031846" y="788.1438040979643"/>
      <point x="287.3275023924197" y="800.0"/>
      <point x="249.1" y="800.0" type="curve"/>
    </contour>
  </outline>
</glyph>
<glyph name="F" format="2">
  <advance width="453.2"/>
  <unicode hex="0046"/>
  <outline>
    <contour>
      <point x="44.099998474121094" y="0" type="line"/>
      <point x="204.0999984741211" y="0" type="line"/>
      <point x="204.0999984741211" y="800" type="line"/>
      <point x="44.099998474121094" y="800" type="line"/>
    </contour>
    <contour>
      <point x="249.1" y="800.0" type="line"/>
      <point x="249.1" y="711.6936"/>
      <point x="320.7936" y="640.0"/>
      <point x="409.1" y="640.0" type="curve"/>
      <point x="409.1" y="800.0" type="line"/>
    </contour>
    <contour>
      <point x="249.1" y="480.0" type="line"/>
      <point x="249.1" y="391.6936"/>
      <point x="320.7936" y="320.0"/>
      <point x="409.1" y="320.0" type="curve"/>
      <point x="409.1" y="480.0" type="line"/>
    </contour>
  </outline>
</glyph>
<glyph name="L" format="2">
  <advance width="453.2"/>
  <unicode hex="004C"/>
  <outline>
    <contour>
      <point x="44.099998474121094" y="0" type="line"/>
      <point x="204.0999984741211" y="0" type="line"/>
      <point x="204.0999984741211" y="800" type="line"/>
      <point x="44.099998474121094" y="800" type="line"/>
    </contour>
    <contour>
      <point x="409.1" y="160.0" type="line"/>
      <point x="320.7936" y="160.0"/>
      <point x="249.1" y="88.3064"/>
      <point x="249.1" y="0.0" type="curve"/>
      <point x="409.1" y="0.0" type="line"/>
    </contour>
  </outline>
</glyph>
<glyph name="M" format="2">
  <advance width="658.2"/>
  <unicode hex="004D"/>
  <outline>
    <contour>
      <point x="44.099998474121094" y="0" type="line"/>
      <point x="204.0999984741211" y="0" type="line"/>
      <point x="204.0999984741211" y="800" type="line"/>
      <point x="44.099998474121094" y="800" type="line"/>
    </contour>
    <contour>
      <point x="249.0999984741211" y="0" type="line"/>
      <point x="409.0999984741211" y="0" type="line"/>
      <point x="409.0999984741211" y="800" type="line"/>
      <point x="249.0999984741211" y="800" type="line"/>
    </contour>
    <contour>
      <point x="454.0999984741211" y="0" type="line"/>
      <point x="614.0999984741211" y="0" type="line"/>
      <point x="614.0999984741211" y="600.0" type="line"/>
      <point x="614.0999984741211" y="788.1438040979643"/>
      <point x="492.3275023924198" y="800.0"/>
      <point x="454.1" y="800.0" type="curve"/>
    </contour>
  </outline>
</glyph>
<glyph name="N" format="2">
  <advance width="453.2"/>
  <unicode hex="004E"/>
  <outline>
    <contour>
      <point x="44.099998474121094" y="0" type="line"/>
      <point x="204.0999984741211" y="0" type="line"/>
      <point x="204.0999984741211" y="800" type="line"/>
      <point x="44.099998474121094" y="800" type="line"/>
    </contour>
    <contour>
      <point x="249.0999984741211" y="0" type="line"/>
      <point x="409.0999984741211" y="0" type="line"/>
      <point x="409.0999984741211" y="600.0" type="line"/>
      <point x="409.0999984741211" y="788.1438040979643"/>
      <point x="287.3275023924197" y="800.0"/>
      <point x="249.1" y="800.0" type="curve"/>
    </contour>
  </outline>
</glyph>
<glyph name="P" format="2">
  <advance width="453.2"/>
  <unicode hex="0050"/>
  <outline>
    <contour>
      <point x="44.099998474121094" y="0" type="line"/>
      <point x="204.0999984741211" y="0" type="line"/>
      <point x="204.0999984741211" y="800" type="line"/>
      <point x="44.099998474121094" y="800" type="line"/>
    </contour>
    <contour>
      <point x="249.0999984741211" y="200" type="line"/>
      <point x="287.3275008665408" y="200.0"/>
      <point x="409.1000008073197" y="211.8561959020357"/>
      <point x="409.09999978201733" y="400.0" type="curve"/>
      <point x="409.0999986921038" y="600.0" type="line"/>
      <point x="409.0999976668014" y="788.1438040979643"/>
      <point x="287.3275023924197" y="800.0"/>
      <point x="249.1" y="800.0" type="curve"/>
    </contour>
  </outline>
</glyph>
<glyph name="Q" format="2">
  <advance width="453.2"/>
  <unicode hex="0051"/>
  <outline>
    <contour>
      <point x="44.09999859868263" y="195.0" type="line"/>
      <point x="44.09999801279558" y="6.856195902035694"/>
      <point x="165.87249760758027" y="-4.999999999999996"/>
      <point x="204.1" y="-5.0" type="curve"/>
      <point x="204.0999984741211" y="805" type="line"/>
      <point x="165.8724960817014" y="805.0"/>
      <point x="44.100000461325536" y="793.1438040979643"/>
      <point x="44.099999875438456" y="605.0" type="curve"/>
    </contour>
    <contour>
      <point x="249.14066044181106" y="35.00073236610591" type="line"/>
      <point x="249.149470886044" y="-131.84535451172468"/>
      <point x="351.37842327680823" y="-160.0"/>
      <point x="409.1" y="-160.0" type="curve"/>
      <point x="409.0999984741211" y="0" type="line"/>
      <point x="288.8244400024414" y="0" type="line"/>
      <point x="404.6635075619048" y="29.60352754853588"/>
      <point x="409.10000004683843" y="139.95894915901786"/>
      <point x="409.09999987543847" y="195.0" type="curve"/>
      <point x="409.09999859868265" y="605.0" type="line"/>
      <point x="409.0999980127956" y="793.1438040979643"/>
      <point x="287.3275023924197" y="805.0"/>
      <point x="249.1" y="805.0" type="curve"/>
    </contour>
  </outline>
</glyph>
<glyph name="T" format="2">
  <advance width="658.2"/>
  <unicode hex="0054"/>
  <outline>
    <contour>
      <point x="44.1" y="640.0" type="line"/>
      <point x="132.4064" y="640.0"/>
      <point x="204.1" y="711.6936"/>
      <point x="204.1" y="800.0" type="curve"/>
      <point x="44.1" y="800.0" type="line"/>
    </contour>
    <contour>
      <point x="249.0999984741211" y="0" type="line"/>
      <point x="409.0999984741211" y="0" type="line"/>
      <point x="409.0999984741211" y="800" type="line"/>
      <point x="249.0999984741211" y="800" type="line"/>
    </contour>
    <contour>
      <point x="454.1" y="800.0" type="line"/>
      <point x="454.1" y="711.6936"/>
      <point x="525.7936" y="640.0"/>
      <point x="614.1" y="640.0" type="curve"/>
      <point x="614.1" y="800.0" type="line"/>
    </contour>
  </outline>
</glyph>
<glyph name="V" format="2">
  <advance width="453.2"/>
  <unicode hex="0056"/>
  <outline>
    <contour>
      <point x="44.09999856874924" y="195.0" type="line"/>
      <point x="44.09999812365673" y="6.856195902035694"/>
      <point x="165.87249760758027" y="-4.999999999999996"/>
      <point x="204.1" y="-5.0" type="curve"/>
      <point x="204.09999856874924" y="600.0" type="line"/>
      <point x="204.09999812365672" y="788.1438040979643"/>
      <point x="82.32750239241975" y="800.0"/>
      <point x="44.1" y="800.0" type="curve"/>
    </contour>
    <contour>
      <point x="249.0999984741211" y="-5" type="line"/>
      <point x="287.3275008665408" y="-5.0"/>
      <point x="409.10000035046437" y="6.856195902035694"/>
      <point x="409.0999999053719" y="195.0" type="curve"/>
      <point x="409.0999984741211" y="800" type="line"/>
      <point x="249.0999984741211" y="800" type="line"/>
    </contour>
  </outline>
</glyph>
<glyph name="W" format="2">
  <advance width="658.2"/>
  <unicode hex="0057"/>
  <outline>
    <contour>
      <point x="44.09999856948853" y="200.0" type="line"/>
      <point x="44.09999812091872" y="11.856195902035694"/>
      <point x="165.87249760758027" y="4.681518844427462e-15"/>
      <point x="204.1" y="0.0" type="curve"/>
      <point x="204.09999856948852" y="600.0" type="line"/>
      <point x="204.09999812091877" y="788.1438040979643"/>
      <point x="82.32750239241975" y="800.0"/>
      <point x="44.1" y="800.0" type="curve"/>
    </contour>
    <contour>
      <point x="249.0999984741211" y="0" type="line"/>
      <point x="409.0999984741211" y="0" type="line"/>
      <point x="409.0999984741211" y="600.0" type="line"/>
      <point x="409.0999984741211" y="788.1438040979643"/>
      <point x="287.3275023924197" y="800.0"/>
      <point x="249.1" y="800.0" type="curve"/>
    </contour>
    <contour>
      <point x="454.0999984741211" y="0" type="line"/>
      <point x="492.3275008665408" y="0.0"/>
      <point x="614.1000003532024" y="11.856195902035694"/>
      <point x="614.0999999046326" y="200.0" type="curve"/>
      <point x="614.0999984741211" y="800" type="line"/>
      <point x="454.0999984741211" y="800" type="line"/>
    </contour>
  </outline>
</glyph>
<glyph name="X" format="2">
  <advance width="453.2"/>
  <unicode hex="0058"/>
  <outline>
    <contour>
      <point x="44.099998474121094" y="600.0" type="line"/>
      <point x="44.09999847412111" y="411.85619590203567"/>
      <point x="165.87249760758027" y="400.0"/>
      <point x="204.1" y="400.0" type="curve"/>
      <point x="204.0999984741211" y="800" type="line"/>
      <point x="44.099998474121094" y="800" type="line"/>
    </contour>
    <contour>
      <point x="249.0999984741211" y="400" type="line"/>
      <point x="287.3275008665408" y="400.0"/>
      <point x="409.10000094187296" y="411.85619590203567"/>
      <point x="409.0999997456869" y="600.0" type="curve"/>
      <point x="409.0999984741211" y="800" type="line"/>
      <point x="249.0999984741211" y="800" type="line"/>
    </contour>
    <contour>
      <point x="44.099998474121094" y="0" type="line"/>
      <point x="204.0999984741211" y="0" type="line"/>
      <point x="204.0999984741211" y="400" type="line"/>
      <point x="165.8724960817014" y="400.0"/>
      <point x="44.10000094187294" y="388.14380409796433"/>
      <point x="44.09999974568685" y="200.0" type="curve"/>
    </contour>
    <contour>
      <point x="249.0999984741211" y="0" type="line"/>
      <point x="409.0999984741211" y="0" type="line"/>
      <point x="409.0999984741211" y="200.0" type="line"/>
      <point x="409.0999984741211" y="388.14380409796433"/>
      <point x="287.3275023924197" y="400.0"/>
      <point x="249.1" y="400.0" type="curve"/>
    </contour>
  </outline>
</glyph>
<glyph name="backslash" format="2">
  <advance width="474.50305003521197"/>
  <unicode hex="005C"/>
  <outline>
    <contour>
      <point x="228.59269463969878" y="89.63727182778929" type="line"/>
      <point x="271.9816415518275" y="-93.43509175095964"/>
      <point x="393.20597491719" y="-76.8890343810533"/>
      <point x="430.403050035212" y="-68.07316563051671" type="curve"/>
      <point x="245.9103570404477" y="710.3627281538036" type="line"/>
      <point x="202.52141049362837" y="893.4350918191325"/>
      <point x="81.29707511802198" y="876.8890343810533"/>
      <point x="44.1" y="868.0731656305168" type="curve"/>
    </contour>
  </outline>
</glyph>
<glyph name="bracketright" format="2">
  <advance width="408.2"/>
  <unicode hex="005D"/>
  <outline>
    <contour>
      <point x="204.0999984741211" y="60" type="line"/>
      <point x="115.7936" y="60.0"/>
      <point x="44.1" y="-11.6936"/>
      <point x="44.1" y="-100.0" type="curve"/>
      <point x="364.0999984741211" y="-100" type="line"/>
      <point x="364.0999984741211" y="900" type="line"/>
      <point x="44.099998474121094" y="900" type="line"/>
      <point x="44.1" y="811.6936"/>
      <point x="115.7936" y="740.0"/>
      <point x="204.1" y="740.0" type="curve"/>
    </contour>
  </outline>
</glyph>
<glyph name="b" format="2">
  <advance width="453.2"/>
  <unicode hex="0062"/>
  <outline>
    <contour>
      <point x="44.099998474121094" y="0" type="line"/>
      <point x="204.0999984741211" y="0" type="line"/>
      <point x="204.0999984741211" y="800" type="line"/>
      <point x="44.099998474121094" y="800" type="line"/>
    </contour>
    <contour>
      <point x="249.0999984741211" y="0" type="line"/>
      <point x="287.3275008665408" y="0.0"/>
      <point x="409.1000007931562" y="11.856195902035694"/>
      <point x="409.0999997858416" y="200.0" type="curve"/>
      <point x="409.0999986882795" y="405.0" type="line"/>
      <point x="409.0999976809649" y="593.1438040979643"/>
      <point x="287.3275023924197" y="605.0"/>
      <point x="249.1" y="605.0" type="curve"/>
    </contour>
  </outline>
</glyph>
<glyph name="c" format="2">
  <advance width="453.2"/>
  <unicode hex="0063"/>
  <outline>
    <contour>
      <point x="44.099998688279534" y="200.0" type="line"/>
      <point x="44.09999768096495" y="11.856195902035694"/>
      <point x="165.87249760758027" y="4.681518844427462e-15"/>
      <point x="204.1" y="0.0" type="curve"/>
      <point x="204.0999984741211" y="605" type="line"/>
      <point x="165.8724960817014" y="605.0"/>
      <point x="44.10000079315616" y="593.1438040979643"/>
      <point x="44.099999785841554" y="405.0" type="curve"/>
    </contour>
    <contour>
      <point x="414.1" y="520.0" type="curve" smooth="yes"/>
      <point x="414.1" y="566.91278"/>
      <point x="376.01278" y="605.0"/>
      <point x="329.1" y="605.0" type="curve" smooth="yes"/>
      <point x="282.18722" y="605.0"/>
      <point x="244.1" y="566.91278"/>
      <point x="244.1" y="520.0" type="curve" smooth="yes"/>
      <point x="244.1" y="473.08722"/>
      <point x="282.18722" y="435.0"/>
      <point x="329.1" y="435.0" type="curve" smooth="yes"/>
      <point x="376.01278" y="435.0"/>
      <point x="414.1" y="473.08722"/>
    </contour>
    <contour>
      <point x="406.6" y="160.0" type="line"/>
      <point x="318.2936" y="160.0"/>
      <point x="246.6" y="88.3064"/>
      <point x="246.6" y="0.0" type="curve"/>
      <point x="406.6" y="0.0" type="line"/>
    </contour>
  </outline>
</glyph>
<glyph name="d" format="2">
  <advance width="453.2"/>
  <unicode hex="0064"/>
  <outline>
    <contour>
      <point x="249.0999984741211" y="0" type="line"/>
      <point x="409.0999984741211" y="0" type="line"/>
      <point x="409.0999984741211" y="800" type="line"/>
      <point x="249.0999984741211" y="800" type="line"/>
    </contour>
    <contour>
      <point x="44.099998688279534" y="200.0" type="line"/>
      <point x="44.09999768096495" y="11.856195902035694"/>
      <point x="165.87249760758027" y="4.681518844427462e-15"/>
      <point x="204.1" y="0.0" type="curve"/>
      <point x="204.0999984741211" y="605" type="line"/>
      <point x="165.8724960817014" y="605.0"/>
      <point x="44.10000079315616" y="593.1438040979643"/>
      <point x="44.099999785841554" y="405.0" type="curve"/>
    </contour>
  </outline>
</glyph>
<glyph name="f" format="2">
  <advance width="453.2"/>
  <unicode hex="0066"/>
  <outline>
    <contour>
      <point x="44.099998474121094" y="0" type="line"/>
      <point x="204.0999984741211" y="0" type="line"/>
      <point x="204.0999984741211" y="800" type="line"/>
      <point x="165.8724960817014" y="800.0"/>
      <point x="44.100000353202354" y="788.1438040979643"/>
      <point x="44.09999990463257" y="600.0" type="curve"/>
    </contour>
    <contour>
      <point x="249.1" y="800.0" type="line"/>
      <point x="249.1" y="711.6936"/>
      <point x="320.7936" y="640.0"/>
      <point x="409.1" y="640.0" type="curve"/>
      <point x="409.1" y="800.0" type="line"/>
    </contour>
    <contour>
      <point x="249.1" y="587.5" type="line"/>
      <point x="249.1" y="499.1936"/>
      <point x="320.7936" y="427.5"/>
      <point x="409.1" y="427.5" type="curve"/>
      <point x="409.1" y="587.5" type="line"/>
    </contour>
  </outline>
</glyph>
<glyph name="h" format="2">
  <advance width="453.2"/>
  <unicode hex="0068"/>
  <outline>
    <contour>
      <point x="44.099998474121094" y="0" type="line"/>
      <point x="204.0999984741211" y="0" type="line"/>
      <point x="204.0999984741211" y="800" type="line"/>
      <point x="44.099998474121094" y="800" type="line"/>
    </contour>
    <contour>
      <point x="249.0999984741211" y="0" type="line"/>
      <point x="409.0999984741211" y="0" type="line"/>
      <point x="409.0999984741211" y="405.0" type="line"/>
      <point x="409.0999984741211" y="593.1438040979643"/>
      <point x="287.3275023924197" y="605.0"/>
      <point x="249.1" y="605.0" type="curve"/>
    </contour>
  </outline>
</glyph>
<glyph name="i" format="2">
  <advance width="248.2"/>
  <unicode hex="0069"/>
  <outline>
    <contour>
      <point x="209.1" y="718.88889" type="curve" smooth="yes"/>
      <point x="209.1" y="765.80167"/>
      <point x="171.01278" y="803.88889"/>
      <point x="124.1" y="803.88889" type="curve" smooth="yes"/>
      <point x="77.18722" y="803.88889"/>
      <point x="39.1" y="765.80167"/>
      <point x="39.1" y="718.88889" type="curve" smooth="yes"/>
      <point x="39.1" y="671.97611"/>
      <point x="77.18722" y="633.88889"/>
      <point x="124.1" y="633.88889" type="curve" smooth="yes"/>
      <point x="171.01278" y="633.88889"/>
      <point x="209.1" y="671.97611"/>
    </contour>
    <contour>
      <point x="44.099998474121094" y="0" type="line"/>
      <point x="204.0999984741211" y="0" type="line"/>
      <point x="204.0999984741211" y="600" type="line"/>
      <point x="44.099998474121094" y="600" type="line"/>
    </contour>
  </outline>
</glyph>
<glyph name="j" format="2">
  <advance width="453.2"/>
  <unicode hex="006A"/>
  <outline>
    <contour>
      <point x="414.1" y="718.88889" type="curve" smooth="yes"/>
      <point x="414.1" y="765.80167"/>
      <point x="376.01278" y="803.88889"/>
      <point x="329.1" y="803.88889" type="curve" smooth="yes"/>
      <point x="282.18722" y="803.88889"/>
      <point x="244.1" y="765.80167"/>
      <point x="244.1" y="718.88889" type="curve" smooth="yes"/>
      <point x="244.1" y="671.97611"/>
      <point x="282.18722" y="633.88889"/>
      <point x="329.1" y="633.88889" type="curve" smooth="yes"/>
      <point x="376.01278" y="633.88889"/>
      <point x="414.1" y="671.97611"/>
    </contour>
    <contour>
      <point x="249.0999984741211" y="-210" type="line"/>
      <point x="287.3275008665408" y="-210.0"/>
      <point x="409.1000003477685" y="-198.1438040979643"/>
      <point x="409.09999990609975" y="-10.0" type="curve"/>
      <point x="409.0999984741211" y="600" type="line"/>
      <point x="249.0999984741211" y="600" type="line"/>
    </contour>
    <contour>
      <point x="209.1" y="-130.0" type="curve" smooth="yes"/>
      <point x="209.1" y="-85.8468"/>
      <point x="173.2532" y="-50.0"/>
      <point x="129.1" y="-50.0" type="curve" smooth="yes"/>
      <point x="84.9468" y="-50.0"/>
      <point x="49.1" y="-85.8468"/>
      <point x="49.1" y="-130.0" type="curve" smooth="yes"/>
      <point x="49.1" y="-174.1532"/>
      <point x="84.9468" y="-210.0"/>
      <point x="129.1" y="-210.0" type="curve" smooth="yes"/>
      <point x="173.2532" y="-210.0"/>
      <point x="209.1" y="-174.1532"/>
    </contour>
  </outline>
</glyph>
<glyph name="l" format="2">
  <advance width="248.2"/>
  <unicode hex="006C"/>
  <outline>
    <contour>
      <point x="44.099998474121094" y="195.0" type="line"/>
      <point x="44.09999847412111" y="6.856195902035694"/>
      <point x="165.87249760758027" y="-4.999999999999996"/>
      <point x="204.1" y="-5.0" type="curve"/>
      <point x="204.0999984741211" y="800" type="line"/>
      <point x="44.099998474121094" y="800" type="line"/>
    </contour>
  </outline>
</glyph>
<glyph name="m" format="2">
  <advance width="658.2"/>
  <unicode hex="006D"/>
  <outline>
    <contour>
      <point x="44.099998474121094" y="0" type="line"/>
      <point x="204.0999984741211" y="0" type="line"/>
      <point x="204.0999984741211" y="600" type="line"/>
      <point x="44.099998474121094" y="600" type="line"/>
    </contour>
    <contour>
      <point x="249.0999984741211" y="0" type="line"/>
      <point x="409.0999984741211" y="0" type="line"/>
      <point x="409.0999984741211" y="600" type="line"/>
      <point x="249.0999984741211" y="600" type="line"/>
    </contour>
    <contour>
      <point x="454.0999984741211" y="0" type="line"/>
      <point x="614.0999984741211" y="0" type="line"/>
      <point x="614.0999984741211" y="400.0" type="line"/>
      <point x="614.0999984741211" y="588.1438040979643"/>
      <point x="492.3275023924198" y="600.0"/>
      <point x="454.1" y="600.0" type="curve"/>
    </contour>
  </outline>
</glyph>
<glyph name="n" format="2">
  <advance width="453.2"/>
  <unicode hex="006E"/>
  <outline>
    <contour>
      <point x="44.099998474121094" y="0" type="line"/>
      <point x="204.0999984741211" y="0" type="line"/>
      <point x="204.0999984741211" y="600" type="line"/>
      <point x="44.099998474121094" y="600" type="line"/>
    </contour>
    <contour>
      <point x="249.0999984741211" y="0" type="line"/>
      <point x="409.0999984741211" y="0" type="line"/>
      <point x="409.0999984741211" y="400.0" type="line"/>
      <point x="409.0999984741211" y="588.1438040979643"/>
      <point x="287.3275023924197" y="600.0"/>
      <point x="249.1" y="600.0" type="curve"/>
    </contour>
  </outline>
</glyph>
<glyph name="p" format="2">
  <advance width="453.2"/>
  <unicode hex="0070"/>
  <outline>
    <contour>
      <point x="44.099998474121094" y="-200" type="line"/>
      <point x="204.0999984741211" y="-200" type="line"/>
      <point x="204.0999984741211" y="600" type="line"/>
      <point x="44.099998474121094" y="600" type="line"/>
    </contour>
    <contour>
      <point x="249.0999984741211" y="0" type="line"/>
      <point x="287.3275008665408" y="0.0"/>
      <point x="409.1000008073197" y="11.856195902035694"/>
      <point x="409.09999978201733" y="200.0" type="curve"/>
      <point x="409.0999986921038" y="400.0" type="line"/>
      <point x="409.0999976668014" y="588.1438040979643"/>
      <point x="287.3275023924197" y="600.0"/>
      <point x="249.1" y="600.0" type="curve"/>
    </contour>
  </outline>
</glyph>
<glyph name="q" format="2">
  <advance width="453.2"/>
  <unicode hex="0071"/>
  <outline>
    <contour>
      <point x="44.099998692103796" y="200.0" type="line"/>
      <point x="44.099997666801414" y="11.856195902035694"/>
      <point x="165.87249760758027" y="4.681518844427462e-15"/>
      <point x="204.1" y="0.0" type="curve"/>
      <point x="204.0999984741211" y="600" type="line"/>
      <point x="165.8724960817014" y="600.0"/>
      <point x="44.10000080731967" y="588.1438040979643"/>
      <point x="44.0999997820173" y="400.0" type="curve"/>
    </contour>
    <contour>
      <point x="249.0999984741211" y="-200" type="line"/>
      <point x="409.0999984741211" y="-200" type="line"/>
      <point x="409.0999984741211" y="600" type="line"/>
      <point x="249.0999984741211" y="600" type="line"/>
    </contour>
  </outline>
</glyph>
<glyph name="r" format="2">
  <advance width="453.2"/>
  <unicode hex="0072"/>
  <outline>
    <contour>
      <point x="414.1" y="520.0" type="curve" smooth="yes"/>
      <point x="414.1" y="566.91278"/>
      <point x="376.01278" y="605.0"/>
      <point x="329.1" y="605.0" type="curve" smooth="yes"/>
      <point x="282.18722" y="605.0"/>
      <point x="244.1" y="566.91278"/>
      <point x="244.1" y="520.0" type="curve" smooth="yes"/>
      <point x="244.1" y="473.08722"/>
      <point x="282.18722" y="435.0"/>
      <point x="329.1" y="435.0" type="curve" smooth="yes"/>
      <point x="376.01278" y="435.0"/>
      <point x="414.1" y="473.08722"/>
    </contour>
    <contour>
      <point x="44.099998474121094" y="0" type="line"/>
      <point x="204.0999984741211" y="0" type="line"/>
      <point x="204.0999984741211" y="600" type="line"/>
      <point x="44.099998474121094" y="600" type="line"/>
    </contour>
  </outline>
</glyph>
<glyph name="t" format="2">
  <advance width="453.2"/>
  <unicode hex="0074"/>
  <outline>
    <contour>
      <point x="44.099998474121094" y="0" type="line"/>
      <point x="204.0999984741211" y="0" type="line"/>
      <point x="204.0999984741211" y="800" type="line"/>
      <point x="165.8724960817014" y="800.0"/>
      <point x="44.100000353202354" y="788.1438040979643"/>
      <point x="44.09999990463257" y="600.0" type="curve"/>
    </contour>
    <contour>
      <point x="249.1" y="440.0" type="line"/>
      <point x="337.4064" y="440.0"/>
      <point x="409.1" y="511.6936"/>
      <point x="409.1" y="600.0" type="curve"/>
      <point x="249.1" y="600.0" type="line"/>
    </contour>
  </outline>
</glyph>
<glyph name="u" format="2">
  <advance width="453.2"/>
  <unicode hex="0075"/>
  <outline>
    <contour>
      <point x="44.099998474121094" y="195.0" type="line"/>
      <point x="44.09999847412111" y="6.856195902035694"/>
      <point x="165.87249760758027" y="-4.999999999999996"/>
      <point x="204.1" y="-5.0" type="curve"/>
      <point x="204.0999984741211" y="600" type="line"/>
      <point x="44.099998474121094" y="600" type="line"/>
    </contour>
    <contour>
      <point x="249.0999984741211" y="-5" type="line"/>
      <point x="287.3275008665408" y="-5.0"/>
      <point x="409.10000050797646" y="6.856195902035694"/>
      <point x="409.09999986284237" y="195.0" type="curve"/>
      <point x="409.0999984741211" y="600" type="line"/>
      <point x="249.0999984741211" y="600" type="line"/>
    </contour>
  </outline>
</glyph>
<glyph name="v" format="2">
  <advance width="453.2"/>
  <unicode hex="0076"/>
  <outline>
    <contour>
      <point x="44.09999860975477" y="195.0" type="line"/>
      <point x="44.09999797178886" y="6.856195902035694"/>
      <point x="165.87249760758027" y="-4.999999999999996"/>
      <point x="204.1" y="-5.0" type="curve"/>
      <point x="204.09999860975478" y="405.0" type="line"/>
      <point x="204.09999797178887" y="593.1438040979643"/>
      <point x="82.32750239241975" y="605.0"/>
      <point x="44.1" y="605.0" type="curve"/>
    </contour>
    <contour>
      <point x="249.0999984741211" y="-5" type="line"/>
      <point x="287.3275008665408" y="-5.0"/>
      <point x="409.10000050797646" y="6.856195902035694"/>
      <point x="409.09999986284237" y="195.0" type="curve"/>
      <point x="409.0999984741211" y="600" type="line"/>
      <point x="249.0999984741211" y="600" type="line"/>
    </contour>
  </outline>
</glyph>
<glyph name="x" format="2">
  <advance width="453.2"/>
  <unicode hex="0078"/>
  <outline>
    <contour>
      <point x="44.099998474121094" y="500.0" type="line"/>
      <point x="44.09999847412111" y="311.85619590203567"/>
      <point x="165.87249760758027" y="300.0"/>
      <point x="204.1" y="300.0" type="curve"/>
      <point x="204.0999984741211" y="600" type="line"/>
      <point x="44.099998474121094" y="600" type="line"/>
    </contour>
    <contour>
      <point x="249.0999984741211" y="300" type="line"/>
      <point x="287.3275008665408" y="300.0"/>
      <point x="409.1000016146394" y="311.8561959020357"/>
      <point x="409.0999995640346" y="500.0" type="curve"/>
      <point x="409.0999984741211" y="600" type="line"/>
      <point x="249.0999984741211" y="600" type="line"/>
    </contour>
    <contour>
      <point x="44.099998474121094" y="0" type="line"/>
      <point x="204.0999984741211" y="0" type="line"/>
      <point x="204.0999984741211" y="300" type="line"/>
      <point x="165.8724960817014" y="300.0"/>
      <point x="44.100001614639325" y="288.1438040979643"/>
      <point x="44.099999564034604" y="100.0" type="curve"/>
    </contour>
    <contour>
      <point x="249.0999984741211" y="0" type="line"/>
      <point x="409.0999984741211" y="0" type="line"/>
      <point x="409.0999984741211" y="100.0" type="line"/>
      <point x="409.0999984741211" y="288.14380409796433"/>
      <point x="287.3275023924197" y="300.0"/>
      <point x="249.1" y="300.0" type="curve"/>
    </contour>
  </outline>
</glyph>
<glyph name="z" format="2">
  <advance width="453.2"/>
  <unicode hex="007A"/>
  <outline>
    <contour>
      <point x="44.1" y="440.0" type="line"/>
      <point x="132.4064" y="440.0"/>
      <point x="204.1" y="511.6936"/>
      <point x="204.1" y="600.0" type="curve"/>
      <point x="44.1" y="600.0" type="line"/>
    </contour>
    <contour>
      <point x="249.0999984741211" y="220" type="line"/>
      <point x="287.3275008665408" y="220.0"/>
      <point x="409.1000010274978" y="231.8561959020357"/>
      <point x="409.0999997225675" y="420.0" type="curve"/>
      <point x="409.0999984741211" y="600" type="line"/>
      <point x="249.0999984741211" y="600" type="line"/>
    </contour>
    <contour>
      <point x="44.099998474121094" y="0" type="line"/>
      <point x="204.0999984741211" y="0" type="line"/>
      <point x="204.0999984741211" y="380" type="line"/>
      <point x="165.8724960817014" y="380.0"/>
      <point x="44.10000102749777" y="368.14380409796433"/>
      <point x="44.09999972256747" y="180.0" type="curve"/>
    </contour>
    <contour>
      <point x="409.1" y="160.0" type="line"/>
      <point x="320.7936" y="160.0"/>
      <point x="249.1" y="88.3064"/>
      <point x="249.1" y="0.0" type="curve"/>
      <point x="409.1" y="0.0" type="line"/>
    </contour>
  </outline>
</glyph>
<glyph name="braceright" format="2">
  <advance width="248.2"/>
  <unicode hex="007D"/>
  <outline>
    <contour>
      <point x="44.099998653636256" y="600.0" type="line"/>
      <point x="44.0999978092696" y="411.85619590203567"/>
      <point x="165.87249760758027" y="400.0"/>
      <point x="204.1" y="400.0" type="curve"/>
      <point x="204.09999865363625" y="700.0" type="line"/>
      <point x="204.0999978092696" y="888.1438040979643"/>
      <point x="82.32750239241975" y="900.0"/>
      <point x="44.1" y="900.0" type="curve"/>
    </contour>
    <contour>
      <point x="44.099998474121094" y="-100" type="line"/>
      <point x="82.3275008665408" y="-100.0"/>
      <point x="204.10000066485148" y="-88.1438040979643"/>
      <point x="204.09999982048484" y="100.0" type="curve"/>
      <point x="204.0999984741211" y="400" type="line"/>
      <point x="165.8724960817014" y="400.0"/>
      <point x="44.10000066485151" y="388.14380409796433"/>
      <point x="44.09999982048483" y="200.0" type="curve"/>
    </contour>
  </outline>
</glyph>
<glyph name="tilde" format="2">
  <advance width="453.2"/>
  <unicode hex="007E"/>
  <outline>
    <contour>
      <point x="209.0999984741211" y="320.0" type="line"/>
      <point x="397.24380257208543" y="320.0"/>
      <point x="409.1" y="441.77249760758025"/>
      <point x="409.1" y="480.0" type="curve"/>
      <point x="244.0999984741211" y="480.0" type="line"/>
      <point x="55.95619437615679" y="480.0"/>
      <point x="44.1" y="358.22750239241975"/>
      <point x="44.1" y="320.0" type="curve"/>
    </contour>
  </outline>
</glyph>
<glyph name="invexclamation" format="2">
  <advance width="248.2"/>
  <unicode hex="00A1"/>
  <outline>
    <contour>
      <point x="209.1" y="526.25" type="curve" smooth="yes"/>
      <point x="209.1" y="573.16278"/>
      <point x="171.01278" y="611.25"/>
      <point x="124.1" y="611.25" type="curve" smooth="yes"/>
      <point x="77.18722" y="611.25"/>
      <point x="39.1" y="573.16278"/>
      <point x="39.1" y="526.25" type="curve" smooth="yes"/>
      <point x="39.1" y="479.33722"/>
      <point x="77.18722" y="441.25"/>
      <point x="124.1" y="441.25" type="curve" smooth="yes"/>
      <point x="171.01278" y="441.25"/>
      <point x="209.1" y="479.33722"/>
    </contour>
    <contour>
      <point x="44.099998474121094" y="-200" type="line"/>
      <point x="204.0999984741211" y="-200" type="line"/>
      <point x="204.0999984741211" y="395.8333282470703" type="line"/>
      <point x="44.099998474121094" y="395.8333282470703" type="line"/>
    </contour>
  </outline>
</glyph>
<glyph name="cent" format="2">
  <advance width="453.2"/>
  <unicode hex="00A2"/>
  <outline>
    <contour>
      <point x="124.0999984741211" y="0" type="line"/>
      <point x="204.0999984741211" y="0" type="line"/>
      <point x="204.0999984741211" y="600" type="line"/>
      <point x="124.0999984741211" y="600" type="line"/>
      <point x="124.0999984741211" y="478.5437774658203" type="line"/>
      <point x="46.52766586775503" y="433.6664029729196"/>
      <point x="44.10000040659387" y="361.31722863406617"/>
      <point x="44.099999237060544" y="299.99999999999994" type="curve"/>
      <point x="44.09999914169311" y="294.99999999999994" type="line"/>
      <point x="44.0999980170783" y="236.0377948548014"/>
      <point x="48.21023725304781" y="165.36257927561974"/>
      <point x="124.0999984741211" y="121.45215606689453" type="curve"/>
    </contour>
    <contour>
      <point x="249.0999984741211" y="540.0" type="line"/>
      <point x="249.0999984741211" y="351.85619590203567"/>
      <point x="370.87249760758027" y="340.0"/>
      <point x="409.1" y="340.0" type="curve"/>
      <point x="409.0999984741211" y="500" type="line"/>
      <point x="329.0999984741211" y="500" type="line"/>
      <point x="329.0999984741211" y="600" type="line"/>
      <point x="249.0999984741211" y="600" type="line"/>
    </contour>
    <contour>
      <point x="249.0999984741211" y="0" type="line"/>
      <point x="329.0999984741211" y="0" type="line"/>
      <point x="329.0999984741211" y="100" type="line"/>
      <point x="409.0999984741211" y="100" type="line"/>
      <point x="409.0999984741211" y="260" type="line"/>
      <point x="370.8724960817014" y="260.0"/>
      <point x="249.10000226049505" y="248.14380409796428"/>
      <point x="249.09999938964845" y="60.00000000000001" type="curve"/>
    </contour>
  </outline>
</glyph>
<glyph name="pound" format="2">
  <advance width="583.2"/>
  <unicode hex="00A3"/>
  <outline>
    <contour>
      <point x="169.0999984741211" y="0" type="line"/>
      <point x="329.0999984741211" y="0" type="line"/>
      <point x="329.0999984741211" y="805" type="line"/>
      <point x="290.8724960817014" y="805.0"/>
      <point x="169.10000035046434" y="793.1438040979643"/>
      <point x="169.09999990537185" y="605.0" type="curve"/>
    </contour>
    <contour>
      <point x="539.1" y="720.0" type="curve" smooth="yes"/>
      <point x="539.1" y="766.91278"/>
      <point x="501.01278" y="805.0"/>
      <point x="454.1" y="805.0" type="curve" smooth="yes"/>
      <point x="407.18722" y="805.0"/>
      <point x="369.1" y="766.91278"/>
      <point x="369.1" y="720.0" type="curve" smooth="yes"/>
      <point x="369.1" y="673.08722"/>
      <point x="407.18722" y="635.0"/>
      <point x="454.1" y="635.0" type="curve" smooth="yes"/>
      <point x="501.01278" y="635.0"/>
      <point x="539.1" y="673.08722"/>
    </contour>
    <contour>
      <point x="44.1" y="360.0" type="line"/>
      <point x="124.1" y="360.0" type="line"/>
      <point x="124.1" y="440.0" type="line"/>
      <point x="44.1" y="440.0" type="line"/>
    </contour>
    <contour>
      <point x="374.0999984741211" y="360" type="line"/>
      <point x="494.0999984741211" y="360" type="line"/>
      <point x="494.0999984741211" y="440" type="line"/>
      <point x="374.0999984741211" y="440" type="line"/>
    </contour>
    <contour>
      <point x="534.1" y="160.0" type="line"/>
      <point x="445.7936" y="160.0"/>
      <point x="374.1" y="88.3064"/>
      <point x="374.1" y="0.0" type="curve"/>
      <point x="534.1" y="0.0" type="line"/>
    </contour>
    <contour>
      <point x="44.1" y="0" type="line"/>
      <point x="124.1" y="0" type="line"/>
      <point x="124.1" y="80.0" type="line"/>
      <point x="44.1" y="80.0" type="line"/>
    </contour>
  </outline>
</glyph>
<glyph name="currency" format="2">
  <advance width="453.2"/>
  <unicode hex="00A4"/>
  <outline>
    <contour>
      <point x="44.099998474121094" y="210" type="line"/>
      <point x="124.0999984741211" y="210" type="line"/>
      <point x="124.0999984741211" y="241.45215606689453" type="line"/>
      <point x="147.63966494160132" y="227.80378999631938"/>
      <point x="174.96568759280004" y="220.00000000000003"/>
      <point x="204.10000000000002" y="220.0" type="curve"/>
      <point x="204.0999984741211" y="580" type="line"/>
      <point x="174.9656875928" y="580.0"/>
      <point x="147.6396649416013" y="572.1962100036807"/>
      <point x="124.0999984741211" y="558.5437774658203" type="curve"/>
      <point x="124.0999984741211" y="590" type="line"/>
      <point x="44.099998474121094" y="590" type="line"/>
      <point x="44.099998474121094" y="510" type="line"/>
      <point x="71.8525161743164" y="510" type="line"/>
      <point x="44.10000008419359" y="469.39576130829613"/>
      <point x="44.10000028298705" y="427.41833674322334"/>
      <point x="44.09999866485595" y="385.0" type="curve"/>
      <point x="44.099998474121094" y="380" type="line"/>
      <point x="44.099998926451754" y="370.1087276685594"/>
      <point x="44.2467566832166" y="330.4186032860473"/>
      <point x="71.83641815185547" y="290" type="curve"/>
      <point x="44.099998474121094" y="290" type="line"/>
    </contour>
    <contour>
      <point x="249.0999984741211" y="220" type="line"/>
      <point x="278.2343124072" y="220.0"/>
      <point x="305.5603350583987" y="227.80378999631935"/>
      <point x="329.0999984741211" y="241.4562225341797" type="curve"/>
      <point x="329.0999984741211" y="210" type="line"/>
      <point x="409.0999984741211" y="210" type="line"/>
      <point x="409.0999984741211" y="290" type="line"/>
      <point x="381.3474807739258" y="290" type="line"/>
      <point x="409.1000001607768" y="330.604236438429"/>
      <point x="409.1000002829872" y="372.58166325677666"/>
      <point x="409.09999866485595" y="415.0" type="curve"/>
      <point x="409.0999984741211" y="420" type="line"/>
      <point x="409.09999892645175" y="429.8912723314406"/>
      <point x="408.9532435469658" y="469.581398954199"/>
      <point x="381.3635787963867" y="510" type="curve"/>
      <point x="409.0999984741211" y="510" type="line"/>
      <point x="409.0999984741211" y="590" type="line"/>
      <point x="329.0999984741211" y="590" type="line"/>
      <point x="329.0999984741211" y="558.5478439331055" type="line"/>
      <point x="305.5603350583987" y="572.1962100036807"/>
      <point x="278.23431240720004" y="580.0"/>
      <point x="249.1" y="580.0" type="curve"/>
    </contour>
  </outline>
</glyph>
<glyph name="yen" format="2">
  <advance width="703.2"/>
  <unicode hex="00A5"/>
  <outline>
    <contour>
      <point x="169.09999861127875" y="400.0" type="line"/>
      <point x="169.09999796614468" y="211.8561959020357"/>
      <point x="290.87249760758027" y="200.0"/>
      <point x="329.1" y="200.0" type="curve"/>
      <point x="329.09999861127875" y="605.0" type="line"/>
      <point x="329.09999796614466" y="793.1438040979643"/>
      <point x="207.32750239241972" y="805.0"/>
      <point x="169.1" y="805.0" type="curve"/>
    </contour>
    <contour>
      <point x="374.0999984741211" y="-5" type="line"/>
      <point x="412.3275008665408" y="-5.0"/>
      <point x="534.1000003504644" y="6.856195902035694"/>
      <point x="534.0999999053719" y="195.0" type="curve"/>
      <point x="534.0999984741211" y="800" type="line"/>
      <point x="374.0999984741211" y="800" type="line"/>
    </contour>
    <contour>
      <point x="44.1" y="535.0" type="line"/>
      <point x="124.1" y="535.0" type="line"/>
      <point x="124.1" y="615.0" type="line"/>
      <point x="44.1" y="615.0" type="line"/>
    </contour>
    <contour>
      <point x="579.1" y="535.0" type="line"/>
      <point x="659.1" y="535.0" type="line"/>
      <point x="659.1" y="615.0" type="line"/>
      <point x="579.1" y="615.0" type="line"/>
    </contour>
    <contour>
      <point x="44.1" y="385.0" type="line"/>
      <point x="124.1" y="385.0" type="line"/>
      <point x="124.1" y="465.0" type="line"/>
      <point x="44.1" y="465.0" type="line"/>
    </contour>
    <contour>
      <point x="579.1" y="385.0" type="line"/>
      <point x="659.1" y="385.0" type="line"/>
      <point x="659.1" y="465.0" type="line"/>
      <point x="579.1" y="465.0" type="line"/>
    </contour>
  </outline>
</glyph>
<glyph name="section" format="2">
  <advance width="453.2"/>
  <unicode hex="00A7"/>
  <outline>
    <contour>
      <point x="44.09999914169311" y="295.0" type="line"/>
      <point x="44.099995840494245" y="121.92210465500366"/>
      <point x="155.7878316417685" y="100.0"/>
      <point x="204.1" y="100.0" type="curve"/>
      <point x="204.0999984741211" y="800" type="line"/>
      <point x="165.8724960817014" y="800.0"/>
      <point x="44.10000376749176" y="788.1438040979642"/>
      <point x="44.099998982747394" y="600.0" type="curve"/>
      <point x="44.09999885559082" y="595.0" type="line"/>
      <point x="44.099998058617636" y="563.6617391299836"/>
      <point x="45.573126328060354" y="506.50139643321234"/>
      <point x="98.34056854248047" y="460.0023880004883" type="curve"/>
      <point x="44.1000001683182" y="412.1974607907655"/>
      <point x="44.10000030583992" y="356.034819909281"/>
      <point x="44.099999237060544" y="300.0" type="curve"/>
    </contour>
    <contour>
      <point x="249.1" y="800.0" type="line"/>
      <point x="249.1" y="711.6936"/>
      <point x="320.7936" y="640.0"/>
      <point x="409.1" y="640.0" type="curve"/>
      <point x="409.1" y="800.0" type="line"/>
    </contour>
    <contour>
      <point x="249.0999984741211" y="-200" type="line"/>
      <point x="287.3275008665408" y="-200.0"/>
      <point x="409.10000376749184" y="-188.14380409796428"/>
      <point x="409.0999989827474" y="-1.4210854715202004e-14" type="curve"/>
      <point x="409.09999885559085" y="4.999999999999984" type="line"/>
      <point x="409.09999805861764" y="36.338260870016335"/>
      <point x="407.6268727369831" y="93.49860596895059"/>
      <point x="354.8594284057617" y="139.99761199951172" type="curve"/>
      <point x="409.09999895622" y="187.80253673995895"/>
      <point x="409.10000030583996" y="243.96518009071897"/>
      <point x="409.09999923706056" y="300.0" type="curve"/>
      <point x="409.0999991416931" y="305.0" type="line"/>
      <point x="409.0999958404942" y="478.07789534499636"/>
      <point x="297.4121683582315" y="500.0"/>
      <point x="249.1" y="500.0" type="curve"/>
    </contour>
    <contour>
      <point x="204.1" y="-200" type="line"/>
      <point x="204.1" y="-111.6936"/>
      <point x="132.4064" y="-40.0"/>
      <point x="44.1" y="-40.0" type="curve"/>
      <point x="44.1" y="-200" type="line"/>
    </contour>
  </outline>
</glyph>
<glyph name="diaeresis" format="2">
  <advance width="453.2"/>
  <unicode hex="00A8"/>
  <outline>
    <contour>
      <point x="209.1" y="880.0" type="curve" smooth="yes"/>
      <point x="209.1" y="926.91278"/>
      <point x="171.01278" y="965.0"/>
      <point x="124.1" y="965.0" type="curve" smooth="yes"/>
      <point x="77.18722" y="965.0"/>
      <point x="39.1" y="926.91278"/>
      <point x="39.1" y="880.0" type="curve" smooth="yes"/>
      <point x="39.1" y="833.08722"/>
      <point x="77.18722" y="795.0"/>
      <point x="124.1" y="795.0" type="curve" smooth="yes"/>
      <point x="171.01278" y="795.0"/>
      <point x="209.1" y="833.08722"/>
    </contour>
    <contour>
      <point x="414.1" y="880.0" type="curve" smooth="yes"/>
      <point x="414.1" y="926.91278"/>
      <point x="376.01278" y="965.0"/>
      <point x="329.1" y="965.0" type="curve" smooth="yes"/>
      <point x="282.18722" y="965.0"/>
      <point x="244.1" y="926.91278"/>
      <point x="244.1" y="880.0" type="curve" smooth="yes"/>
      <point x="244.1" y="833.08722"/>
      <point x="282.18722" y="795.0"/>
      <point x="329.1" y="795.0" type="curve" smooth="yes"/>
      <point x="376.01278" y="795.0"/>
      <point x="414.1" y="833.08722"/>
    </contour>
  </outline>
</glyph>
<glyph name="ordinalfeminine" format="2">
  <advance width="453.2"/>
  <unicode hex="00AA"/>
  <outline>
    <contour>
      <point x="44.09999914169311" y="595.0" type="line"/>
      <point x="44.099995840494245" y="421.92210465500364"/>
      <point x="155.7878316417685" y="400.0"/>
      <point x="204.1" y="400.0" type="curve"/>
      <point x="204.0999984741211" y="800" type="line"/>
      <point x="165.8724960817014" y="800.0"/>
      <point x="44.10000282561884" y="788.1438040979642"/>
      <point x="44.099999237060544" y="600.0" type="curve"/>
    </contour>
    <contour>
      <point x="249.0999984741211" y="600.0" type="line"/>
      <point x="249.0999984741211" y="411.85619590203567"/>
      <point x="370.87249760758027" y="400.0"/>
      <point x="409.1" y="400.0" type="curve"/>
      <point x="409.0999984741211" y="800" type="line"/>
      <point x="249.0999984741211" y="800" type="line"/>
    </contour>
  </outline>
</glyph>
<glyph name="registered" format="2">
  <advance width="1016.5749000000001"/>
  <unicode hex="00AE"/>
  <outline>
    <contour>
      <point x="892.4749" y="400.0" type="curve" smooth="yes"/>
      <point x="892.4749" y="612.03883"/>
      <point x="720.3262800000001" y="784.18745"/>
      <point x="508.28745000000004" y="784.18745" type="curve" smooth="yes"/>
      <point x="296.24862" y="784.18745"/>
      <point x="124.1" y="612.03883"/>
      <point x="124.1" y="400.0" type="curve" smooth="yes"/>
      <point x="124.1" y="187.96117"/>
      <point x="296.24862" y="15.81255"/>
      <point x="508.28745000000004" y="15.81255" type="curve" smooth="yes"/>
      <point x="720.3262800000001" y="15.81255"/>
      <point x="892.4749" y="187.96117"/>
    </contour>
    <contour>
      <point x="345.7874526977539" y="200" type="line"/>
      <point x="345.7874526977539" y="600" type="line"/>
      <point x="505.7874526977539" y="600" type="line"/>
      <point x="505.7874526977539" y="200" type="line"/>
    </contour>
    <contour>
      <point x="710.78745" y="520.0" type="curve" smooth="yes"/>
      <point x="710.78745" y="475.8468"/>
      <point x="674.9406500000001" y="440.0"/>
      <point x="630.78745" y="440.0" type="curve" smooth="yes"/>
      <point x="586.6342500000001" y="440.0"/>
      <point x="550.78745" y="475.8468"/>
      <point x="550.78745" y="520.0" type="curve" smooth="yes"/>
      <point x="550.78745" y="564.1532"/>
      <point x="586.6342500000001" y="600.0"/>
      <point x="630.78745" y="600.0" type="curve" smooth="yes"/>
      <point x="674.9406500000001" y="600.0"/>
      <point x="710.78745" y="564.1532"/>
    </contour>
  </outline>
</glyph>
<glyph name="degree" format="2">
  <advance width="303.2"/>
  <unicode hex="00B0"/>
  <outline>
    <contour>
      <point x="129.1" y="805.0" type="line"/>
      <point x="82.18722" y="805.0"/>
      <point x="44.1" y="766.91278"/>
      <point x="44.1" y="720.0" type="curve" smooth="yes"/>
      <point x="44.1" y="673.08722"/>
      <point x="82.18722" y="635.0"/>
      <point x="129.1" y="635.0" type="curve"/>
    </contour>
    <contour>
      <point x="174.1" y="635.0" type="line"/>
      <point x="221.01278" y="635.0"/>
      <point x="259.1" y="673.08722"/>
      <point x="259.1" y="720.0" type="curve" smooth="yes"/>
      <point x="259.1" y="766.91278"/>
      <point x="221.01278" y="805.0"/>
      <point x="174.1" y="805.0" type="curve"/>
    </contour>
  </outline>
</glyph>
<glyph name="sup_two" format="2">
  <advance width="453.2"/>
  <unicode hex="00B2"/>
  <outline>
    <contour>
      <point x="214.1" y="720.0" type="curve" smooth="yes"/>
      <point x="214.1" y="766.91278"/>
      <point x="176.01278" y="805.0"/>
      <point x="129.1" y="805.0" type="curve" smooth="yes"/>
      <point x="82.18722" y="805.0"/>
      <point x="44.1" y="766.91278"/>
      <point x="44.1" y="720.0" type="curve" smooth="yes"/>
      <point x="44.1" y="673.08722"/>
      <point x="82.18722" y="635.0"/>
      <point x="129.1" y="635.0" type="curve" smooth="yes"/>
      <point x="176.01278" y="635.0"/>
      <point x="214.1" y="673.08722"/>
    </contour>
    <contour>
      <point x="249.0999984741211" y="381" type="line"/>
      <point x="287.3275008665408" y="381.0"/>
      <point x="409.100002173553" y="392.8561959020357"/>
      <point x="409.0999994131235" y="581.0" type="curve"/>
      <point x="409.0999990609976" y="605.0" type="line"/>
      <point x="409.09999630056814" y="793.1438040979642"/>
      <point x="287.3275023924197" y="805.0"/>
      <point x="249.1" y="805.0" type="curve"/>
    </contour>
    <contour>
      <point x="44.1" y="200.0" type="curve"/>
      <point x="409.0999984741211" y="200" type="line"/>
      <point x="409.0999984741211" y="360" type="line"/>
      <point x="244.0999984741211" y="360.0" type="line"/>
      <point x="55.95619437615679" y="360.0"/>
      <point x="44.1" y="238.22750239241975"/>
    </contour>
  </outline>
</glyph>
<glyph name="sup_three" format="2">
  <advance width="453.2"/>
  <unicode hex="00B3"/>
  <outline>
    <contour>
      <point x="209.1" y="720.0" type="curve" smooth="yes"/>
      <point x="209.1" y="766.91278"/>
      <point x="171.01278" y="805.0"/>
      <point x="124.1" y="805.0" type="curve" smooth="yes"/>
      <point x="77.18722" y="805.0"/>
      <point x="39.1" y="766.91278"/>
      <point x="39.1" y="720.0" type="curve" smooth="yes"/>
      <point x="39.1" y="673.08722"/>
      <point x="77.18722" y="635.0"/>
      <point x="124.1" y="635.0" type="curve" smooth="yes"/>
      <point x="171.01278" y="635.0"/>
      <point x="209.1" y="673.08722"/>
    </contour>
    <contour>
      <point x="249.0999984741211" y="600" type="line"/>
      <point x="297.4121668323526" y="600.0"/>
      <point x="409.1000052672538" y="621.9221046550037"/>
      <point x="409.09999866485595" y="795.0" type="curve"/>
      <point x="409.0999984741211" y="800" type="line"/>
      <point x="249.0999984741211" y="800" type="line"/>
    </contour>
    <contour>
      <point x="249.0999984741211" y="195" type="line"/>
      <point x="287.3275008665408" y="195.0"/>
      <point x="409.100002659406" y="206.85619590203572"/>
      <point x="409.09999928193935" y="395.0" type="curve"/>
      <point x="409.09999919218177" y="400.0" type="line"/>
      <point x="409.0999958147151" y="588.1438040979642"/>
      <point x="287.3275023924197" y="600.0"/>
      <point x="249.1" y="600.0" type="curve"/>
    </contour>
    <contour>
      <point x="209.1" y="280.0" type="curve" smooth="yes"/>
      <point x="209.1" y="326.91278"/>
      <point x="171.01278" y="365.0"/>
      <point x="124.1" y="365.0" type="curve" smooth="yes"/>
      <point x="77.18722" y="365.0"/>
      <point x="39.1" y="326.91278"/>
      <point x="39.1" y="280.0" type="curve" smooth="yes"/>
      <point x="39.1" y="233.08722"/>
      <point x="77.18722" y="195.0"/>
      <point x="124.1" y="195.0" type="curve" smooth="yes"/>
      <point x="171.01278" y="195.0"/>
      <point x="209.1" y="233.08722"/>
    </contour>
  </outline>
</glyph>
<glyph name="acute" format="2">
  <advance width="248.2"/>
  <unicode hex="00B4"/>
  <outline>
    <contour>
      <point x="114.1" y="800.0" type="line"/>
      <point x="202.4064" y="800.0"/>
      <point x="274.1" y="871.6936000000001"/>
      <point x="274.1" y="960.0" type="curve"/>
      <point x="114.1" y="960.0" type="line"/>
    </contour>
  </outline>
</glyph>
<glyph name="mu" format="2">
  <advance width="498.2"/>
  <unicode hex="00B5"/>
  <outline>
    <contour>
      <point x="44.099998474121094" y="-200" type="line"/>
      <point x="204.0999984741211" y="-200" type="line"/>
      <point x="204.0999984741211" y="600" type="line"/>
      <point x="44.099998474121094" y="600" type="line"/>
    </contour>
    <contour>
      <point x="249.0999984741211" y="200.0" type="line"/>
      <point x="249.0999984741211" y="10.216829983646164"/>
      <point x="359.85138085556736" y="6.031216379765654e-15"/>
      <point x="449.0999984741211" y="-4.8985870097231386e-15" type="curve"/>
      <point x="454.0999984741211" y="0" type="line"/>
      <point x="454.0999984741211" y="160" type="line"/>
      <point x="409.0999984741211" y="160" type="line"/>
      <point x="409.0999984741211" y="600" type="line"/>
      <point x="249.0999984741211" y="600" type="line"/>
    </contour>
  </outline>
</glyph>
<glyph name="pilcrow" format="2">
  <advance width="453.2"/>
  <unicode hex="00B6"/>
  <outline>
    <contour>
      <point x="44.09999914169311" y="595.0" type="line"/>
      <point x="44.099995840494245" y="421.92210465500364"/>
      <point x="155.7878316417685" y="400.0"/>
      <point x="204.1" y="400.0" type="curve"/>
      <point x="204.0999984741211" y="800" type="line"/>
      <point x="165.8724960817014" y="800.0"/>
      <point x="44.10000282561884" y="788.1438040979642"/>
      <point x="44.099999237060544" y="600.0" type="curve"/>
    </contour>
    <contour>
      <point x="249.0999984741211" y="-100" type="line"/>
      <point x="409.0999984741211" y="-100" type="line"/>
      <point x="409.0999984741211" y="800" type="line"/>
      <point x="249.0999984741211" y="800" type="line"/>
    </contour>
  </outline>
</glyph>
<glyph name="cedilla" format="2">
  <advance width="248.2"/>
  <unicode hex="00B8"/>
  <outline>
    <contour>
      <point x="274.1" y="-160.0" type="line"/>
      <point x="274.1" y="-71.6936"/>
      <point x="202.4064" y="0.0"/>
      <point x="114.1" y="0.0" type="curve"/>
      <point x="114.1" y="-160.0" type="line"/>
    </contour>
  </outline>
</glyph>
<glyph name="ordinalmasculine" format="2">
  <advance width="453.2"/>
  <unicode hex="00BA"/>
  <outline>
    <contour>
      <point x="44.09999914169311" y="595.0" type="line"/>
      <point x="44.099995840494245" y="421.92210465500364"/>
      <point x="155.7878316417685" y="400.0"/>
      <point x="204.1" y="400.0" type="curve"/>
      <point x="204.0999984741211" y="800" type="line"/>
      <point x="165.8724960817014" y="800.0"/>
      <point x="44.10000282561884" y="788.1438040979642"/>
      <point x="44.099999237060544" y="600.0" type="curve"/>
    </contour>
    <contour>
      <point x="249.0999984741211" y="400" type="line"/>
      <point x="287.3275008665408" y="400.0"/>
      <point x="409.1000028256189" y="411.8561959020357"/>
      <point x="409.09999923706056" y="600.0" type="curve"/>
      <point x="409.0999991416931" y="605.0" type="line"/>
      <point x="409.0999958404942" y="778.0778953449964"/>
      <point x="297.4121683582315" y="800.0"/>
      <point x="249.1" y="800.0" type="curve"/>
    </contour>
  </outline>
</glyph>
<glyph name="one_over_four" format="2">
  <advance width="863.2"/>
  <unicode hex="00BC"/>
  <outline>
    <contour>
      <point x="21.599998474121094" y="200" type="line"/>
      <point x="181.5999984741211" y="200" type="line"/>
      <point x="181.5999984741211" y="800" type="line"/>
      <point x="21.599998474121094" y="800" type="line"/>
    </contour>
    <contour>
      <point x="249.0999984741211" y="-200" type="line"/>
      <point x="287.3275008665408" y="-200.0"/>
      <point x="409.1000002691066" y="-188.1438040979643"/>
      <point x="409.0999999273391" y="0.0" type="curve"/>
      <point x="409.0999984741211" y="800" type="line"/>
      <point x="370.8724960817014" y="800.0"/>
      <point x="249.10000026910657" y="788.1438040979643"/>
      <point x="249.0999999273391" y="600.0" type="curve"/>
    </contour>
    <contour>
      <point x="476.5999984741211" y="0" type="line"/>
      <point x="514.8275008665408" y="0.0"/>
      <point x="636.600000941873" y="11.856195902035694"/>
      <point x="636.5999997456869" y="200.0" type="curve"/>
      <point x="636.5999984741211" y="400" type="line"/>
      <point x="476.5999984741211" y="400" type="line"/>
    </contour>
    <contour>
      <point x="681.5999984741211" y="-200" type="line"/>
      <point x="841.5999984741211" y="-200" type="line"/>
      <point x="841.5999984741211" y="200" type="line"/>
      <point x="681.5999984741211" y="200" type="line"/>
    </contour>
  </outline>
</glyph>
<glyph name="one_over_two" format="2">
  <advance width="863.2"/>
  <unicode hex="00BD"/>
  <outline>
    <contour>
      <point x="21.599998474121094" y="200" type="line"/>
      <point x="181.5999984741211" y="200" type="line"/>
      <point x="181.5999984741211" y="800" type="line"/>
      <point x="21.599998474121094" y="800" type="line"/>
    </contour>
    <contour>
      <point x="249.0999984741211" y="-200" type="line"/>
      <point x="287.3275008665408" y="-200.0"/>
      <point x="409.1000002691066" y="-188.1438040979643"/>
      <point x="409.0999999273391" y="0.0" type="curve"/>
      <point x="409.0999984741211" y="800" type="line"/>
      <point x="370.8724960817014" y="800.0"/>
      <point x="249.10000026910657" y="788.1438040979643"/>
      <point x="249.0999999273391" y="600.0" type="curve"/>
    </contour>
    <contour>
      <point x="646.6" y="320.0" type="curve" smooth="yes"/>
      <point x="646.6" y="366.91278"/>
      <point x="608.51278" y="405.0"/>
      <point x="561.6" y="405.0" type="curve" smooth="yes"/>
      <point x="514.68722" y="405.0"/>
      <point x="476.6" y="366.91278"/>
      <point x="476.6" y="320.0" type="curve" smooth="yes"/>
      <point x="476.6" y="273.08722"/>
      <point x="514.68722" y="235.0"/>
      <point x="561.6" y="235.0" type="curve" smooth="yes"/>
      <point x="608.51278" y="235.0"/>
      <point x="646.6" y="273.08722"/>
    </contour>
    <contour>
      <point x="681.5999984741211" y="-19" type="line"/>
      <point x="719.8275008665408" y="-19.0"/>
      <point x="841.600002173553" y="-7.143804097964278"/>
      <point x="841.5999994131236" y="181.0" type="curve"/>
      <point x="841.5999990609977" y="205.0" type="line"/>
      <point x="841.599996300568" y="393.1438040979643"/>
      <point x="719.8275023924198" y="405.0"/>
      <point x="681.6" y="405.0" type="curve"/>
    </contour>
    <contour>
      <point x="476.6" y="-200.0" type="curve"/>
      <point x="841.5999984741211" y="-200" type="line"/>
      <point x="841.5999984741211" y="-40" type="line"/>
      <point x="676.5999984741211" y="-40.00000000000001" type="line"/>
      <point x="488.45619437615676" y="-39.999999999999986"/>
      <point x="476.6" y="-161.77249760758025"/>
    </contour>
  </outline>
</glyph>
<glyph name="three_over_four" format="2">
  <advance width="1068.2"/>
  <unicode hex="00BE"/>
  <outline>
    <contour>
      <point x="186.6" y="720.0" type="curve" smooth="yes"/>
      <point x="186.6" y="766.91278"/>
      <point x="148.51278" y="805.0"/>
      <point x="101.6" y="805.0" type="curve" smooth="yes"/>
      <point x="54.68722" y="805.0"/>
      <point x="16.6" y="766.91278"/>
      <point x="16.6" y="720.0" type="curve" smooth="yes"/>
      <point x="16.6" y="673.08722"/>
      <point x="54.68722" y="635.0"/>
      <point x="101.6" y="635.0" type="curve" smooth="yes"/>
      <point x="148.51278" y="635.0"/>
      <point x="186.6" y="673.08722"/>
    </contour>
    <contour>
      <point x="226.5999984741211" y="600" type="line"/>
      <point x="274.9121668323526" y="600.0"/>
      <point x="386.6000052672538" y="621.9221046550037"/>
      <point x="386.59999866485595" y="795.0" type="curve"/>
      <point x="386.5999984741211" y="800" type="line"/>
      <point x="226.5999984741211" y="800" type="line"/>
    </contour>
    <contour>
      <point x="454.0999984741211" y="-200" type="line"/>
      <point x="492.3275008665408" y="-200.0"/>
      <point x="614.1000002691065" y="-188.1438040979643"/>
      <point x="614.0999999273391" y="0.0" type="curve"/>
      <point x="614.0999984741211" y="800" type="line"/>
      <point x="575.8724960817013" y="800.0"/>
      <point x="454.1000002691066" y="788.1438040979643"/>
      <point x="454.0999999273391" y="600.0" type="curve"/>
    </contour>
    <contour>
      <point x="226.5999984741211" y="195" type="line"/>
      <point x="264.8275008665408" y="195.0"/>
      <point x="386.600002659406" y="206.85619590203572"/>
      <point x="386.59999928193935" y="395.0" type="curve"/>
      <point x="386.59999919218177" y="400.0" type="line"/>
      <point x="386.5999958147151" y="588.1438040979642"/>
      <point x="264.8275023924197" y="600.0"/>
      <point x="226.6" y="600.0" type="curve"/>
    </contour>
    <contour>
      <point x="681.5999984741211" y="0" type="line"/>
      <point x="719.8275008665408" y="0.0"/>
      <point x="841.600000941873" y="11.856195902035694"/>
      <point x="841.5999997456869" y="200.0" type="curve"/>
      <point x="841.5999984741211" y="400" type="line"/>
      <point x="681.5999984741211" y="400" type="line"/>
    </contour>
    <contour>
      <point x="186.6" y="280.0" type="curve" smooth="yes"/>
      <point x="186.6" y="326.91278"/>
      <point x="148.51278" y="365.0"/>
      <point x="101.6" y="365.0" type="curve" smooth="yes"/>
      <point x="54.68722" y="365.0"/>
      <point x="16.6" y="326.91278"/>
      <point x="16.6" y="280.0" type="curve" smooth="yes"/>
      <point x="16.6" y="233.08722"/>
      <point x="54.68722" y="195.0"/>
      <point x="101.6" y="195.0" type="curve" smooth="yes"/>
      <point x="148.51278" y="195.0"/>
      <point x="186.6" y="233.08722"/>
    </contour>
    <contour>
      <point x="886.5999984741211" y="-200" type="line"/>
      <point x="1046.599998474121" y="-200" type="line"/>
      <point x="1046.599998474121" y="200" type="line"/>
      <point x="886.5999984741211" y="200" type="line"/>
    </contour>
  </outline>
</glyph>
<glyph name="invquestion" format="2">
  <advance width="453.2"/>
  <unicode hex="00BF"/>
  <outline>
    <contour>
      <point x="414.1" y="526.25" type="curve" smooth="yes"/>
      <point x="414.1" y="573.16278"/>
      <point x="376.01278" y="611.25"/>
      <point x="329.1" y="611.25" type="curve" smooth="yes"/>
      <point x="282.18722" y="611.25"/>
      <point x="244.1" y="573.16278"/>
      <point x="244.1" y="526.25" type="curve" smooth="yes"/>
      <point x="244.1" y="479.33722"/>
      <point x="282.18722" y="441.25"/>
      <point x="329.1" y="441.25" type="curve" smooth="yes"/>
      <point x="376.01278" y="441.25"/>
      <point x="414.1" y="479.33722"/>
    </contour>
    <contour>
      <point x="249.0999984741211" y="40" type="line"/>
      <point x="287.3275008665408" y="40.0"/>
      <point x="409.1000011542954" y="51.856195902035694"/>
      <point x="409.09999968833114" y="240.0" type="curve"/>
      <point x="409.0999984741211" y="395.8333282470703" type="line"/>
      <point x="249.0999984741211" y="395.8333282470703" type="line"/>
    </contour>
    <contour>
      <point x="44.09999914169311" y="-9.999999999999993" type="line"/>
      <point x="44.099995840494245" y="-183.07789534499634"/>
      <point x="155.7878316417685" y="-205.0"/>
      <point x="204.1" y="-205.0" type="curve"/>
      <point x="204.0999984741211" y="195" type="line"/>
      <point x="165.8724960817014" y="195.0"/>
      <point x="44.10000282561884" y="183.14380409796428"/>
      <point x="44.099999237060544" y="-4.999999999999993" type="curve"/>
    </contour>
    <contour>
      <point x="414.1" y="-132.5" type="curve" smooth="yes"/>
      <point x="414.1" y="-85.58722"/>
      <point x="376.01278" y="-47.5"/>
      <point x="329.1" y="-47.5" type="curve" smooth="yes"/>
      <point x="282.18722" y="-47.5"/>
      <point x="244.1" y="-85.58722"/>
      <point x="244.1" y="-132.5" type="curve" smooth="yes"/>
      <point x="244.1" y="-179.41278"/>
      <point x="282.18722" y="-217.5"/>
      <point x="329.1" y="-217.5" type="curve" smooth="yes"/>
      <point x="376.01278" y="-217.5"/>
      <point x="414.1" y="-179.41278"/>
    </contour>
  </outline>
</glyph>
<glyph name="A_with_circumflex" format="2">
  <advance width="453.2"/>
  <unicode hex="00C2"/>
  <outline>
    <contour>
      <point x="61.599999999999994" y="838.8888888888889" type="line"/>
      <point x="149.9064" y="838.8888888888889"/>
      <point x="221.6" y="910.582488888889"/>
      <point x="221.6" y="998.8888888888889" type="curve"/>
      <point x="61.599999999999994" y="998.8888888888889" type="line"/>
    </contour>
    <contour>
      <point x="231.6" y="998.8888888888889" type="line"/>
      <point x="231.6" y="910.582488888889"/>
      <point x="303.29359999999997" y="838.8888888888889"/>
      <point x="391.6" y="838.8888888888889" type="curve"/>
      <point x="391.6" y="998.8888888888889" type="line"/>
    </contour>
    <contour>
      <point x="44.099998474121094" y="0" type="line"/>
      <point x="204.0999984741211" y="0" type="line"/>
      <point x="204.0999984741211" y="805" type="line"/>
      <point x="165.8724960817014" y="805.0"/>
      <point x="44.10000035046434" y="793.1438040979643"/>
      <point x="44.09999990537185" y="605.0" type="curve"/>
    </contour>
    <contour>
      <point x="249.0999984741211" y="0" type="line"/>
      <point x="409.0999984741211" y="0" type="line"/>
      <point x="409.0999984741211" y="605.0" type="line"/>
      <point x="409.0999984741211" y="793.1438040979643"/>
      <point x="287.3275023924197" y="805.0"/>
      <point x="249.1" y="805.0" type="curve"/>
    </contour>
  </outline>
</glyph>
<glyph name="A_with_diaeresis" format="2">
  <advance width="453.2"/>
  <unicode hex="00C4"/>
  <outline>
    <contour>
      <point x="209.1" y="918.8888888888889" type="curve" smooth="yes"/>
      <point x="209.1" y="965.8016688888889"/>
      <point x="171.01278" y="1003.8888888888889"/>
      <point x="124.1" y="1003.8888888888889" type="curve" smooth="yes"/>
      <point x="77.18722" y="1003.8888888888889"/>
      <point x="39.099999999999994" y="965.8016688888889"/>
      <point x="39.099999999999994" y="918.8888888888889" type="curve" smooth="yes"/>
      <point x="39.099999999999994" y="871.9761088888889"/>
      <point x="77.18722" y="833.8888888888889"/>
      <point x="124.1" y="833.8888888888889" type="curve" smooth="yes"/>
      <point x="171.01278" y="833.8888888888889"/>
      <point x="209.1" y="871.9761088888889"/>
    </contour>
    <contour>
      <point x="414.1" y="918.8888888888889" type="curve" smooth="yes"/>
      <point x="414.1" y="965.8016688888889"/>
      <point x="376.01278" y="1003.8888888888889"/>
      <point x="329.1" y="1003.8888888888889" type="curve" smooth="yes"/>
      <point x="282.18722" y="1003.8888888888889"/>
      <point x="244.1" y="965.8016688888889"/>
      <point x="244.1" y="918.8888888888889" type="curve" smooth="yes"/>
      <point x="244.1" y="871.9761088888889"/>
      <point x="282.18722" y="833.8888888888889"/>
      <point x="329.1" y="833.8888888888889" type="curve" smooth="yes"/>
      <point x="376.01278" y="833.8888888888889"/>
      <point x="414.1" y="871.9761088888889"/>
    </contour>
    <contour>
      <point x="44.099998474121094" y="0" type="line"/>
      <point x="204.0999984741211" y="0" type="line"/>
      <point x="204.0999984741211" y="805" type="line"/>
      <point x="165.8724960817014" y="805.0"/>
      <point x="44.10000035046434" y="793.1438040979643"/>
      <point x="44.09999990537185" y="605.0" type="curve"/>
    </contour>
    <contour>
      <point x="249.0999984741211" y="0" type="line"/>
      <point x="409.0999984741211" y="0" type="line"/>
      <point x="409.0999984741211" y="605.0" type="line"/>
      <point x="409.0999984741211" y="793.1438040979643"/>
      <point x="287.3275023924197" y="805.0"/>
      <point x="249.1" y="805.0" type="curve"/>
    </contour>
  </outline>
</glyph>
<glyph name="A_with_ring" format="2">
  <advance width="453.2"/>
  <unicode hex="00C5"/>
  <outline>
    <contour>
      <point x="204.1" y="1003.8888888888889" type="line"/>
      <point x="157.18722" y="1003.8888888888889"/>
      <point x="119.1" y="965.8016688888889"/>
      <point x="119.1" y="918.8888888888889" type="curve" smooth="yes"/>
      <point x="119.1" y="871.9761088888889"/>
      <point x="157.18722" y="833.8888888888889"/>
      <point x="204.1" y="833.8888888888889" type="curve"/>
    </contour>
    <contour>
      <point x="249.1" y="833.8888888888889" type="line"/>
      <point x="296.01278" y="833.8888888888889"/>
      <point x="334.1" y="871.9761088888889"/>
      <point x="334.1" y="918.8888888888889" type="curve" smooth="yes"/>
      <point x="334.1" y="965.8016688888889"/>
      <point x="296.01278" y="1003.8888888888889"/>
      <point x="249.1" y="1003.8888888888889" type="curve"/>
    </contour>
    <contour>
      <point x="44.099998474121094" y="0" type="line"/>
      <point x="204.0999984741211" y="0" type="line"/>
      <point x="204.0999984741211" y="805" type="line"/>
      <point x="165.8724960817014" y="805.0"/>
      <point x="44.10000035046434" y="793.1438040979643"/>
      <point x="44.09999990537185" y="605.0" type="curve"/>
    </contour>
    <contour>
      <point x="249.0999984741211" y="0" type="line"/>
      <point x="409.0999984741211" y="0" type="line"/>
      <point x="409.0999984741211" y="605.0" type="line"/>
      <point x="409.0999984741211" y="793.1438040979643"/>
      <point x="287.3275023924197" y="805.0"/>
      <point x="249.1" y="805.0" type="curve"/>
    </contour>
  </outline>
</glyph>
<glyph name="I_with_grave" format="2">
  <advance width="248.2"/>
  <unicode hex="00CC"/>
  <outline>
    <contour>
      <point x="-25.900000000000006" y="998.8888888888889" type="line"/>
      <point x="-25.900000000000006" y="910.582488888889"/>
      <point x="45.7936" y="838.8888888888889"/>
      <point x="134.1" y="838.8888888888889" type="curve"/>
      <point x="134.1" y="998.8888888888889" type="line"/>
    </contour>
    <contour>
      <point x="44.099998474121094" y="0" type="line"/>
      <point x="204.0999984741211" y="0" type="line"/>
      <point x="204.0999984741211" y="800" type="line"/>
      <point x="44.099998474121094" y="800" type="line"/>
    </contour>
  </outline>
</glyph>
<glyph name="ETH" format="2">
  <advance width="658.2"/>
  <unicode hex="00D0"/>
  <outline>
    <contour>
      <point x="249.0999984741211" y="0" type="line"/>
      <point x="409.0999984741211" y="0" type="line"/>
      <point x="409.0999984741211" y="800" type="line"/>
      <point x="249.0999984741211" y="800" type="line"/>
      <point x="249.0999984741211" y="470.2590637207031" type="line"/>
      <point x="187.8533719850488" y="447.83247269713763"/>
      <point x="144.09999999999997" y="388.9854895184"/>
      <point x="144.1" y="320.0" type="curve"/>
      <point x="249.0999984741211" y="320" type="line"/>
    </contour>
    <contour>
      <point x="454.0999984741211" y="0" type="line"/>
      <point x="492.3275008665408" y="0.0"/>
      <point x="614.1000004709365" y="11.856195902035694"/>
      <point x="614.0999998728435" y="200.0" type="curve"/>
      <point x="614.0999986012777" y="600.0" type="line"/>
      <point x="614.0999980031846" y="788.1438040979643"/>
      <point x="492.3275023924198" y="800.0"/>
      <point x="454.1" y="800.0" type="curve"/>
    </contour>
  </outline>
</glyph>
<glyph name="O_with_circumflex" format="2">
  <advance width="453.2"/>
  <unicode hex="00D4"/>
  <outline>
    <contour>
      <point x="61.599999999999994" y="838.8888888888889" type="line"/>
      <point x="149.9064" y="838.8888888888889"/>
      <point x="221.6" y="910.582488888889"/>
      <point x="221.6" y="998.8888888888889" type="curve"/>
      <point x="61.599999999999994" y="998.8888888888889" type="line"/>
    </contour>
    <contour>
      <point x="231.6" y="998.8888888888889" type="line"/>
      <point x="231.6" y="910.582488888889"/>
      <point x="303.29359999999997" y="838.8888888888889"/>
      <point x="391.6" y="838.8888888888889" type="curve"/>
      <point x="391.6" y="998.8888888888889" type="line"/>
    </contour>
    <contour>
      <point x="44.09999859868263" y="195.0" type="line"/>
      <point x="44.09999801279558" y="6.856195902035694"/>
      <point x="165.87249760758027" y="-4.999999999999996"/>
      <point x="204.1" y="-5.0" type="curve"/>
      <point x="204.0999984741211" y="805" type="line"/>
      <point x="165.8724960817014" y="805.0"/>
      <point x="44.100000461325536" y="793.1438040979643"/>
      <point x="44.099999875438456" y="605.0" type="curve"/>
    </contour>
    <contour>
      <point x="249.0999984741211" y="-5" type="line"/>
      <point x="287.3275008665408" y="-5.0"/>
      <point x="409.1000004613256" y="6.856195902035694"/>
      <point x="409.09999987543847" y="195.0" type="curve"/>
      <point x="409.09999859868265" y="605.0" type="line"/>
      <point x="409.0999980127956" y="793.1438040979643"/>
      <point x="287.3275023924197" y="805.0"/>
      <point x="249.1" y="805.0" type="curve"/>
    </contour>
  </outline>
</glyph>
<glyph name="O_with_smalltilde" format="2">
  <advance width="453.2"/>
  <unicode hex="00D5"/>
  <outline>
    <contour>
      <point x="186.5999984741211" y="838.8888863457574" type="line"/>
      <point x="374.7438025720854" y="838.8888823584704"/>
      <point x="386.6" y="960.6613864964692"/>
      <point x="386.6" y="998.8888888888889" type="curve"/>
      <point x="266.5999984741211" y="998.8888863457573" type="line"/>
      <point x="78.45619437615682" y="998.8888823584705"/>
      <point x="66.6" y="877.1163912813087"/>
      <point x="66.6" y="838.8888888888889" type="curve"/>
    </contour>
    <contour>
      <point x="44.09999859868263" y="195.0" type="line"/>
      <point x="44.09999801279558" y="6.856195902035694"/>
      <point x="165.87249760758027" y="-4.999999999999996"/>
      <point x="204.1" y="-5.0" type="curve"/>
      <point x="204.0999984741211" y="805" type="line"/>
      <point x="165.8724960817014" y="805.0"/>
      <point x="44.100000461325536" y="793.1438040979643"/>
      <point x="44.099999875438456" y="605.0" type="curve"/>
    </contour>
    <contour>
      <point x="249.0999984741211" y="-5" type="line"/>
      <point x="287.3275008665408" y="-5.0"/>
      <point x="409.1000004613256" y="6.856195902035694"/>
      <point x="409.09999987543847" y="195.0" type="curve"/>
      <point x="409.09999859868265" y="605.0" type="line"/>
      <point x="409.0999980127956" y="793.1438040979643"/>
      <point x="287.3275023924197" y="805.0"/>
      <point x="249.1" y="805.0" type="curve"/>
    </contour>
  </outline>
</glyph>
<glyph name="O_with_diaeresis" format="2">
  <advance width="453.2"/>
  <unicode hex="00D6"/>
  <outline>
    <contour>
      <point x="209.1" y="918.8888888888889" type="curve" smooth="yes"/>
      <point x="209.1" y="965.8016688888889"/>
      <point x="171.01278" y="1003.8888888888889"/>
      <point x="124.1" y="1003.8888888888889" type="curve" smooth="yes"/>
      <point x="77.18722" y="1003.8888888888889"/>
      <point x="39.099999999999994" y="965.8016688888889"/>
      <point x="39.099999999999994" y="918.8888888888889" type="curve" smooth="yes"/>
      <point x="39.099999999999994" y="871.9761088888889"/>
      <point x="77.18722" y="833.8888888888889"/>
      <point x="124.1" y="833.8888888888889" type="curve" smooth="yes"/>
      <point x="171.01278" y="833.8888888888889"/>
      <point x="209.1" y="871.9761088888889"/>
    </contour>
    <contour>
      <point x="414.1" y="918.8888888888889" type="curve" smooth="yes"/>
      <point x="414.1" y="965.8016688888889"/>
      <point x="376.01278" y="1003.8888888888889"/>
      <point x="329.1" y="1003.8888888888889" type="curve" smooth="yes"/>
      <point x="282.18722" y="1003.8888888888889"/>
      <point x="244.1" y="965.8016688888889"/>
      <point x="244.1" y="918.8888888888889" type="curve" smooth="yes"/>
      <point x="244.1" y="871.9761088888889"/>
      <point x="282.18722" y="833.8888888888889"/>
      <point x="329.1" y="833.8888888888889" type="curve" smooth="yes"/>
      <point x="376.01278" y="833.8888888888889"/>
      <point x="414.1" y="871.9761088888889"/>
    </contour>
    <contour>
      <point x="44.09999859868263" y="195.0" type="line"/>
      <point x="44.09999801279558" y="6.856195902035694"/>
      <point x="165.87249760758027" y="-4.999999999999996"/>
      <point x="204.1" y="-5.0" type="curve"/>
      <point x="204.0999984741211" y="805" type="line"/>
      <point x="165.8724960817014" y="805.0"/>
      <point x="44.100000461325536" y="793.1438040979643"/>
      <point x="44.099999875438456" y="605.0" type="curve"/>
    </contour>
    <contour>
      <point x="249.0999984741211" y="-5" type="line"/>
      <point x="287.3275008665408" y="-5.0"/>
      <point x="409.1000004613256" y="6.856195902035694"/>
      <point x="409.09999987543847" y="195.0" type="curve"/>
      <point x="409.09999859868265" y="605.0" type="line"/>
      <point x="409.0999980127956" y="793.1438040979643"/>
      <point x="287.3275023924197" y="805.0"/>
      <point x="249.1" y="805.0" type="curve"/>
    </contour>
  </outline>
</glyph>
<glyph name="multiply" format="2">
  <advance width="453.2"/>
  <unicode hex="00D7"/>
  <outline>
    <contour>
      <point x="44.099998474121094" y="595.0" type="line"/>
      <point x="44.0999984741211" y="421.92210465500364"/>
      <point x="155.7878316417685" y="400.0"/>
      <point x="204.1" y="400.0" type="curve"/>
      <point x="204.0999984741211" y="600" type="line"/>
      <point x="44.099998474121094" y="600" type="line"/>
    </contour>
    <contour>
      <point x="249.0999984741211" y="400" type="line"/>
      <point x="297.4121668323526" y="400.0"/>
      <point x="409.1000052672538" y="421.9221046550038"/>
      <point x="409.09999866485595" y="595.0" type="curve"/>
      <point x="409.0999984741211" y="600" type="line"/>
      <point x="249.0999984741211" y="600" type="line"/>
    </contour>
    <contour>
      <point x="44.099998474121094" y="200" type="line"/>
      <point x="204.0999984741211" y="200" type="line"/>
      <point x="204.0999984741211" y="400" type="line"/>
      <point x="155.78783011588956" y="400.0"/>
      <point x="44.100005267253714" y="378.0778953449962"/>
      <point x="44.09999866485595" y="205.0" type="curve"/>
    </contour>
    <contour>
      <point x="249.0999984741211" y="200" type="line"/>
      <point x="409.0999984741211" y="200" type="line"/>
      <point x="409.0999984741211" y="205.0" type="line"/>
      <point x="409.0999984741211" y="378.07789534499636"/>
      <point x="297.4121683582315" y="400.0"/>
      <point x="249.1" y="400.0" type="curve"/>
    </contour>
  </outline>
</glyph>
<glyph name="O_with_stroke" format="2">
  <advance width="453.2"/>
  <unicode hex="00D8"/>
  <outline>
    <contour>
      <point x="249.0999984741211" y="-5" type="line"/>
      <point x="287.3275008665408" y="-5.0"/>
      <point x="409.1000004613256" y="6.856195902035694"/>
      <point x="409.09999987543847" y="195.0" type="curve"/>
      <point x="409.09999859868265" y="605.0" type="line"/>
      <point x="409.0999984500254" y="652.7377699344637"/>
      <point x="409.10000044069625" y="700.9326450349429"/>
      <point x="374.28470611572266" y="744.5842514038086" type="curve"/>
      <point x="419.2220412500419" y="772.9094975759239"/>
      <point x="449.09999999999997" y="822.9930970288"/>
      <point x="449.1" y="880.0000000000001" type="curve"/>
      <point x="289.0999984741211" y="880" type="line"/>
      <point x="289.0999984741211" y="799.9473876953125" type="line"/>
      <point x="276.31347705202967" y="803.2466196647051"/>
      <point x="262.9098846704" y="805.0"/>
      <point x="249.10000000000002" y="805.0" type="curve"/>
    </contour>
    <contour>
      <point x="44.09999859868263" y="195.0" type="line"/>
      <point x="44.099998450025296" y="147.2622022802518"/>
      <point x="44.100000874743266" y="99.06734988408907"/>
      <point x="78.91529846191406" y="55.415748596191406" type="curve"/>
      <point x="33.97795874995807" y="27.090502424076142"/>
      <point x="4.099999999999998" y="-22.99309702880001"/>
      <point x="4.1000000000000085" y="-80.00000000000001" type="curve"/>
      <point x="164.0999984741211" y="-80" type="line"/>
      <point x="164.0999984741211" y="0.0526123046875" type="line"/>
      <point x="176.88652294797035" y="-3.2466196647051753"/>
      <point x="190.2901153296" y="-5.000000000000002"/>
      <point x="204.10000000000002" y="-5.000000000000002" type="curve"/>
      <point x="204.0999984741211" y="805" type="line"/>
      <point x="165.8724960817014" y="805.0"/>
      <point x="44.100000461325536" y="793.1438040979643"/>
      <point x="44.099999875438456" y="605.0" type="curve"/>
    </contour>
  </outline>
</glyph>
<glyph name="THORN" format="2">
  <advance width="453.2"/>
  <unicode hex="00DE"/>
  <outline>
    <contour>
      <point x="44.099998474121094" y="0" type="line"/>
      <point x="204.0999984741211" y="0" type="line"/>
      <point x="204.0999984741211" y="800" type="line"/>
      <point x="44.099998474121094" y="800" type="line"/>
    </contour>
    <contour>
      <point x="249.0999984741211" y="100" type="line"/>
      <point x="287.3275008665408" y="100.0"/>
      <point x="409.1000008073197" y="111.8561959020357"/>
      <point x="409.09999978201733" y="300.0" type="curve"/>
      <point x="409.0999986921038" y="500.0" type="line"/>
      <point x="409.0999976668014" y="688.1438040979643"/>
      <point x="287.3275023924197" y="700.0"/>
      <point x="249.1" y="700.0" type="curve"/>
    </contour>
  </outline>
</glyph>
<glyph name="eszett" format="2">
  <advance width="453.2"/>
  <unicode hex="00DF"/>
  <outline>
    <contour>
      <point x="44.099998474121094" y="0" type="line"/>
      <point x="204.0999984741211" y="0" type="line"/>
      <point x="204.0999984741211" y="800" type="line"/>
      <point x="165.8724960817014" y="800.0"/>
      <point x="44.100000353202354" y="788.1438040979643"/>
      <point x="44.09999990463257" y="600.0" type="curve"/>
    </contour>
    <contour>
      <point x="249.0999984741211" y="400" type="line"/>
      <point x="287.3275008665408" y="400.0"/>
      <point x="409.1000028256189" y="411.8561959020357"/>
      <point x="409.09999923706056" y="600.0" type="curve"/>
      <point x="409.0999991416931" y="605.0" type="line"/>
      <point x="409.0999958404942" y="778.0778953449964"/>
      <point x="297.4121683582315" y="800.0"/>
      <point x="249.1" y="800.0" type="curve"/>
    </contour>
    <contour>
      <point x="249.0999984741211" y="0" type="line"/>
      <point x="287.3275008665408" y="0.0"/>
      <point x="409.1000028256189" y="11.856195902035722"/>
      <point x="409.09999923706056" y="200.0" type="curve"/>
      <point x="409.0999991416931" y="205.0" type="line"/>
      <point x="409.0999958404942" y="378.07789534499636"/>
      <point x="297.4121683582315" y="400.0"/>
      <point x="249.1" y="400.0" type="curve"/>
    </contour>
  </outline>
</glyph>
<glyph name="a_with_diaeresis" format="2">
  <advance width="453.2"/>
  <unicode hex="00E4"/>
  <outline>
    <contour>
      <point x="207.85" y="718.8888888888889" type="curve" smooth="yes"/>
      <point x="207.85" y="765.8016688888889"/>
      <point x="169.76278" y="803.8888888888889"/>
      <point x="122.85" y="803.8888888888889" type="curve" smooth="yes"/>
      <point x="75.93722" y="803.8888888888889"/>
      <point x="37.849999999999994" y="765.8016688888889"/>
      <point x="37.849999999999994" y="718.8888888888889" type="curve" smooth="yes"/>
      <point x="37.849999999999994" y="671.9761088888889"/>
      <point x="75.93722" y="633.8888888888889"/>
      <point x="122.85" y="633.8888888888889" type="curve" smooth="yes"/>
      <point x="169.76278" y="633.8888888888889"/>
      <point x="207.85" y="671.9761088888889"/>
    </contour>
    <contour>
      <point x="412.85" y="718.8888888888889" type="curve" smooth="yes"/>
      <point x="412.85" y="765.8016688888889"/>
      <point x="374.76278" y="803.8888888888889"/>
      <point x="327.85" y="803.8888888888889" type="curve" smooth="yes"/>
      <point x="280.93722" y="803.8888888888889"/>
      <point x="242.85" y="765.8016688888889"/>
      <point x="242.85" y="718.8888888888889" type="curve" smooth="yes"/>
      <point x="242.85" y="671.9761088888889"/>
      <point x="280.93722" y="633.8888888888889"/>
      <point x="327.85" y="633.8888888888889" type="curve" smooth="yes"/>
      <point x="374.76278" y="633.8888888888889"/>
      <point x="412.85" y="671.9761088888889"/>
    </contour>
    <contour>
      <point x="211.6" y="520.0" type="curve" smooth="yes"/>
      <point x="211.6" y="566.91278"/>
      <point x="173.51278" y="605.0"/>
      <point x="126.6" y="605.0" type="curve" smooth="yes"/>
      <point x="79.68722" y="605.0"/>
      <point x="41.6" y="566.91278"/>
      <point x="41.6" y="520.0" type="curve" smooth="yes"/>
      <point x="41.6" y="473.08722"/>
      <point x="79.68722" y="435.0"/>
      <point x="126.6" y="435.0" type="curve" smooth="yes"/>
      <point x="173.51278" y="435.0"/>
      <point x="211.6" y="473.08722"/>
    </contour>
    <contour>
      <point x="249.0999986105125" y="195.0" type="line"/>
      <point x="249.09999796898254" y="6.856195902035694"/>
      <point x="370.87249760758027" y="-4.999999999999996"/>
      <point x="409.1" y="-5.0" type="curve"/>
      <point x="409.0999986105125" y="402.5" type="line"/>
      <point x="409.0999979689825" y="590.6438040979643"/>
      <point x="287.3275023924197" y="602.5"/>
      <point x="249.1" y="602.5" type="curve"/>
    </contour>
    <contour>
      <point x="44.099999167702414" y="195.0" type="line"/>
      <point x="44.09999586497627" y="16.430845665762263"/>
      <point x="158.16205077853468" y="-2.4999999999999942"/>
      <point x="204.1" y="-2.5" type="curve"/>
      <point x="204.0999984741211" y="400" type="line"/>
      <point x="165.8724960817014" y="400.0"/>
      <point x="44.100002739994004" y="388.1438040979643"/>
      <point x="44.09999926017993" y="200.0" type="curve"/>
    </contour>
  </outline>
</glyph>
<glyph name="e_with_diaeresis" format="2">
  <advance width="453.2"/>
  <unicode hex="00EB"/>
  <outline>
    <contour>
      <point x="209.1" y="718.8888888888889" type="curve" smooth="yes"/>
      <point x="209.1" y="765.8016688888889"/>
      <point x="171.01278" y="803.8888888888889"/>
      <point x="124.1" y="803.8888888888889" type="curve" smooth="yes"/>
      <point x="77.18722" y="803.8888888888889"/>
      <point x="39.099999999999994" y="765.8016688888889"/>
      <point x="39.099999999999994" y="718.8888888888889" type="curve" smooth="yes"/>
      <point x="39.099999999999994" y="671.9761088888889"/>
      <point x="77.18722" y="633.8888888888889"/>
      <point x="124.1" y="633.8888888888889" type="curve" smooth="yes"/>
      <point x="171.01278" y="633.8888888888889"/>
      <point x="209.1" y="671.9761088888889"/>
    </contour>
    <contour>
      <point x="414.1" y="718.8888888888889" type="curve" smooth="yes"/>
      <point x="414.1" y="765.8016688888889"/>
      <point x="376.01278" y="803.8888888888889"/>
      <point x="329.1" y="803.8888888888889" type="curve" smooth="yes"/>
      <point x="282.18722" y="803.8888888888889"/>
      <point x="244.1" y="765.8016688888889"/>
      <point x="244.1" y="718.8888888888889" type="curve" smooth="yes"/>
      <point x="244.1" y="671.9761088888889"/>
      <point x="282.18722" y="633.8888888888889"/>
      <point x="329.1" y="633.8888888888889" type="curve" smooth="yes"/>
      <point x="376.01278" y="633.8888888888889"/>
      <point x="414.1" y="671.9761088888889"/>
    </contour>
    <contour>
      <point x="44.099998684587156" y="195.0" type="line"/>
      <point x="44.09999769464003" y="6.856195902035694"/>
      <point x="165.87249760758027" y="-4.999999999999996"/>
      <point x="204.1" y="-5.0" type="curve"/>
      <point x="204.0999984741211" y="605" type="line"/>
      <point x="165.8724960817014" y="605.0"/>
      <point x="44.10000077948106" y="593.1438040979643"/>
      <point x="44.099999789533946" y="405.0" type="curve"/>
    </contour>
    <contour>
      <point x="249.0999984741211" y="195" type="line"/>
      <point x="409.0999984741211" y="195" type="line"/>
      <point x="409.0999984741211" y="405.0" type="line"/>
      <point x="409.0999984741211" y="593.1438040979643"/>
      <point x="287.3275023924197" y="605.0"/>
      <point x="249.1" y="605.0" type="curve"/>
    </contour>
  </outline>
</glyph>
<glyph name="i_with_grave" format="2">
  <advance width="248.2"/>
  <unicode hex="00EC"/>
  <outline>
    <contour>
      <point x="-25.900000000000006" y="798.8888888888889" type="line"/>
      <point x="-25.900000000000006" y="710.582488888889"/>
      <point x="45.7936" y="638.8888888888889"/>
      <point x="134.1" y="638.8888888888889" type="curve"/>
      <point x="134.1" y="798.8888888888889" type="line"/>
    </contour>
    <contour>
      <point x="44.099998474121094" y="0" type="line"/>
      <point x="204.0999984741211" y="0" type="line"/>
      <point x="204.0999984741211" y="600" type="line"/>
      <point x="44.099998474121094" y="600" type="line"/>
    </contour>
  </outline>
</glyph>
<glyph name="eth" format="2">
  <advance width="453.2"/>
  <unicode hex="00F0"/>
  <outline>
    <contour>
      <point x="249.0999984741211" y="-5" type="line"/>
      <point x="287.3275008665408" y="-5.0"/>
      <point x="409.1000004613256" y="6.856195902035694"/>
      <point x="409.09999987543847" y="195.0" type="curve"/>
      <point x="409.09999859868265" y="605.0" type="line"/>
      <point x="409.0999980127956" y="793.1438040979643"/>
      <point x="287.3275023924197" y="805.0"/>
      <point x="249.1" y="805.0" type="curve"/>
    </contour>
    <contour>
      <point x="44.099998688279534" y="195.0" type="line"/>
      <point x="44.09999768096495" y="6.856195902035694"/>
      <point x="165.87249760758027" y="-4.999999999999996"/>
      <point x="204.1" y="-5.0" type="curve"/>
      <point x="204.0999984741211" y="600" type="line"/>
      <point x="165.8724960817014" y="600.0"/>
      <point x="44.10000079315616" y="588.1438040979643"/>
      <point x="44.099999785841554" y="400.0" type="curve"/>
    </contour>
  </outline>
</glyph>
<glyph name="n_with_smalltilde" format="2">
  <advance width="453.2"/>
  <unicode hex="00F1"/>
  <outline>
    <contour>
      <point x="186.5999984741211" y="638.8888863457574" type="line"/>
      <point x="374.7438025720854" y="638.8888823584704"/>
      <point x="386.6" y="760.6613864964692"/>
      <point x="386.6" y="798.8888888888889" type="curve"/>
      <point x="266.5999984741211" y="798.8888863457573" type="line"/>
      <point x="78.45619437615682" y="798.8888823584705"/>
      <point x="66.6" y="677.1163912813087"/>
      <point x="66.6" y="638.8888888888889" type="curve"/>
    </contour>
    <contour>
      <point x="44.099998474121094" y="0" type="line"/>
      <point x="204.0999984741211" y="0" type="line"/>
      <point x="204.0999984741211" y="600" type="line"/>
      <point x="44.099998474121094" y="600" type="line"/>
    </contour>
    <contour>
      <point x="249.0999984741211" y="0" type="line"/>
      <point x="409.0999984741211" y="0" type="line"/>
      <point x="409.0999984741211" y="400.0" type="line"/>
      <point x="409.0999984741211" y="588.1438040979643"/>
      <point x="287.3275023924197" y="600.0"/>
      <point x="249.1" y="600.0" type="curve"/>
    </contour>
  </outline>
</glyph>
<glyph name="o_with_grave" format="2">
  <advance width="453.2"/>
  <unicode hex="00F2"/>
  <outline>
    <contour>
      <point x="76.6" y="798.8888888888889" type="line"/>
      <point x="76.6" y="710.582488888889"/>
      <point x="148.2936" y="638.8888888888889"/>
      <point x="236.6" y="638.8888888888889" type="curve"/>
      <point x="236.6" y="798.8888888888889" type="line"/>
    </contour>
    <contour>
      <point x="44.099998684587156" y="195.0" type="line"/>
      <point x="44.09999769464003" y="6.856195902035694"/>
      <point x="165.87249760758027" y="-4.999999999999996"/>
      <point x="204.1" y="-5.0" type="curve"/>
      <point x="204.0999984741211" y="605" type="line"/>
      <point x="165.8724960817014" y="605.0"/>
      <point x="44.10000077948106" y="593.1438040979643"/>
      <point x="44.099999789533946" y="405.0" type="curve"/>
    </contour>
    <contour>
      <point x="249.0999984741211" y="-5" type="line"/>
      <point x="287.3275008665408" y="-5.0"/>
      <point x="409.1000007794811" y="6.856195902035694"/>
      <point x="409.09999978953397" y="195.0" type="curve"/>
      <point x="409.09999868458715" y="405.0" type="line"/>
      <point x="409.09999769464" y="593.1438040979643"/>
      <point x="287.3275023924197" y="605.0"/>
      <point x="249.1" y="605.0" type="curve"/>
    </contour>
  </outline>
</glyph>
<glyph name="o_with_stroke" format="2">
  <advance width="453.2"/>
  <unicode hex="00F8"/>
  <outline>
    <contour>
      <point x="249.0999984741211" y="-5" type="line"/>
      <point x="287.3275008665408" y="-5.0"/>
      <point x="409.1000007794811" y="6.856195902035694"/>
      <point x="409.09999978953397" y="195.0" type="curve"/>
      <point x="409.09999868458715" y="405.0" type="line"/>
      <point x="409.0999984334076" y="452.7377699344637"/>
      <point x="409.10000044069625" y="500.93264503494294"/>
      <point x="374.28470611572266" y="544.5842514038086" type="curve"/>
      <point x="419.2220412500419" y="572.9094975759239"/>
      <point x="449.09999999999997" y="622.9930970288"/>
      <point x="449.1" y="680.0000000000001" type="curve"/>
      <point x="289.0999984741211" y="680" type="line"/>
      <point x="289.0999984741211" y="599.9473876953125" type="line"/>
      <point x="276.31347705202967" y="603.2466196647051"/>
      <point x="262.9098846704" y="605.0"/>
      <point x="249.10000000000002" y="605.0" type="curve"/>
    </contour>
    <contour>
      <point x="44.099998684587156" y="195.0" type="line"/>
      <point x="44.0999984334075" y="147.2622022802518"/>
      <point x="44.100000874743266" y="99.06734988408907"/>
      <point x="78.91529846191406" y="55.415748596191406" type="curve"/>
      <point x="33.97795874995807" y="27.090502424076142"/>
      <point x="4.099999999999998" y="-22.99309702880001"/>
      <point x="4.1000000000000085" y="-80.00000000000001" type="curve"/>
      <point x="164.0999984741211" y="-80" type="line"/>
      <point x="164.0999984741211" y="0.0526123046875" type="line"/>
      <point x="176.88652294797035" y="-3.2466196647051753"/>
      <point x="190.2901153296" y="-5.000000000000002"/>
      <point x="204.10000000000002" y="-5.000000000000002" type="curve"/>
      <point x="204.0999984741211" y="605" type="line"/>
      <point x="165.8724960817014" y="605.0"/>
      <point x="44.10000077948106" y="593.1438040979643"/>
      <point x="44.099999789533946" y="405.0" type="curve"/>
    </contour>
  </outline>
</glyph>
<glyph name="y_with_diaeresis" format="2">
  <advance width="453.2"/>
  <unicode hex="00FF"/>
  <outline>
    <contour>
      <point x="209.1" y="718.8888888888889" type="curve" smooth="yes"/>
      <point x="209.1" y="765.8016688888889"/>
      <point x="171.01278" y="803.8888888888889"/>
      <point x="124.1" y="803.8888888888889" type="curve" smooth="yes"/>
      <point x="77.18722" y="803.8888888888889"/>
      <point x="39.099999999999994" y="765.8016688888889"/>
      <point x="39.099999999999994" y="718.8888888888889" type="curve" smooth="yes"/>
      <point x="39.099999999999994" y="671.9761088888889"/>
      <point x="77.18722" y="633.8888888888889"/>
      <point x="124.1" y="633.8888888888889" type="curve" smooth="yes"/>
      <point x="171.01278" y="633.8888888888889"/>
      <point x="209.1" y="671.9761088888889"/>
    </contour>
    <contour>
      <point x="414.1" y="718.8888888888889" type="curve" smooth="yes"/>
      <point x="414.1" y="765.8016688888889"/>
      <point x="376.01278" y="803.8888888888889"/>
      <point x="329.1" y="803.8888888888889" type="curve" smooth="yes"/>
      <point x="282.18722" y="803.8888888888889"/>
      <point x="244.1" y="765.8016688888889"/>
      <point x="244.1" y="718.8888888888889" type="curve" smooth="yes"/>
      <point x="244.1" y="671.9761088888889"/>
      <point x="282.18722" y="633.8888888888889"/>
      <point x="329.1" y="633.8888888888889" type="curve" smooth="yes"/>
      <point x="376.01278" y="633.8888888888889"/>
      <point x="414.1" y="671.9761088888889"/>
    </contour>
    <contour>
      <point x="44.09999861127874" y="200.0" type="line"/>
      <point x="44.099997966144684" y="11.856195902035694"/>
      <point x="165.87249760758027" y="4.681518844427462e-15"/>
      <point x="204.1" y="0.0" type="curve"/>
      <point x="204.09999861127875" y="405.0" type="line"/>
      <point x="204.09999796614468" y="593.1438040979643"/>
      <point x="82.32750239241975" y="605.0"/>
      <point x="44.1" y="605.0" type="curve"/>
    </contour>
    <contour>
      <point x="249.0999984741211" y="-210" type="line"/>
      <point x="287.3275008665408" y="-210.0"/>
      <point x="409.1000003477685" y="-198.1438040979643"/>
      <point x="409.09999990609975" y="-10.0" type="curve"/>
      <point x="409.0999984741211" y="600" type="line"/>
      <point x="249.0999984741211" y="600" type="line"/>
    </contour>
    <contour>
      <point x="209.1" y="-130.0" type="curve" smooth="yes"/>
      <point x="209.1" y="-85.8468"/>
      <point x="173.2532" y="-50.0"/>
      <point x="129.1" y="-50.0" type="curve" smooth="yes"/>
      <point x="84.9468" y="-50.0"/>
      <point x="49.1" y="-85.8468"/>
      <point x="49.1" y="-130.0" type="curve" smooth="yes"/>
      <point x="49.1" y="-174.1532"/>
      <point x="84.9468" y="-210.0"/>
      <point x="129.1" y="-210.0" type="curve" smooth="yes"/>
      <point x="173.2532" y="-210.0"/>
      <point x="209.1" y="-174.1532"/>
    </contour>
  </outline>
</glyph>
<glyph name="A_with_breve" format="2">
  <advance width="453.2"/>
  <unicode hex="0102"/>
  <outline>
    <contour>
      <point x="66.5999984741211" y="998.8888854980469" type="line"/>
      <point x="66.6" y="910.582488888889"/>
      <point x="138.2936" y="838.8888888888889"/>
      <point x="226.6" y="838.8888888888889" type="curve"/>
      <point x="314.90639999999996" y="838.8888888888889"/>
      <point x="386.6" y="910.582488888889"/>
      <point x="386.6" y="998.8888888888889" type="curve"/>
    </contour>
    <contour>
      <point x="44.099998474121094" y="0" type="line"/>
      <point x="204.0999984741211" y="0" type="line"/>
      <point x="204.0999984741211" y="805" type="line"/>
      <point x="165.8724960817014" y="805.0"/>
      <point x="44.10000035046434" y="793.1438040979643"/>
      <point x="44.09999990537185" y="605.0" type="curve"/>
    </contour>
    <contour>
      <point x="249.0999984741211" y="0" type="line"/>
      <point x="409.0999984741211" y="0" type="line"/>
      <point x="409.0999984741211" y="605.0" type="line"/>
      <point x="409.0999984741211" y="793.1438040979643"/>
      <point x="287.3275023924197" y="805.0"/>
      <point x="249.1" y="805.0" type="curve"/>
    </contour>
  </outline>
</glyph>
<glyph name="A_with_ogonek" format="2">
  <advance width="453.2"/>
  <unicode hex="0104"/>
  <outline>
    <contour>
      <point x="44.099998474121094" y="0" type="line"/>
      <point x="204.0999984741211" y="0" type="line"/>
      <point x="204.0999984741211" y="805" type="line"/>
      <point x="165.8724960817014" y="805.0"/>
      <point x="44.10000035046434" y="793.1438040979643"/>
      <point x="44.09999990537185" y="605.0" type="curve"/>
    </contour>
    <contour>
      <point x="249.0999984741211" y="0" type="line"/>
      <point x="409.0999984741211" y="0" type="line"/>
      <point x="409.0999984741211" y="605.0" type="line"/>
      <point x="409.0999984741211" y="793.1438040979643"/>
      <point x="287.3275023924197" y="805.0"/>
      <point x="249.1" y="805.0" type="curve"/>
    </contour>
    <contour>
      <point x="409.1" y="-25.0" type="line"/>
      <point x="320.7936" y="-25.0"/>
      <point x="249.10000000000002" y="-96.6936"/>
      <point x="249.10000000000002" y="-185.0" type="curve"/>
      <point x="409.1" y="-185.0" type="line"/>
    </contour>
  </outline>
</glyph>
<glyph name="c_with_dotabove" format="2">
  <advance width="453.2"/>
  <unicode hex="010B"/>
  <outline>
    <contour>
      <point x="314.1" y="718.8888888888889" type="curve" smooth="yes"/>
      <point x="314.1" y="765.8016688888889"/>
      <point x="276.01278" y="803.8888888888889"/>
      <point x="229.1" y="803.8888888888889" type="curve" smooth="yes"/>
      <point x="182.18722" y="803.8888888888889"/>
      <point x="144.1" y="765.8016688888889"/>
      <point x="144.1" y="718.8888888888889" type="curve" smooth="yes"/>
      <point x="144.1" y="671.9761088888889"/>
      <point x="182.18722" y="633.8888888888889"/>
      <point x="229.1" y="633.8888888888889" type="curve" smooth="yes"/>
      <point x="276.01278" y="633.8888888888889"/>
      <point x="314.1" y="671.9761088888889"/>
    </contour>
    <contour>
      <point x="44.099998688279534" y="200.0" type="line"/>
      <point x="44.09999768096495" y="11.856195902035694"/>
      <point x="165.87249760758027" y="4.681518844427462e-15"/>
      <point x="204.1" y="0.0" type="curve"/>
      <point x="204.0999984741211" y="605" type="line"/>
      <point x="165.8724960817014" y="605.0"/>
      <point x="44.10000079315616" y="593.1438040979643"/>
      <point x="44.099999785841554" y="405.0" type="curve"/>
    </contour>
    <contour>
      <point x="414.1" y="520.0" type="curve" smooth="yes"/>
      <point x="414.1" y="566.91278"/>
      <point x="376.01278" y="605.0"/>
      <point x="329.1" y="605.0" type="curve" smooth="yes"/>
      <point x="282.18722" y="605.0"/>
      <point x="244.1" y="566.91278"/>
      <point x="244.1" y="520.0" type="curve" smooth="yes"/>
      <point x="244.1" y="473.08722"/>
      <point x="282.18722" y="435.0"/>
      <point x="329.1" y="435.0" type="curve" smooth="yes"/>
      <point x="376.01278" y="435.0"/>
      <point x="414.1" y="473.08722"/>
    </contour>
    <contour>
      <point x="406.6" y="160.0" type="line"/>
      <point x="318.2936" y="160.0"/>
      <point x="246.6" y="88.3064"/>
      <point x="246.6" y="0.0" type="curve"/>
      <point x="406.6" y="0.0" type="line"/>
    </contour>
  </outline>
</glyph>
<glyph name="c_with_caron" format="2">
  <advance width="453.2"/>
  <unicode hex="010D"/>
  <outline>
    <contour>
      <point x="224.1" y="638.8888888888889" type="line"/>
      <point x="224.1" y="727.1952888888889"/>
      <point x="152.4064" y="798.8888888888889"/>
      <point x="64.1" y="798.8888888888889" type="curve"/>
      <point x="64.1" y="638.8888888888889" type="line"/>
    </contour>
    <contour>
      <point x="394.1" y="798.8888888888889" type="line"/>
      <point x="305.79359999999997" y="798.8888888888889"/>
      <point x="234.1" y="727.1952888888889"/>
      <point x="234.1" y="638.8888888888889" type="curve"/>
      <point x="394.1" y="638.8888888888889" type="line"/>
    </contour>
    <contour>
      <point x="44.099998688279534" y="200.0" type="line"/>
      <point x="44.09999768096495" y="11.856195902035694"/>
      <point x="165.87249760758027" y="4.681518844427462e-15"/>
      <point x="204.1" y="0.0" type="curve"/>
      <point x="204.0999984741211" y="605" type="line"/>
      <point x="165.8724960817014" y="605.0"/>
      <point x="44.10000079315616" y="593.1438040979643"/>
      <point x="44.099999785841554" y="405.0" type="curve"/>
    </contour>
    <contour>
      <point x="414.1" y="520.0" type="curve" smooth="yes"/>
      <point x="414.1" y="566.91278"/>
      <point x="376.01278" y="605.0"/>
      <point x="329.1" y="605.0" type="curve" smooth="yes"/>
      <point x="282.18722" y="605.0"/>
      <point x="244.1" y="566.91278"/>
      <point x="244.1" y="520.0" type="curve" smooth="yes"/>
      <point x="244.1" y="473.08722"/>
      <point x="282.18722" y="435.0"/>
      <point x="329.1" y="435.0" type="curve" smooth="yes"/>
      <point x="376.01278" y="435.0"/>
      <point x="414.1" y="473.08722"/>
    </contour>
    <contour>
      <point x="406.6" y="160.0" type="line"/>
      <point x="318.2936" y="160.0"/>
      <point x="246.6" y="88.3064"/>
      <point x="246.6" y="0.0" type="curve"/>
      <point x="406.6" y="0.0" type="line"/>
    </contour>
  </outline>
</glyph>
<glyph name="E_with_macron" format="2">
  <advance width="453.2"/>
  <unicode hex="0112"/>
  <outline>
    <contour>
      <point x="66.5999984741211" y="838.8888854980469" type="line"/>
      <point x="386.5999984741211" y="838.8888854980469" type="line"/>
      <point x="386.5999984741211" y="998.8888854980469" type="line"/>
      <point x="66.5999984741211" y="998.8888854980469" type="line"/>
    </contour>
    <contour>
      <point x="44.099998474121094" y="0" type="line"/>
      <point x="204.0999984741211" y="0" type="line"/>
      <point x="204.0999984741211" y="800" type="line"/>
      <point x="44.099998474121094" y="800" type="line"/>
    </contour>
    <contour>
      <point x="249.1" y="800.0" type="line"/>
      <point x="249.1" y="711.6936"/>
      <point x="320.7936" y="640.0"/>
      <point x="409.1" y="640.0" type="curve"/>
      <point x="409.1" y="800.0" type="line"/>
    </contour>
    <contour>
      <point x="249.1" y="480.0" type="line"/>
      <point x="249.1" y="391.6936"/>
      <point x="320.7936" y="320.0"/>
      <point x="409.1" y="320.0" type="curve"/>
      <point x="409.1" y="480.0" type="line"/>
    </contour>
    <contour>
      <point x="409.1" y="160.0" type="line"/>
      <point x="320.7936" y="160.0"/>
      <point x="249.1" y="88.3064"/>
      <point x="249.1" y="0.0" type="curve"/>
      <point x="409.1" y="0.0" type="line"/>
    </contour>
  </outline>
</glyph>
<glyph name="e_with_macron" format="2">
  <advance width="453.2"/>
  <unicode hex="0113"/>
  <outline>
    <contour>
      <point x="66.5999984741211" y="638.8888854980469" type="line"/>
      <point x="386.5999984741211" y="638.8888854980469" type="line"/>
      <point x="386.5999984741211" y="798.8888854980469" type="line"/>
      <point x="66.5999984741211" y="798.8888854980469" type="line"/>
    </contour>
    <contour>
      <point x="44.099998684587156" y="195.0" type="line"/>
      <point x="44.09999769464003" y="6.856195902035694"/>
      <point x="165.87249760758027" y="-4.999999999999996"/>
      <point x="204.1" y="-5.0" type="curve"/>
      <point x="204.0999984741211" y="605" type="line"/>
      <point x="165.8724960817014" y="605.0"/>
      <point x="44.10000077948106" y="593.1438040979643"/>
      <point x="44.099999789533946" y="405.0" type="curve"/>
    </contour>
    <contour>
      <point x="249.0999984741211" y="195" type="line"/>
      <point x="409.0999984741211" y="195" type="line"/>
      <point x="409.0999984741211" y="405.0" type="line"/>
      <point x="409.0999984741211" y="593.1438040979643"/>
      <point x="287.3275023924197" y="605.0"/>
      <point x="249.1" y="605.0" type="curve"/>
    </contour>
  </outline>
</glyph>
<glyph name="E_with_breve" format="2">
  <advance width="453.2"/>
  <unicode hex="0114"/>
  <outline>
    <contour>
      <point x="66.5999984741211" y="998.8888854980469" type="line"/>
      <point x="66.6" y="910.582488888889"/>
      <point x="138.2936" y="838.8888888888889"/>
      <point x="226.6" y="838.8888888888889" type="curve"/>
      <point x="314.90639999999996" y="838.8888888888889"/>
      <point x="386.6" y="910.582488888889"/>
      <point x="386.6" y="998.8888888888889" type="curve"/>
    </contour>
    <contour>
      <point x="44.099998474121094" y="0" type="line"/>
      <point x="204.0999984741211" y="0" type="line"/>
      <point x="204.0999984741211" y="800" type="line"/>
      <point x="44.099998474121094" y="800" type="line"/>
    </contour>
    <contour>
      <point x="249.1" y="800.0" type="line"/>
      <point x="249.1" y="711.6936"/>
      <point x="320.7936" y="640.0"/>
      <point x="409.1" y="640.0" type="curve"/>
      <point x="409.1" y="800.0" type="line"/>
    </contour>
    <contour>
      <point x="249.1" y="480.0" type="line"/>
      <point x="249.1" y="391.6936"/>
      <point x="320.7936" y="320.0"/>
      <point x="409.1" y="320.0" type="curve"/>
      <point x="409.1" y="480.0" type="line"/>
    </contour>
    <contour>
      <point x="409.1" y="160.0" type="line"/>
      <point x="320.7936" y="160.0"/>
      <point x="249.1" y="88.3064"/>
      <point x="249.1" y="0.0" type="curve"/>
      <point x="409.1" y="0.0" type="line"/>
    </contour>
  </outline>
</glyph>
<glyph name="E_with_dotabove" format="2">
  <advance width="453.2"/>
  <unicode hex="0116"/>
  <outline>
    <contour>
      <point x="311.6" y="918.8888888888889" type="curve" smooth="yes"/>
      <point x="311.6" y="965.8016688888889"/>
      <point x="273.51278" y="1003.8888888888889"/>
      <point x="226.6" y="1003.8888888888889" type="curve" smooth="yes"/>
      <point x="179.68722" y="1003.8888888888889"/>
      <point x="141.6" y="965.8016688888889"/>
      <point x="141.6" y="918.8888888888889" type="curve" smooth="yes"/>
      <point x="141.6" y="871.9761088888889"/>
      <point x="179.68722" y="833.8888888888889"/>
      <point x="226.6" y="833.8888888888889" type="curve" smooth="yes"/>
      <point x="273.51278" y="833.8888888888889"/>
      <point x="311.6" y="871.9761088888889"/>
    </contour>
    <contour>
      <point x="44.099998474121094" y="0" type="line"/>
      <point x="204.0999984741211" y="0" type="line"/>
      <point x="204.0999984741211" y="800" type="line"/>
      <point x="44.099998474121094" y="800" type="line"/>
    </contour>
    <contour>
      <point x="249.1" y="800.0" type="line"/>
      <point x="249.1" y="711.6936"/>
      <point x="320.7936" y="640.0"/>
      <point x="409.1" y="640.0" type="curve"/>
      <point x="409.1" y="800.0" type="line"/>
    </contour>
    <contour>
      <point x="249.1" y="480.0" type="line"/>
      <point x="249.1" y="391.6936"/>
      <point x="320.7936" y="320.0"/>
      <point x="409.1" y="320.0" type="curve"/>
      <point x="409.1" y="480.0" type="line"/>
    </contour>
    <contour>
      <point x="409.1" y="160.0" type="line"/>
      <point x="320.7936" y="160.0"/>
      <point x="249.1" y="88.3064"/>
      <point x="249.1" y="0.0" type="curve"/>
      <point x="409.1" y="0.0" type="line"/>
    </contour>
  </outline>
</glyph>
<glyph name="e_with_dotabove" format="2">
  <advance width="453.2"/>
  <unicode hex="0117"/>
  <outline>
    <contour>
      <point x="311.6" y="718.8888888888889" type="curve" smooth="yes"/>
      <point x="311.6" y="765.8016688888889"/>
      <point x="273.51278" y="803.8888888888889"/>
      <point x="226.6" y="803.8888888888889" type="curve" smooth="yes"/>
      <point x="179.68722" y="803.8888888888889"/>
      <point x="141.6" y="765.8016688888889"/>
      <point x="141.6" y="718.8888888888889" type="curve" smooth="yes"/>
      <point x="141.6" y="671.9761088888889"/>
      <point x="179.68722" y="633.8888888888889"/>
      <point x="226.6" y="633.8888888888889" type="curve" smooth="yes"/>
      <point x="273.51278" y="633.8888888888889"/>
      <point x="311.6" y="671.9761088888889"/>
    </contour>
    <contour>
      <point x="44.099998684587156" y="195.0" type="line"/>
      <point x="44.09999769464003" y="6.856195902035694"/>
      <point x="165.87249760758027" y="-4.999999999999996"/>
      <point x="204.1" y="-5.0" type="curve"/>
      <point x="204.0999984741211" y="605" type="line"/>
      <point x="165.8724960817014" y="605.0"/>
      <point x="44.10000077948106" y="593.1438040979643"/>
      <point x="44.099999789533946" y="405.0" type="curve"/>
    </contour>
    <contour>
      <point x="249.0999984741211" y="195" type="line"/>
      <point x="409.0999984741211" y="195" type="line"/>
      <point x="409.0999984741211" y="405.0" type="line"/>
      <point x="409.0999984741211" y="593.1438040979643"/>
      <point x="287.3275023924197" y="605.0"/>
      <point x="249.1" y="605.0" type="curve"/>
    </contour>
  </outline>
</glyph>
<glyph name="E_with_caron" format="2">
  <advance width="453.2"/>
  <unicode hex="011A"/>
  <outline>
    <contour>
      <point x="221.6" y="838.8888888888889" type="line"/>
      <point x="221.6" y="927.1952888888889"/>
      <point x="149.9064" y="998.8888888888889"/>
      <point x="61.599999999999994" y="998.8888888888889" type="curve"/>
      <point x="61.599999999999994" y="838.8888888888889" type="line"/>
    </contour>
    <contour>
      <point x="391.6" y="998.8888888888889" type="line"/>
      <point x="303.29359999999997" y="998.8888888888889"/>
      <point x="231.6" y="927.1952888888889"/>
      <point x="231.6" y="838.8888888888889" type="curve"/>
      <point x="391.6" y="838.8888888888889" type="line"/>
    </contour>
    <contour>
      <point x="44.099998474121094" y="0" type="line"/>
      <point x="204.0999984741211" y="0" type="line"/>
      <point x="204.0999984741211" y="800" type="line"/>
      <point x="44.099998474121094" y="800" type="line"/>
    </contour>
    <contour>
      <point x="249.1" y="800.0" type="line"/>
      <point x="249.1" y="711.6936"/>
      <point x="320.7936" y="640.0"/>
      <point x="409.1" y="640.0" type="curve"/>
      <point x="409.1" y="800.0" type="line"/>
    </contour>
    <contour>
      <point x="249.1" y="480.0" type="line"/>
      <point x="249.1" y="391.6936"/>
      <point x="320.7936" y="320.0"/>
      <point x="409.1" y="320.0" type="curve"/>
      <point x="409.1" y="480.0" type="line"/>
    </contour>
    <contour>
      <point x="409.1" y="160.0" type="line"/>
      <point x="320.7936" y="160.0"/>
      <point x="249.1" y="88.3064"/>
      <point x="249.1" y="0.0" type="curve"/>
      <point x="409.1" y="0.0" type="line"/>
    </contour>
  </outline>
</glyph>
<glyph name="G_with_circumflex" format="2">
  <advance width="453.2"/>
  <unicode hex="011C"/>
  <outline>
    <contour>
      <point x="61.599999999999994" y="838.8888888888889" type="line"/>
      <point x="149.9064" y="838.8888888888889"/>
      <point x="221.6" y="910.582488888889"/>
      <point x="221.6" y="998.8888888888889" type="curve"/>
      <point x="61.599999999999994" y="998.8888888888889" type="line"/>
    </contour>
    <contour>
      <point x="231.6" y="998.8888888888889" type="line"/>
      <point x="231.6" y="910.582488888889"/>
      <point x="303.29359999999997" y="838.8888888888889"/>
      <point x="391.6" y="838.8888888888889" type="curve"/>
      <point x="391.6" y="998.8888888888889" type="line"/>
    </contour>
    <contour>
      <point x="44.09999860127767" y="200.0" type="line"/>
      <point x="44.09999800318462" y="11.856195902035694"/>
      <point x="165.87249760758027" y="4.681518844427462e-15"/>
      <point x="204.1" y="0.0" type="curve"/>
      <point x="204.0999984741211" y="800" type="line"/>
      <point x="165.8724960817014" y="800.0"/>
      <point x="44.10000047093646" y="788.1438040979643"/>
      <point x="44.099999872843426" y="600.0" type="curve"/>
    </contour>
    <contour>
      <point x="249.1" y="800.0" type="line"/>
      <point x="249.1" y="711.6936"/>
      <point x="320.7936" y="640.0"/>
      <point x="409.1" y="640.0" type="curve"/>
      <point x="409.1" y="800.0" type="line"/>
    </contour>
    <contour>
      <point x="249.0999984741211" y="200.0" type="line"/>
      <point x="249.0999984741211" y="11.856195902035694"/>
      <point x="370.87249760758027" y="4.681518844427462e-15"/>
      <point x="409.1" y="0.0" type="curve"/>
      <point x="409.0999984741211" y="400" type="line"/>
      <point x="249.0999984741211" y="400" type="line"/>
    </contour>
  </outline>
</glyph>
<glyph name="I_with_smalltilde" format="2">
  <advance width="248.2"/>
  <unicode hex="0128"/>
  <outline>
    <contour>
      <point x="84.0999984741211" y="838.8888863457574" type="line"/>
      <point x="272.2438025720854" y="838.8888823584704"/>
      <point x="284.1" y="960.6613864964692"/>
      <point x="284.1" y="998.8888888888889" type="curve"/>
      <point x="164.0999984741211" y="998.8888863457573" type="line"/>
      <point x="-24.043805623843184" y="998.8888823584705"/>
      <point x="-35.900000000000006" y="877.1163912813087"/>
      <point x="-35.900000000000006" y="838.8888888888889" type="curve"/>
    </contour>
    <contour>
      <point x="44.099998474121094" y="0" type="line"/>
      <point x="204.0999984741211" y="0" type="line"/>
      <point x="204.0999984741211" y="800" type="line"/>
      <point x="44.099998474121094" y="800" type="line"/>
    </contour>
  </outline>
</glyph>
<glyph name="i_with_smalltilde" format="2">
  <advance width="248.2"/>
  <unicode hex="0129"/>
  <outline>
    <contour>
      <point x="84.0999984741211" y="638.8888863457574" type="line"/>
      <point x="272.2438025720854" y="638.8888823584704"/>
      <point x="284.1" y="760.6613864964692"/>
      <point x="284.1" y="798.8888888888889" type="curve"/>
      <point x="164.0999984741211" y="798.8888863457573" type="line"/>
      <point x="-24.043805623843184" y="798.8888823584705"/>
      <point x="-35.900000000000006" y="677.1163912813087"/>
      <point x="-35.900000000000006" y="638.8888888888889" type="curve"/>
    </contour>
    <contour>
      <point x="44.099998474121094" y="0" type="line"/>
      <point x="204.0999984741211" y="0" type="line"/>
      <point x="204.0999984741211" y="600" type="line"/>
      <point x="44.099998474121094" y="600" type="line"/>
    </contour>
  </outline>
</glyph>
<glyph name="I_with_breve" format="2">
  <advance width="248.2"/>
  <unicode hex="012C"/>
  <outline>
    <contour>
      <point x="-35.900001525878906" y="998.8888854980469" type="line"/>
      <point x="-35.900000000000006" y="910.582488888889"/>
      <point x="35.7936" y="838.8888888888889"/>
      <point x="124.1" y="838.8888888888889" type="curve"/>
      <point x="212.4064" y="838.8888888888889"/>
      <point x="284.1" y="910.582488888889"/>
      <point x="284.1" y="998.8888888888889" type="curve"/>
    </contour>
    <contour>
      <point x="44.099998474121094" y="0" type="line"/>
      <point x="204.0999984741211" y="0" type="line"/>
      <point x="204.0999984741211" y="800" type="line"/>
      <point x="44.099998474121094" y="800" type="line"/>
    </contour>
  </outline>
</glyph>
<glyph name="i_with_breve" format="2">
  <advance width="248.2"/>
  <unicode hex="012D"/>
  <outline>
    <contour>
      <point x="-35.900001525878906" y="798.8888854980469" type="line"/>
      <point x="-35.900000000000006" y="710.582488888889"/>
      <point x="35.7936" y="638.8888888888889"/>
      <point x="124.1" y="638.8888888888889" type="curve"/>
      <point x="212.4064" y="638.8888888888889"/>
      <point x="284.1" y="710.582488888889"/>
      <point x="284.1" y="798.8888888888889" type="curve"/>
    </contour>
    <contour>
      <point x="44.099998474121094" y="0" type="line"/>
      <point x="204.0999984741211" y="0" type="line"/>
      <point x="204.0999984741211" y="600" type="line"/>
      <point x="44.099998474121094" y="600" type="line"/>
    </contour>
  </outline>
</glyph>
<glyph name="I_with_ogonek" format="2">
  <advance width="248.2"/>
  <unicode hex="012E"/>
  <outline>
    <contour>
      <point x="44.099998474121094" y="0" type="line"/>
      <point x="204.0999984741211" y="0" type="line"/>
      <point x="204.0999984741211" y="800" type="line"/>
      <point x="44.099998474121094" y="800" type="line"/>
    </contour>
    <contour>
      <point x="204.1" y="-25.0" type="line"/>
      <point x="115.7936" y="-25.0"/>
      <point x="44.099999999999994" y="-96.6936"/>
      <point x="44.099999999999994" y="-185.0" type="curve"/>
      <point x="204.1" y="-185.0" type="line"/>
    </contour>
  </outline>
</glyph>
<glyph name="ij" format="2">
  <advance width="453.2"/>
  <unicode hex="0133"/>
  <outline>
    <contour>
      <point x="199.1" y="718.88889" type="curve" smooth="yes"/>
      <point x="199.1" y="765.80167"/>
      <point x="161.01278" y="803.88889"/>
      <point x="114.1" y="803.88889" type="curve" smooth="yes"/>
      <point x="67.18722" y="803.88889"/>
      <point x="29.1" y="765.80167"/>
      <point x="29.1" y="718.88889" type="curve" smooth="yes"/>
      <point x="29.1" y="671.97611"/>
      <point x="67.18722" y="633.88889"/>
      <point x="114.1" y="633.88889" type="curve" smooth="yes"/>
      <point x="161.01278" y="633.88889"/>
      <point x="199.1" y="671.97611"/>
    </contour>
    <contour>
      <point x="414.1" y="718.88889" type="curve" smooth="yes"/>
      <point x="414.1" y="765.80167"/>
      <point x="376.01278" y="803.88889"/>
      <point x="329.1" y="803.88889" type="curve" smooth="yes"/>
      <point x="282.18722" y="803.88889"/>
      <point x="244.1" y="765.80167"/>
      <point x="244.1" y="718.88889" type="curve" smooth="yes"/>
      <point x="244.1" y="671.97611"/>
      <point x="282.18722" y="633.88889"/>
      <point x="329.1" y="633.88889" type="curve" smooth="yes"/>
      <point x="376.01278" y="633.88889"/>
      <point x="414.1" y="671.97611"/>
    </contour>
    <contour>
      <point x="34.099998474121094" y="16.666671752929688" type="line"/>
      <point x="194.0999984741211" y="16.666671752929688" type="line"/>
      <point x="194.0999984741211" y="600" type="line"/>
      <point x="34.099998474121094" y="600" type="line"/>
    </contour>
    <contour>
      <point x="249.0999984741211" y="-210" type="line"/>
      <point x="287.3275008665408" y="-210.0"/>
      <point x="409.1000003477685" y="-198.1438040979643"/>
      <point x="409.09999990609975" y="-10.0" type="curve"/>
      <point x="409.0999984741211" y="600" type="line"/>
      <point x="249.0999984741211" y="600" type="line"/>
    </contour>
    <contour>
      <point x="209.1" y="-130.0" type="curve" smooth="yes"/>
      <point x="209.1" y="-85.8468"/>
      <point x="173.2532" y="-50.0"/>
      <point x="129.1" y="-50.0" type="curve" smooth="yes"/>
      <point x="84.9468" y="-50.0"/>
      <point x="49.1" y="-85.8468"/>
      <point x="49.1" y="-130.0" type="curve" smooth="yes"/>
      <point x="49.1" y="-174.1532"/>
      <point x="84.9468" y="-210.0"/>
      <point x="129.1" y="-210.0" type="curve" smooth="yes"/>
      <point x="173.2532" y="-210.0"/>
      <point x="209.1" y="-174.1532"/>
    </contour>
  </outline>
</glyph>
<glyph name="J_with_circumflex" format="2">
  <advance width="453.2"/>
  <unicode hex="0134"/>
  <outline>
    <contour>
      <point x="159.1" y="838.8888888888889" type="line"/>
      <point x="247.4064" y="838.8888888888889"/>
      <point x="319.1" y="910.582488888889"/>
      <point x="319.1" y="998.8888888888889" type="curve"/>
      <point x="159.1" y="998.8888888888889" type="line"/>
    </contour>
    <contour>
      <point x="329.1" y="998.8888888888889" type="line"/>
      <point x="329.1" y="910.582488888889"/>
      <point x="400.79359999999997" y="838.8888888888889"/>
      <point x="489.1" y="838.8888888888889" type="curve"/>
      <point x="489.1" y="998.8888888888889" type="line"/>
    </contour>
    <contour>
      <point x="249.0999984741211" y="-5" type="line"/>
      <point x="287.3275008665408" y="-5.0"/>
      <point x="409.10000035046437" y="6.856195902035694"/>
      <point x="409.0999999053719" y="195.0" type="curve"/>
      <point x="409.0999984741211" y="800" type="line"/>
      <point x="249.0999984741211" y="800" type="line"/>
    </contour>
    <contour>
      <point x="209.1" y="75.0" type="curve" smooth="yes"/>
      <point x="209.1" y="121.91278"/>
      <point x="171.01278" y="160.0"/>
      <point x="124.1" y="160.0" type="curve" smooth="yes"/>
      <point x="77.18722" y="160.0"/>
      <point x="39.1" y="121.91278"/>
      <point x="39.1" y="75.0" type="curve" smooth="yes"/>
      <point x="39.1" y="28.08722"/>
      <point x="77.18722" y="-10.0"/>
      <point x="124.1" y="-10.0" type="curve" smooth="yes"/>
      <point x="171.01278" y="-10.0"/>
      <point x="209.1" y="28.08722"/>
    </contour>
  </outline>
</glyph>
<glyph name="K_with_cedilla" format="2">
  <advance width="453.2"/>
  <unicode hex="0136"/>
  <outline>
    <contour>
      <point x="44.099998474121094" y="0" type="line"/>
      <point x="204.0999984741211" y="0" type="line"/>
      <point x="204.0999984741211" y="800" type="line"/>
      <point x="44.099998474121094" y="800" type="line"/>
    </contour>
    <contour>
      <point x="249.0999984741211" y="400" type="line"/>
      <point x="287.3275008665408" y="400.0"/>
      <point x="409.10000094187296" y="411.85619590203567"/>
      <point x="409.0999997456869" y="600.0" type="curve"/>
      <point x="409.0999984741211" y="800" type="line"/>
      <point x="249.0999984741211" y="800" type="line"/>
    </contour>
    <contour>
      <point x="249.0999984741211" y="0" type="line"/>
      <point x="409.0999984741211" y="0" type="line"/>
      <point x="409.0999984741211" y="200.0" type="line"/>
      <point x="409.0999984741211" y="388.14380409796433"/>
      <point x="287.3275023924197" y="400.0"/>
      <point x="249.1" y="400.0" type="curve"/>
    </contour>
    <contour>
      <point x="376.6" y="-185.0" type="line"/>
      <point x="376.6" y="-96.6936"/>
      <point x="304.90639999999996" y="-25.0"/>
      <point x="216.6" y="-25.0" type="curve"/>
      <point x="216.6" y="-185.0" type="line"/>
    </contour>
  </outline>
</glyph>
<glyph name="k_with_cedilla" format="2">
  <advance width="453.2"/>
  <unicode hex="0137"/>
  <outline>
    <contour>
      <point x="44.099998474121094" y="0" type="line"/>
      <point x="204.0999984741211" y="0" type="line"/>
      <point x="204.0999984741211" y="800" type="line"/>
      <point x="44.099998474121094" y="800" type="line"/>
    </contour>
    <contour>
      <point x="249.0999984741211" y="300" type="line"/>
      <point x="287.3275008665408" y="300.0"/>
      <point x="409.1000016146394" y="311.8561959020357"/>
      <point x="409.0999995640346" y="500.0" type="curve"/>
      <point x="409.0999984741211" y="600" type="line"/>
      <point x="249.0999984741211" y="600" type="line"/>
    </contour>
    <contour>
      <point x="249.0999984741211" y="0" type="line"/>
      <point x="409.0999984741211" y="0" type="line"/>
      <point x="409.0999984741211" y="100.0" type="line"/>
      <point x="409.0999984741211" y="288.14380409796433"/>
      <point x="287.3275023924197" y="300.0"/>
      <point x="249.1" y="300.0" type="curve"/>
    </contour>
    <contour>
      <point x="376.6" y="-185.0" type="line"/>
      <point x="376.6" y="-96.6936"/>
      <point x="304.90639999999996" y="-25.0"/>
      <point x="216.6" y="-25.0" type="curve"/>
      <point x="216.6" y="-185.0" type="line"/>
    </contour>
  </outline>
</glyph>
<glyph name="l_with_cedilla" format="2">
  <advance width="248.2"/>
  <unicode hex="013C"/>
  <outline>
    <contour>
      <point x="44.099998474121094" y="195.0" type="line"/>
      <point x="44.09999847412111" y="6.856195902035694"/>
      <point x="165.87249760758027" y="-4.999999999999996"/>
      <point x="204.1" y="-5.0" type="curve"/>
      <point x="204.0999984741211" y="800" type="line"/>
      <point x="44.099998474121094" y="800" type="line"/>
    </contour>
    <contour>
      <point x="274.1" y="-190.0" type="line"/>
      <point x="274.1" y="-101.6936"/>
      <point x="202.4064" y="-30.0"/>
      <point x="114.1" y="-30.0" type="curve"/>
      <point x="114.1" y="-190.0" type="line"/>
    </contour>
  </outline>
</glyph>
<glyph name="L_with_stroke" format="2">
  <advance width="473.2"/>
  <unicode hex="0141"/>
  <outline>
    <contour>
      <point x="64.0999984741211" y="0" type="line"/>
      <point x="224.0999984741211" y="0" type="line"/>
      <point x="224.0999984741211" y="451.6703414916992" type="line"/>
      <point x="282.714074337405" y="475.40357968584993"/>
      <point x="324.1000000000001" y="532.9068283272"/>
      <point x="324.1" y="600.0" type="curve"/>
      <point x="224.0999984741211" y="600" type="line"/>
      <point x="224.0999984741211" y="800" type="line"/>
      <point x="64.0999984741211" y="800" type="line"/>
      <point x="64.0999984741211" y="488.3296585083008" type="line"/>
      <point x="5.4859256625950295" y="464.59642031415007"/>
      <point x="-35.900000000000006" y="407.0931716728"/>
      <point x="-35.9" y="340.0" type="curve"/>
      <point x="64.0999984741211" y="340" type="line"/>
    </contour>
    <contour>
      <point x="429.1" y="160.0" type="line"/>
      <point x="340.7936" y="160.0"/>
      <point x="269.1" y="88.3064"/>
      <point x="269.1" y="0.0" type="curve"/>
      <point x="429.1" y="0.0" type="line"/>
    </contour>
  </outline>
</glyph>
<glyph name="l_with_stroke" format="2">
  <advance width="288.2"/>
  <unicode hex="0142"/>
  <outline>
    <contour>
      <point x="64.0999984741211" y="195.0" type="line"/>
      <point x="64.09999847412111" y="6.856195902035694"/>
      <point x="185.87249760758027" y="-4.999999999999996"/>
      <point x="224.1" y="-5.0" type="curve"/>
      <point x="224.0999984741211" y="451.6703414916992" type="line"/>
      <point x="282.714074337405" y="475.40357968584993"/>
      <point x="324.1000000000001" y="532.9068283272"/>
      <point x="324.1" y="600.0" type="curve"/>
      <point x="224.0999984741211" y="600" type="line"/>
      <point x="224.0999984741211" y="800" type="line"/>
      <point x="64.0999984741211" y="800" type="line"/>
      <point x="64.0999984741211" y="488.3296585083008" type="line"/>
      <point x="5.4859256625950295" y="464.59642031415007"/>
      <point x="-35.900000000000006" y="407.0931716728"/>
      <point x="-35.9" y="340.0" type="curve"/>
      <point x="64.0999984741211" y="340" type="line"/>
    </contour>
  </outline>
</glyph>
<glyph name="N_with_acute" format="2">
  <advance width="453.2"/>
  <unicode hex="0143"/>
  <outline>
    <contour>
      <point x="216.6" y="838.8888888888889" type="line"/>
      <point x="304.90639999999996" y="838.8888888888889"/>
      <point x="376.6" y="910.582488888889"/>
      <point x="376.6" y="998.8888888888889" type="curve"/>
      <point x="216.6" y="998.8888888888889" type="line"/>
    </contour>
    <contour>
      <point x="44.099998474121094" y="0" type="line"/>
      <point x="204.0999984741211" y="0" type="line"/>
      <point x="204.0999984741211" y="800" type="line"/>
      <point x="44.099998474121094" y="800" type="line"/>
    </contour>
    <contour>
      <point x="249.0999984741211" y="0" type="line"/>
      <point x="409.0999984741211" y="0" type="line"/>
      <point x="409.0999984741211" y="600.0" type="line"/>
      <point x="409.0999984741211" y="788.1438040979643"/>
      <point x="287.3275023924197" y="800.0"/>
      <point x="249.1" y="800.0" type="curve"/>
    </contour>
  </outline>
</glyph>
<glyph name="n_with_acute" format="2">
  <advance width="453.2"/>
  <unicode hex="0144"/>
  <outline>
    <contour>
      <point x="216.6" y="638.8888888888889" type="line"/>
      <point x="304.90639999999996" y="638.8888888888889"/>
      <point x="376.6" y="710.582488888889"/>
      <point x="376.6" y="798.8888888888889" type="curve"/>
      <point x="216.6" y="798.8888888888889" type="line"/>
    </contour>
    <contour>
      <point x="44.099998474121094" y="0" type="line"/>
      <point x="204.0999984741211" y="0" type="line"/>
      <point x="204.0999984741211" y="600" type="line"/>
      <point x="44.099998474121094" y="600" type="line"/>
    </contour>
    <contour>
      <point x="249.0999984741211" y="0" type="line"/>
      <point x="409.0999984741211" y="0" type="line"/>
      <point x="409.0999984741211" y="400.0" type="line"/>
      <point x="409.0999984741211" y="588.1438040979643"/>
      <point x="287.3275023924197" y="600.0"/>
      <point x="249.1" y="600.0" type="curve"/>
    </contour>
  </outline>
</glyph>
<glyph name="N_with_cedilla" format="2">
  <advance width="453.2"/>
  <unicode hex="0145"/>
  <outline>
    <contour>
      <point x="44.099998474121094" y="0" type="line"/>
      <point x="204.0999984741211" y="0" type="line"/>
      <point x="204.0999984741211" y="800" type="line"/>
      <point x="44.099998474121094" y="800" type="line"/>
    </contour>
    <contour>
      <point x="249.0999984741211" y="0" type="line"/>
      <point x="409.0999984741211" y="0" type="line"/>
      <point x="409.0999984741211" y="600.0" type="line"/>
      <point x="409.0999984741211" y="788.1438040979643"/>
      <point x="287.3275023924197" y="800.0"/>
      <point x="249.1" y="800.0" type="curve"/>
    </contour>
    <contour>
      <point x="376.6" y="-185.0" type="line"/>
      <point x="376.6" y="-96.6936"/>
      <point x="304.90639999999996" y="-25.0"/>
      <point x="216.6" y="-25.0" type="curve"/>
      <point x="216.6" y="-185.0" type="line"/>
    </contour>
  </outline>
</glyph>
<glyph name="N_with_caron" format="2">
  <advance width="453.2"/>
  <unicode hex="0147"/>
  <outline>
    <contour>
      <point x="221.6" y="838.8888888888889" type="line"/>
      <point x="221.6" y="927.1952888888889"/>
      <point x="149.9064" y="998.8888888888889"/>
      <point x="61.599999999999994" y="998.8888888888889" type="curve"/>
      <point x="61.599999999999994" y="838.8888888888889" type="line"/>
    </contour>
    <contour>
      <point x="391.6" y="998.8888888888889" type="line"/>
      <point x="303.29359999999997" y="998.8888888888889"/>
      <point x="231.6" y="927.1952888888889"/>
      <point x="231.6" y="838.8888888888889" type="curve"/>
      <point x="391.6" y="838.8888888888889" type="line"/>
    </contour>
    <contour>
      <point x="44.099998474121094" y="0" type="line"/>
      <point x="204.0999984741211" y="0" type="line"/>
      <point x="204.0999984741211" y="800" type="line"/>
      <point x="44.099998474121094" y="800" type="line"/>
    </contour>
    <contour>
      <point x="249.0999984741211" y="0" type="line"/>
      <point x="409.0999984741211" y="0" type="line"/>
      <point x="409.0999984741211" y="600.0" type="line"/>
      <point x="409.0999984741211" y="788.1438040979643"/>
      <point x="287.3275023924197" y="800.0"/>
      <point x="249.1" y="800.0" type="curve"/>
    </contour>
  </outline>
</glyph>
<glyph name="n_with_caron" format="2">
  <advance width="453.2"/>
  <unicode hex="0148"/>
  <outline>
    <contour>
      <point x="221.6" y="638.8888888888889" type="line"/>
      <point x="221.6" y="727.1952888888889"/>
      <point x="149.9064" y="798.8888888888889"/>
      <point x="61.599999999999994" y="798.8888888888889" type="curve"/>
      <point x="61.599999999999994" y="638.8888888888889" type="line"/>
    </contour>
    <contour>
      <point x="391.6" y="798.8888888888889" type="line"/>
      <point x="303.29359999999997" y="798.8888888888889"/>
      <point x="231.6" y="727.1952888888889"/>
      <point x="231.6" y="638.8888888888889" type="curve"/>
      <point x="391.6" y="638.8888888888889" type="line"/>
    </contour>
    <contour>
      <point x="44.099998474121094" y="0" type="line"/>
      <point x="204.0999984741211" y="0" type="line"/>
      <point x="204.0999984741211" y="600" type="line"/>
      <point x="44.099998474121094" y="600" type="line"/>
    </contour>
    <contour>
      <point x="249.0999984741211" y="0" type="line"/>
      <point x="409.0999984741211" y="0" type="line"/>
      <point x="409.0999984741211" y="400.0" type="line"/>
      <point x="409.0999984741211" y="588.1438040979643"/>
      <point x="287.3275023924197" y="600.0"/>
      <point x="249.1" y="600.0" type="curve"/>
    </contour>
  </outline>
</glyph>
<glyph name="ENG" format="2">
  <advance width="453.2"/>
  <unicode hex="014A"/>
  <outline>
    <contour>
      <point x="44.099998474121094" y="0" type="line"/>
      <point x="204.0999984741211" y="0" type="line"/>
      <point x="204.0999984741211" y="800" type="line"/>
      <point x="44.099998474121094" y="800" type="line"/>
    </contour>
    <contour>
      <point x="249.0999984741211" y="-200" type="line"/>
      <point x="287.3275008665408" y="-200.0"/>
      <point x="409.10000033242574" y="-188.1438040979643"/>
      <point x="409.09999991024245" y="0.0" type="curve"/>
      <point x="409.09999856387867" y="600.0" type="line"/>
      <point x="409.0999981416953" y="788.1438040979643"/>
      <point x="287.3275023924197" y="800.0"/>
      <point x="249.1" y="800.0" type="curve"/>
    </contour>
  </outline>
</glyph>
<glyph name="eng" format="2">
  <advance width="453.2"/>
  <unicode hex="014B"/>
  <outline>
    <contour>
      <point x="44.099998474121094" y="0" type="line"/>
      <point x="204.0999984741211" y="0" type="line"/>
      <point x="204.0999984741211" y="600" type="line"/>
      <point x="44.099998474121094" y="600" type="line"/>
    </contour>
    <contour>
      <point x="249.0999984741211" y="-200" type="line"/>
      <point x="287.3275008665408" y="-200.0"/>
      <point x="409.1000004709365" y="-188.1438040979643"/>
      <point x="409.09999987284345" y="0.0" type="curve"/>
      <point x="409.09999860127766" y="400.0" type="line"/>
      <point x="409.0999980031846" y="588.1438040979643"/>
      <point x="287.3275023924197" y="600.0"/>
      <point x="249.1" y="600.0" type="curve"/>
    </contour>
  </outline>
</glyph>
<glyph name="OE" format="2">
  <advance width="863.2"/>
  <unicode hex="0152"/>
  <outline>
    <contour>
      <point x="44.09999859868263" y="195.0" type="line"/>
      <point x="44.09999801279558" y="6.856195902035694"/>
      <point x="165.87249760758027" y="-4.999999999999996"/>
      <point x="204.1" y="-5.0" type="curve"/>
      <point x="204.0999984741211" y="805" type="line"/>
      <point x="165.8724960817014" y="805.0"/>
      <point x="44.100000461325536" y="793.1438040979643"/>
      <point x="44.099999875438456" y="605.0" type="curve"/>
    </contour>
    <contour>
      <point x="249.0999984741211" y="-5" type="line"/>
      <point x="287.3275008665408" y="-5.0"/>
      <point x="409.1000004613256" y="6.856195902035694"/>
      <point x="409.09999987543847" y="195.0" type="curve"/>
      <point x="409.09999859868265" y="605.0" type="line"/>
      <point x="409.0999980127956" y="793.1438040979643"/>
      <point x="287.3275023924197" y="805.0"/>
      <point x="249.1" y="805.0" type="curve"/>
    </contour>
    <contour>
      <point x="454.0999984741211" y="0" type="line"/>
      <point x="614.0999984741211" y="0" type="line"/>
      <point x="614.0999984741211" y="800" type="line"/>
      <point x="454.0999984741211" y="800" type="line"/>
    </contour>
    <contour>
      <point x="659.1" y="800.0" type="line"/>
      <point x="659.1" y="711.6936"/>
      <point x="730.7936" y="640.0"/>
      <point x="819.1" y="640.0" type="curve"/>
      <point x="819.1" y="800.0" type="line"/>
    </contour>
    <contour>
      <point x="659.1" y="500.0" type="line"/>
      <point x="659.1" y="411.6936"/>
      <point x="730.7936" y="340.0"/>
      <point x="819.1" y="340.0" type="curve"/>
      <point x="819.1" y="500.0" type="line"/>
    </contour>
    <contour>
      <point x="819.1" y="160.0" type="line"/>
      <point x="730.7936" y="160.0"/>
      <point x="659.1" y="88.3064"/>
      <point x="659.1" y="0.0" type="curve"/>
      <point x="819.1" y="0.0" type="line"/>
    </contour>
  </outline>
</glyph>
<glyph name="r_with_acute" format="2">
  <advance width="453.2"/>
  <unicode hex="0155"/>
  <outline>
    <contour>
      <point x="219.1" y="638.8888888888889" type="line"/>
      <point x="307.40639999999996" y="638.8888888888889"/>
      <point x="379.1" y="710.582488888889"/>
      <point x="379.1" y="798.8888888888889" type="curve"/>
      <point x="219.1" y="798.8888888888889" type="line"/>
    </contour>
    <contour>
      <point x="414.1" y="520.0" type="curve" smooth="yes"/>
      <point x="414.1" y="566.91278"/>
      <point x="376.01278" y="605.0"/>
      <point x="329.1" y="605.0" type="curve" smooth="yes"/>
      <point x="282.18722" y="605.0"/>
      <point x="244.1" y="566.91278"/>
      <point x="244.1" y="520.0" type="curve" smooth="yes"/>
      <point x="244.1" y="473.08722"/>
      <point x="282.18722" y="435.0"/>
      <point x="329.1" y="435.0" type="curve" smooth="yes"/>
      <point x="376.01278" y="435.0"/>
      <point x="414.1" y="473.08722"/>
    </contour>
    <contour>
      <point x="44.099998474121094" y="0" type="line"/>
      <point x="204.0999984741211" y="0" type="line"/>
      <point x="204.0999984741211" y="600" type="line"/>
      <point x="44.099998474121094" y="600" type="line"/>
    </contour>
  </outline>
</glyph>
<glyph name="R_with_cedilla" format="2">
  <advance width="453.2"/>
  <unicode hex="0156"/>
  <outline>
    <contour>
      <point x="44.099998474121094" y="0" type="line"/>
      <point x="204.0999984741211" y="0" type="line"/>
      <point x="204.0999984741211" y="800" type="line"/>
      <point x="44.099998474121094" y="800" type="line"/>
    </contour>
    <contour>
      <point x="249.0999984741211" y="200" type="line"/>
      <point x="287.3275008665408" y="200.0"/>
      <point x="409.1000008073197" y="211.8561959020357"/>
      <point x="409.09999978201733" y="400.0" type="curve"/>
      <point x="409.0999986921038" y="600.0" type="line"/>
      <point x="409.0999976668014" y="788.1438040979643"/>
      <point x="287.3275023924197" y="800.0"/>
      <point x="249.1" y="800.0" type="curve"/>
    </contour>
    <contour>
      <point x="249.0999984741211" y="0" type="line"/>
      <point x="409.0999984741211" y="0" type="line"/>
      <point x="409.0999984741211" y="5.0" type="line"/>
      <point x="409.0999984741211" y="178.07789534499636"/>
      <point x="297.4121683582315" y="200.0"/>
      <point x="249.1" y="200.0" type="curve"/>
    </contour>
    <contour>
      <point x="376.6" y="-185.0" type="line"/>
      <point x="376.6" y="-96.6936"/>
      <point x="304.90639999999996" y="-25.0"/>
      <point x="216.6" y="-25.0" type="curve"/>
      <point x="216.6" y="-185.0" type="line"/>
    </contour>
  </outline>
</glyph>
<glyph name="r_with_cedilla" format="2">
  <advance width="453.2"/>
  <unicode hex="0157"/>
  <outline>
    <contour>
      <point x="414.1" y="520.0" type="curve" smooth="yes"/>
      <point x="414.1" y="566.91278"/>
      <point x="376.01278" y="605.0"/>
      <point x="329.1" y="605.0" type="curve" smooth="yes"/>
      <point x="282.18722" y="605.0"/>
      <point x="244.1" y="566.91278"/>
      <point x="244.1" y="520.0" type="curve" smooth="yes"/>
      <point x="244.1" y="473.08722"/>
      <point x="282.18722" y="435.0"/>
      <point x="329.1" y="435.0" type="curve" smooth="yes"/>
      <point x="376.01278" y="435.0"/>
      <point x="414.1" y="473.08722"/>
    </contour>
    <contour>
      <point x="44.099998474121094" y="0" type="line"/>
      <point x="204.0999984741211" y="0" type="line"/>
      <point x="204.0999984741211" y="600" type="line"/>
      <point x="44.099998474121094" y="600" type="line"/>
    </contour>
    <contour>
      <point x="379.1" y="-185.0" type="line"/>
      <point x="379.1" y="-96.6936"/>
      <point x="307.40639999999996" y="-25.0"/>
      <point x="219.1" y="-25.0" type="curve"/>
      <point x="219.1" y="-185.0" type="line"/>
    </contour>
  </outline>
</glyph>
<glyph name="S_with_circumflex" format="2">
  <advance width="453.2"/>
  <unicode hex="015C"/>
  <outline>
    <contour>
      <point x="61.599999999999994" y="838.8888888888889" type="line"/>
      <point x="149.9064" y="838.8888888888889"/>
      <point x="221.6" y="910.582488888889"/>
      <point x="221.6" y="998.8888888888889" type="curve"/>
      <point x="61.599999999999994" y="998.8888888888889" type="line"/>
    </contour>
    <contour>
      <point x="231.6" y="998.8888888888889" type="line"/>
      <point x="231.6" y="910.582488888889"/>
      <point x="303.29359999999997" y="838.8888888888889"/>
      <point x="391.6" y="838.8888888888889" type="curve"/>
      <point x="391.6" y="998.8888888888889" type="line"/>
    </contour>
    <contour>
      <point x="44.09999885559082" y="520.0" type="line"/>
      <point x="44.09999706131169" y="331.85619590203567"/>
      <point x="165.87249760758027" y="320.0"/>
      <point x="204.1" y="320.0" type="curve"/>
      <point x="204.0999984741211" y="800" type="line"/>
      <point x="165.8724960817014" y="800.0"/>
      <point x="44.10000141280942" y="788.1438040979643"/>
      <point x="44.09999961853027" y="600.0" type="curve"/>
    </contour>
    <contour>
      <point x="244.1" y="800.0" type="line"/>
      <point x="244.1" y="711.6936"/>
      <point x="315.7936" y="640.0"/>
      <point x="404.1" y="640.0" type="curve"/>
      <point x="404.1" y="800.0" type="line"/>
    </contour>
    <contour>
      <point x="249.0999984741211" y="0" type="line"/>
      <point x="287.3275008665408" y="0.0"/>
      <point x="409.10000141280943" y="11.856195902035694"/>
      <point x="409.0999996185303" y="200.0" type="curve"/>
      <point x="409.09999885559085" y="280.0" type="line"/>
      <point x="409.0999970613116" y="468.14380409796433"/>
      <point x="287.3275023924197" y="480.0"/>
      <point x="249.1" y="480.0" type="curve"/>
    </contour>
    <contour>
      <point x="206.6" y="0" type="line"/>
      <point x="206.6" y="88.3064"/>
      <point x="134.9064" y="160.0"/>
      <point x="46.6" y="160.0" type="curve"/>
      <point x="46.6" y="0" type="line"/>
    </contour>
  </outline>
</glyph>
<glyph name="s_with_circumflex" format="2">
  <advance width="453.2"/>
  <unicode hex="015D"/>
  <outline>
    <contour>
      <point x="61.599999999999994" y="638.8888888888889" type="line"/>
      <point x="149.9064" y="638.8888888888889"/>
      <point x="221.6" y="710.582488888889"/>
      <point x="221.6" y="798.8888888888889" type="curve"/>
      <point x="61.599999999999994" y="798.8888888888889" type="line"/>
    </contour>
    <contour>
      <point x="231.6" y="798.8888888888889" type="line"/>
      <point x="231.6" y="710.582488888889"/>
      <point x="303.29359999999997" y="638.8888888888889"/>
      <point x="391.6" y="638.8888888888889" type="curve"/>
      <point x="391.6" y="798.8888888888889" type="line"/>
    </contour>
    <contour>
      <point x="44.09999885559082" y="395.0" type="line"/>
      <point x="44.0999957282131" y="272.0265038319384"/>
      <point x="130.36253119468387" y="220.0"/>
      <point x="204.1" y="220.0" type="curve"/>
      <point x="204.0999984741211" y="600" type="line"/>
      <point x="165.8724960817014" y="600.0"/>
      <point x="44.10000376749176" y="588.1438040979642"/>
      <point x="44.099998982747394" y="400.0" type="curve"/>
    </contour>
    <contour>
      <point x="244.1" y="600.0" type="line"/>
      <point x="244.1" y="511.6936"/>
      <point x="315.7936" y="440.0"/>
      <point x="404.1" y="440.0" type="curve"/>
      <point x="404.1" y="600.0" type="line"/>
    </contour>
    <contour>
      <point x="249.0999984741211" y="-5" type="line"/>
      <point x="287.3275008665408" y="-5.0"/>
      <point x="409.10000376749184" y="6.856195902035751"/>
      <point x="409.0999989827474" y="195.0" type="curve"/>
      <point x="409.09999885559085" y="200.0" type="line"/>
      <point x="409.09999572821295" y="322.9734961680616"/>
      <point x="322.8374688053161" y="375.0"/>
      <point x="249.1" y="375.0" type="curve"/>
    </contour>
    <contour>
      <point x="206.6" y="0" type="line"/>
      <point x="206.6" y="88.3064"/>
      <point x="134.9064" y="160.0"/>
      <point x="46.6" y="160.0" type="curve"/>
      <point x="46.6" y="0" type="line"/>
    </contour>
  </outline>
</glyph>
<glyph name="S_with_cedilla" format="2">
  <advance width="453.2"/>
  <unicode hex="015E"/>
  <outline>
    <contour>
      <point x="44.09999885559082" y="520.0" type="line"/>
      <point x="44.09999706131169" y="331.85619590203567"/>
      <point x="165.87249760758027" y="320.0"/>
      <point x="204.1" y="320.0" type="curve"/>
      <point x="204.0999984741211" y="800" type="line"/>
      <point x="165.8724960817014" y="800.0"/>
      <point x="44.10000141280942" y="788.1438040979643"/>
      <point x="44.09999961853027" y="600.0" type="curve"/>
    </contour>
    <contour>
      <point x="244.1" y="800.0" type="line"/>
      <point x="244.1" y="711.6936"/>
      <point x="315.7936" y="640.0"/>
      <point x="404.1" y="640.0" type="curve"/>
      <point x="404.1" y="800.0" type="line"/>
    </contour>
    <contour>
      <point x="249.0999984741211" y="0" type="line"/>
      <point x="287.3275008665408" y="0.0"/>
      <point x="409.10000141280943" y="11.856195902035694"/>
      <point x="409.0999996185303" y="200.0" type="curve"/>
      <point x="409.09999885559085" y="280.0" type="line"/>
      <point x="409.0999970613116" y="468.14380409796433"/>
      <point x="287.3275023924197" y="480.0"/>
      <point x="249.1" y="480.0" type="curve"/>
    </contour>
    <contour>
      <point x="206.6" y="0" type="line"/>
      <point x="206.6" y="88.3064"/>
      <point x="134.9064" y="160.0"/>
      <point x="46.6" y="160.0" type="curve"/>
      <point x="46.6" y="0" type="line"/>
    </contour>
    <contour>
      <point x="376.6" y="-185.0" type="line"/>
      <point x="376.6" y="-96.6936"/>
      <point x="304.90639999999996" y="-25.0"/>
      <point x="216.6" y="-25.0" type="curve"/>
      <point x="216.6" y="-185.0" type="line"/>
    </contour>
  </outline>
</glyph>
<glyph name="U_with_smalltilde" format="2">
  <advance width="453.2"/>
  <unicode hex="0168"/>
  <outline>
    <contour>
      <point x="186.5999984741211" y="838.8888863457574" type="line"/>
      <point x="374.7438025720854" y="838.8888823584704"/>
      <point x="386.6" y="960.6613864964692"/>
      <point x="386.6" y="998.8888888888889" type="curve"/>
      <point x="266.5999984741211" y="998.8888863457573" type="line"/>
      <point x="78.45619437615682" y="998.8888823584705"/>
      <point x="66.6" y="877.1163912813087"/>
      <point x="66.6" y="838.8888888888889" type="curve"/>
    </contour>
    <contour>
      <point x="44.099998474121094" y="195.0" type="line"/>
      <point x="44.09999847412111" y="6.856195902035694"/>
      <point x="165.87249760758027" y="-4.999999999999996"/>
      <point x="204.1" y="-5.0" type="curve"/>
      <point x="204.0999984741211" y="800" type="line"/>
      <point x="44.099998474121094" y="800" type="line"/>
    </contour>
    <contour>
      <point x="249.0999984741211" y="-5" type="line"/>
      <point x="287.3275008665408" y="-5.0"/>
      <point x="409.10000035046437" y="6.856195902035694"/>
      <point x="409.0999999053719" y="195.0" type="curve"/>
      <point x="409.0999984741211" y="800" type="line"/>
      <point x="249.0999984741211" y="800" type="line"/>
    </contour>
  </outline>
</glyph>
<glyph name="u_with_smalltilde" format="2">
  <advance width="453.2"/>
  <unicode hex="0169"/>
  <outline>
    <contour>
      <point x="186.5999984741211" y="638.8888863457574" type="line"/>
      <point x="374.7438025720854" y="638.8888823584704"/>
      <point x="386.6" y="760.6613864964692"/>
      <point x="386.6" y="798.8888888888889" type="curve"/>
      <point x="266.5999984741211" y="798.8888863457573" type="line"/>
      <point x="78.45619437615682" y="798.8888823584705"/>
      <point x="66.6" y="677.1163912813087"/>
      <point x="66.6" y="638.8888888888889" type="curve"/>
    </contour>
    <contour>
      <point x="44.099998474121094" y="195.0" type="line"/>
      <point x="44.09999847412111" y="6.856195902035694"/>
      <point x="165.87249760758027" y="-4.999999999999996"/>
      <point x="204.1" y="-5.0" type="curve"/>
      <point x="204.0999984741211" y="600" type="line"/>
      <point x="44.099998474121094" y="600" type="line"/>
    </contour>
    <contour>
      <point x="249.0999984741211" y="-5" type="line"/>
      <point x="287.3275008665408" y="-5.0"/>
      <point x="409.10000050797646" y="6.856195902035694"/>
      <point x="409.09999986284237" y="195.0" type="curve"/>
      <point x="409.0999984741211" y="600" type="line"/>
      <point x="249.0999984741211" y="600" type="line"/>
    </contour>
  </outline>
</glyph>
<glyph name="U_with_macron" format="2">
  <advance width="453.2"/>
  <unicode hex="016A"/>
  <outline>
    <contour>
      <point x="66.5999984741211" y="838.8888854980469" type="line"/>
      <point x="386.5999984741211" y="838.8888854980469" type="line"/>
      <point x="386.5999984741211" y="998.8888854980469" type="line"/>
      <point x="66.5999984741211" y="998.8888854980469" type="line"/>
    </contour>
    <contour>
      <point x="44.099998474121094" y="195.0" type="line"/>
      <point x="44.09999847412111" y="6.856195902035694"/>
      <point x="165.87249760758027" y="-4.999999999999996"/>
      <point x="204.1" y="-5.0" type="curve"/>
      <point x="204.0999984741211" y="800" type="line"/>
      <point x="44.099998474121094" y="800" type="line"/>
    </contour>
    <contour>
      <point x="249.0999984741211" y="-5" type="line"/>
      <point x="287.3275008665408" y="-5.0"/>
      <point x="409.10000035046437" y="6.856195902035694"/>
      <point x="409.0999999053719" y="195.0" type="curve"/>
      <point x="409.0999984741211" y="800" type="line"/>
      <point x="249.0999984741211" y="800" type="line"/>
    </contour>
  </outline>
</glyph>
<glyph name="u_with_macron" format="2">
  <advance width="453.2"/>
  <unicode hex="016B"/>
  <outline>
    <contour>
      <point x="66.5999984741211" y="638.8888854980469" type="line"/>
      <point x="386.5999984741211" y="638.8888854980469" type="line"/>
      <point x="386.5999984741211" y="798.8888854980469" type="line"/>
      <point x="66.5999984741211" y="798.8888854980469" type="line"/>
    </contour>
    <contour>
      <point x="44.099998474121094" y="195.0" type="line"/>
      <point x="44.09999847412111" y="6.856195902035694"/>
      <point x="165.87249760758027" y="-4.999999999999996"/>
      <point x="204.1" y="-5.0" type="curve"/>
      <point x="204.0999984741211" y="600" type="line"/>
      <point x="44.099998474121094" y="600" type="line"/>
    </contour>
    <contour>
      <point x="249.0999984741211" y="-5" type="line"/>
      <point x="287.3275008665408" y="-5.0"/>
      <point x="409.10000050797646" y="6.856195902035694"/>
      <point x="409.09999986284237" y="195.0" type="curve"/>
      <point x="409.0999984741211" y="600" type="line"/>
      <point x="249.0999984741211" y="600" type="line"/>
    </contour>
  </outline>
</glyph>
<glyph name="u_with_breve" format="2">
  <advance width="453.2"/>
  <unicode hex="016D"/>
  <outline>
    <contour>
      <point x="66.5999984741211" y="798.8888854980469" type="line"/>
      <point x="66.6" y="710.582488888889"/>
      <point x="138.2936" y="638.8888888888889"/>
      <point x="226.6" y="638.8888888888889" type="curve"/>
      <point x="314.90639999999996" y="638.8888888888889"/>
      <point x="386.6" y="710.582488888889"/>
      <point x="386.6" y="798.8888888888889" type="curve"/>
    </contour>
    <contour>
      <point x="44.099998474121094" y="195.0" type="line"/>
      <point x="44.09999847412111" y="6.856195902035694"/>
      <point x="165.87249760758027" y="-4.999999999999996"/>
      <point x="204.1" y="-5.0" type="curve"/>
      <point x="204.0999984741211" y="600" type="line"/>
      <point x="44.099998474121094" y="600" type="line"/>
    </contour>
    <contour>
      <point x="249.0999984741211" y="-5" type="line"/>
      <point x="287.3275008665408" y="-5.0"/>
      <point x="409.10000050797646" y="6.856195902035694"/>
      <point x="409.09999986284237" y="195.0" type="curve"/>
      <point x="409.0999984741211" y="600" type="line"/>
      <point x="249.0999984741211" y="600" type="line"/>
    </contour>
  </outline>
</glyph>
<glyph name="U_with_ring" format="2">
  <advance width="453.2"/>
  <unicode hex="016E"/>
  <outline>
    <contour>
      <point x="204.1" y="1003.8888888888889" type="line"/>
      <point x="157.18722" y="1003.8888888888889"/>
      <point x="119.1" y="965.8016688888889"/>
      <point x="119.1" y="918.8888888888889" type="curve" smooth="yes"/>
      <point x="119.1" y="871.9761088888889"/>
      <point x="157.18722" y="833.8888888888889"/>
      <point x="204.1" y="833.8888888888889" type="curve"/>
    </contour>
    <contour>
      <point x="249.1" y="833.8888888888889" type="line"/>
      <point x="296.01278" y="833.8888888888889"/>
      <point x="334.1" y="871.9761088888889"/>
      <point x="334.1" y="918.8888888888889" type="curve" smooth="yes"/>
      <point x="334.1" y="965.8016688888889"/>
      <point x="296.01278" y="1003.8888888888889"/>
      <point x="249.1" y="1003.8888888888889" type="curve"/>
    </contour>
    <contour>
      <point x="44.099998474121094" y="195.0" type="line"/>
      <point x="44.09999847412111" y="6.856195902035694"/>
      <point x="165.87249760758027" y="-4.999999999999996"/>
      <point x="204.1" y="-5.0" type="curve"/>
      <point x="204.0999984741211" y="800" type="line"/>
      <point x="44.099998474121094" y="800" type="line"/>
    </contour>
    <contour>
      <point x="249.0999984741211" y="-5" type="line"/>
      <point x="287.3275008665408" y="-5.0"/>
      <point x="409.10000035046437" y="6.856195902035694"/>
      <point x="409.0999999053719" y="195.0" type="curve"/>
      <point x="409.0999984741211" y="800" type="line"/>
      <point x="249.0999984741211" y="800" type="line"/>
    </contour>
  </outline>
</glyph>
<glyph name="U_with_acutedbl" format="2">
  <advance width="453.2"/>
  <unicode hex="0170"/>
  <outline>
    <contour>
      <point x="44.099999999999994" y="838.8888888888889" type="line"/>
      <point x="132.4064" y="838.8888888888889"/>
      <point x="204.1" y="910.582488888889"/>
      <point x="204.1" y="998.8888888888889" type="curve"/>
      <point x="44.099999999999994" y="998.8888888888889" type="line"/>
    </contour>
    <contour>
      <point x="249.1" y="838.8888888888889" type="line"/>
      <point x="337.40639999999996" y="838.8888888888889"/>
      <point x="409.1" y="910.582488888889"/>
      <point x="409.1" y="998.8888888888889" type="curve"/>
      <point x="249.1" y="998.8888888888889" type="line"/>
    </contour>
    <contour>
      <point x="44.099998474121094" y="195.0" type="line"/>
      <point x="44.09999847412111" y="6.856195902035694"/>
      <point x="165.87249760758027" y="-4.999999999999996"/>
      <point x="204.1" y="-5.0" type="curve"/>
      <point x="204.0999984741211" y="800" type="line"/>
      <point x="44.099998474121094" y="800" type="line"/>
    </contour>
    <contour>
      <point x="249.0999984741211" y="-5" type="line"/>
      <point x="287.3275008665408" y="-5.0"/>
      <point x="409.10000035046437" y="6.856195902035694"/>
      <point x="409.0999999053719" y="195.0" type="curve"/>
      <point x="409.0999984741211" y="800" type="line"/>
      <point x="249.0999984741211" y="800" type="line"/>
    </contour>
  </outline>
</glyph>
<glyph name="W_with_circumflex" format="2">
  <advance width="658.2"/>
  <unicode hex="0174"/>
  <outline>
    <contour>
      <point x="164.10000000000002" y="838.8888888888889" type="line"/>
      <point x="252.40640000000002" y="838.8888888888889"/>
      <point x="324.1" y="910.582488888889"/>
      <point x="324.1" y="998.8888888888889" type="curve"/>
      <point x="164.10000000000002" y="998.8888888888889" type="line"/>
    </contour>
    <contour>
      <point x="334.1" y="998.8888888888889" type="line"/>
      <point x="334.1" y="910.582488888889"/>
      <point x="405.7936" y="838.8888888888889"/>
      <point x="494.1" y="838.8888888888889" type="curve"/>
      <point x="494.1" y="998.8888888888889" type="line"/>
    </contour>
    <contour>
      <point x="44.09999856948853" y="200.0" type="line"/>
      <point x="44.09999812091872" y="11.856195902035694"/>
      <point x="165.87249760758027" y="4.681518844427462e-15"/>
      <point x="204.1" y="0.0" type="curve"/>
      <point x="204.09999856948852" y="600.0" type="line"/>
      <point x="204.09999812091877" y="788.1438040979643"/>
      <point x="82.32750239241975" y="800.0"/>
      <point x="44.1" y="800.0" type="curve"/>
    </contour>
    <contour>
      <point x="249.0999984741211" y="0" type="line"/>
      <point x="409.0999984741211" y="0" type="line"/>
      <point x="409.0999984741211" y="600.0" type="line"/>
      <point x="409.0999984741211" y="788.1438040979643"/>
      <point x="287.3275023924197" y="800.0"/>
      <point x="249.1" y="800.0" type="curve"/>
    </contour>
    <contour>
      <point x="454.0999984741211" y="0" type="line"/>
      <point x="492.3275008665408" y="0.0"/>
      <point x="614.1000003532024" y="11.856195902035694"/>
      <point x="614.0999999046326" y="200.0" type="curve"/>
      <point x="614.0999984741211" y="800" type="line"/>
      <point x="454.0999984741211" y="800" type="line"/>
    </contour>
  </outline>
</glyph>
<glyph name="y_with_circumflex" format="2">
  <advance width="453.2"/>
  <unicode hex="0177"/>
  <outline>
    <contour>
      <point x="61.599999999999994" y="638.8888888888889" type="line"/>
      <point x="149.9064" y="638.8888888888889"/>
      <point x="221.6" y="710.582488888889"/>
      <point x="221.6" y="798.8888888888889" type="curve"/>
      <point x="61.599999999999994" y="798.8888888888889" type="line"/>
    </contour>
    <contour>
      <point x="231.6" y="798.8888888888889" type="line"/>
      <point x="231.6" y="710.582488888889"/>
      <point x="303.29359999999997" y="638.8888888888889"/>
      <point x="391.6" y="638.8888888888889" type="curve"/>
      <point x="391.6" y="798.8888888888889" type="line"/>
    </contour>
    <contour>
      <point x="44.09999861127874" y="200.0" type="line"/>
      <point x="44.099997966144684" y="11.856195902035694"/>
      <point x="165.87249760758027" y="4.681518844427462e-15"/>
      <point x="204.1" y="0.0" type="curve"/>
      <point x="204.09999861127875" y="405.0" type="line"/>
      <point x="204.09999796614468" y="593.1438040979643"/>
      <point x="82.32750239241975" y="605.0"/>
      <point x="44.1" y="605.0" type="curve"/>
    </contour>
    <contour>
      <point x="249.0999984741211" y="-210" type="line"/>
      <point x="287.3275008665408" y="-210.0"/>
      <point x="409.1000003477685" y="-198.1438040979643"/>
      <point x="409.09999990609975" y="-10.0" type="curve"/>
      <point x="409.0999984741211" y="600" type="line"/>
      <point x="249.0999984741211" y="600" type="line"/>
    </contour>
    <contour>
      <point x="209.1" y="-130.0" type="curve" smooth="yes"/>
      <point x="209.1" y="-85.8468"/>
      <point x="173.2532" y="-50.0"/>
      <point x="129.1" y="-50.0" type="curve" smooth="yes"/>
      <point x="84.9468" y="-50.0"/>
      <point x="49.1" y="-85.8468"/>
      <point x="49.1" y="-130.0" type="curve" smooth="yes"/>
      <point x="49.1" y="-174.1532"/>
      <point x="84.9468" y="-210.0"/>
      <point x="129.1" y="-210.0" type="curve" smooth="yes"/>
      <point x="173.2532" y="-210.0"/>
      <point x="209.1" y="-174.1532"/>
    </contour>
  </outline>
</glyph>
